<svg width="12" height="12" viewBox="0 0 12 12" fill="none" xmlns="http://www.w3.org/2000/svg">
<path d="M10.6771 3.32289C11.1076 3.75341 11.1076 4.45141 10.6771 4.88193L6.77951 8.77953C6.34899 9.21005 5.65098 9.21005 5.22047 8.77953C4.78995 8.34901 4.78995 7.65101 5.22047 7.22049L9.11807 3.32289C9.54859 2.89237 10.2466 2.89237 10.6771 3.32289Z" fill="black"/>
<path d="M1.32289 3.32292C1.75341 2.8924 2.45141 2.8924 2.88193 3.32292L6.77953 7.22052C7.21005 7.65104 7.21003 8.34901 6.77951 8.77953C6.34899 9.21005 5.65098 9.21005 5.22047 8.77953L1.32289 4.88196C0.892371 4.45144 0.892371 3.75344 1.32289 3.32292Z" fill="black"/>
</svg>
