<svg width="20" height="20" viewBox="0 0 20 20" fill="none" xmlns="http://www.w3.org/2000/svg">
<path fill-rule="evenodd" clip-rule="evenodd" d="M4.70711 3.29289C4.31658 2.90237 3.68342 2.90237 3.29289 3.29289C2.90237 3.68342 2.90237 4.31658 3.29289 4.70711L8.94979 10.364L3.29289 16.0209C2.90237 16.4114 2.90237 17.0446 3.29289 17.4351C3.68342 17.8256 4.31658 17.8256 4.70711 17.4351L10.364 11.7782L16.0208 17.435C16.4113 17.8256 17.0445 17.8256 17.435 17.435C17.8256 17.0445 17.8256 16.4113 17.435 16.0208L11.7782 10.364L17.435 4.70718C17.8256 4.31666 17.8256 3.68349 17.435 3.29297C17.0445 2.90245 16.4113 2.90245 16.0208 3.29297L10.364 8.94979L4.70711 3.29289Z" fill="black"/>
</svg>
