<svg width="20" height="20" viewBox="0 0 20 20" fill="none" xmlns="http://www.w3.org/2000/svg">
<path fill-rule="evenodd" clip-rule="evenodd" d="M9 3H3V17H9C9.55 17 10 17.45 10 18C10 18.55 9.55 19 9 19H3C1.9 19 1 18.1 1 17V3C1 1.9 1.9 1 3 1H9C9.55 1 10 1.45 10 2C10 2.55 9.55 3 9 3ZM15.86 6.86004L18.65 9.65004C18.84 9.84004 18.84 10.16 18.64 10.35L15.85 13.14C15.54 13.46 15 13.24 15 12.79V11H8C7.45 11 7 10.55 7 10C7 9.45004 7.45 9.00004 8 9.00004H15V7.21004C14.9999 7.11033 15.0295 7.01286 15.0851 6.93009C15.1408 6.84733 15.2198 6.78304 15.3121 6.74545C15.4045 6.70787 15.506 6.69869 15.6036 6.71911C15.7012 6.73952 15.7905 6.78859 15.86 6.86004Z" fill="#C4C4C4"/>
</svg>
