<svg width="22" height="22" viewBox="0 0 22 22" fill="none" xmlns="http://www.w3.org/2000/svg">
<path fill-rule="evenodd" clip-rule="evenodd" d="M11 22C17.0751 22 22 17.0751 22 11C22 4.92487 17.0751 0 11 0C4.92487 0 0 4.92487 0 11C0 17.0751 4.92487 22 11 22ZM11 5.07692C11.6543 5.07692 12.1846 5.60729 12.1846 6.26154V9.81536H15.7385C16.3927 9.81536 16.9231 10.3457 16.9231 11C16.9231 11.6542 16.3927 12.1846 15.7385 12.1846H12.1846V15.7385C12.1846 16.3927 11.6543 16.9231 11 16.9231C10.3458 16.9231 9.8154 16.3927 9.8154 15.7385V12.1846H6.26154C5.60729 12.1846 5.07692 11.6542 5.07692 11C5.07692 10.3457 5.60729 9.81536 6.26154 9.81536H9.8154V6.26154C9.8154 5.60729 10.3458 5.07692 11 5.07692Z" fill="#80C2FF"/>
</svg>
