<svg width="20" height="18" viewBox="0 0 20 18" fill="none" xmlns="http://www.w3.org/2000/svg">
<path d="M8.55207 0.847058C9.1956 -0.282353 10.8044 -0.282352 11.4479 0.847059L19.7735 15.4588C20.417 16.5882 19.6126 18 18.3256 18H1.67442C0.387369 18 -0.417034 16.5882 0.22649 15.4588L8.55207 0.847058Z" fill="#D66363"/>
<path d="M11.2474 8.01398L10.8752 12.1037C10.8578 12.3154 10.7881 12.4809 10.6662 12.6C10.5443 12.7147 10.3919 12.7721 10.209 12.7721C10.0261 12.7721 9.87376 12.7147 9.75185 12.6C9.62994 12.4809 9.56027 12.3154 9.54286 12.1037L9.16406 8.01398C9.14665 7.80663 9.13794 7.66986 9.13794 7.60368C9.13794 7.25957 9.24026 6.98383 9.44489 6.77648C9.64953 6.56471 9.90424 6.45883 10.209 6.45883C10.5094 6.45883 10.762 6.56471 10.9666 6.77648C11.1756 6.98824 11.2801 7.25516 11.2801 7.57721C11.2801 7.64339 11.2692 7.78898 11.2474 8.01398ZM11.0319 14.7507C11.0319 14.9449 10.9601 15.1103 10.8164 15.2471C10.6727 15.3794 10.4746 15.4456 10.2221 15.4456C9.96955 15.4456 9.77144 15.3794 9.62776 15.2471C9.48408 15.1103 9.41224 14.9449 9.41224 14.7507C9.41224 14.561 9.4819 14.4 9.62123 14.2677C9.76491 14.1309 9.96519 14.0625 10.2221 14.0625C10.479 14.0625 10.6771 14.1287 10.8164 14.261C10.9601 14.3934 11.0319 14.5566 11.0319 14.7507Z" fill="white"/>
</svg>
