<svg width="250" height="130" viewBox="0 0 250 130" fill="none" xmlns="http://www.w3.org/2000/svg">
<path fill-rule="evenodd" clip-rule="evenodd" d="M15 0C6.71573 0 0 6.71573 0 15V51.2201C0.0475589 51.2196 0.0951783 51.2193 0.142857 51.2193C7.40146 51.2193 13.2857 57.2635 13.2857 64.7193C13.2857 72.1751 7.40146 78.2193 0.142857 78.2193C0.0951783 78.2193 0.0475589 78.219 0 78.2185V115C0 123.284 6.71573 130 15 130H235C243.284 130 250 123.284 250 115V78.2185C249.952 78.219 249.905 78.2193 249.857 78.2193C242.599 78.2193 236.714 72.1751 236.714 64.7193C236.714 57.2635 242.599 51.2193 249.857 51.2193C249.905 51.2193 249.952 51.2196 250 51.2201V15C250 6.71573 243.284 0 235 0H15Z" fill="#E8F4FF"/>
<mask id="mask0_77_1763" style="mask-type:alpha" maskUnits="userSpaceOnUse" x="0" y="0" width="250" height="130">
<path fill-rule="evenodd" clip-rule="evenodd" d="M15 0C6.71573 0 0 6.71573 0 15V51.2201C0.0475589 51.2196 0.0951783 51.2193 0.142857 51.2193C7.40146 51.2193 13.2857 57.2635 13.2857 64.7193C13.2857 72.1751 7.40146 78.2193 0.142857 78.2193C0.0951783 78.2193 0.0475589 78.219 0 78.2185V115C0 123.284 6.71573 130 15 130H235C243.284 130 250 123.284 250 115V78.2185C249.952 78.219 249.905 78.2193 249.857 78.2193C242.599 78.2193 236.714 72.1751 236.714 64.7193C236.714 57.2635 242.599 51.2193 249.857 51.2193C249.905 51.2193 249.952 51.2196 250 51.2201V15C250 6.71573 243.284 0 235 0H15Z" fill="#E8F4FF"/>
</mask>
<g mask="url(#mask0_77_1763)">
<rect x="172" y="0.219299" width="78" height="130" fill="#2394FD"/>
<path d="M196.064 109.415L196.064 104.921L195.14 104.921L195.14 109.415L192.55 109.415L192.55 104.459L191.612 104.459L191.612 110.549L200.012 110.549L200.012 109.555C200.012 107.161 199.928 105.481 199.592 103.521L198.654 103.633C198.99 105.509 199.074 107.133 199.074 109.415L196.064 109.415ZM190.478 102.191L203.022 102.191L203.022 101.043L190.478 101.043L190.478 102.191ZM191.57 94.7157L191.57 95.8497L193.824 95.8497C196.204 95.8497 198.612 97.3757 199.494 99.2237L200.432 98.5237C199.676 97.0537 198.108 95.8497 196.218 95.2757C198.01 94.6737 199.494 93.4697 200.194 92.0417L199.27 91.3557C198.43 93.2177 196.12 94.7157 193.824 94.7157L191.57 94.7157ZM190.478 90.0397L203.064 90.0397L203.064 88.8917L190.478 88.8917L190.478 90.0397ZM196.792 76.1668C196.372 78.3648 194.468 80.7448 192.326 80.7448L191.36 80.7448L191.36 81.9488L192.326 81.9488C194.468 81.9488 196.358 84.3148 196.792 86.5128L197.744 85.9948C197.296 84.1048 195.952 82.1448 194.118 81.3468C195.966 80.5488 197.31 78.5888 197.744 76.6848L196.792 76.1668ZM200.404 86.9888L201.356 86.9888L201.356 75.6068L200.404 75.6068L200.404 86.9888ZM190.758 66.3536C190.758 69.0696 191.64 70.7636 193.138 70.7636C194.622 70.7636 195.504 69.0696 195.504 66.3536C195.504 63.6376 194.622 61.9436 193.138 61.9436C191.64 61.9436 190.758 63.6376 190.758 66.3536ZM191.668 66.3536C191.668 64.3656 192.214 63.1196 193.138 63.1196C194.062 63.1196 194.608 64.3656 194.608 66.3536C194.608 68.3416 194.062 69.5876 193.138 69.5876C192.214 69.5876 191.668 68.3416 191.668 66.3536ZM198.738 70.6236L202.868 70.6236L202.868 62.0556L198.738 62.0556L198.738 70.6236ZM199.648 63.1756L201.944 63.1756L201.944 69.5036L199.648 69.5036L199.648 63.1756ZM196.582 72.0236L197.506 72.0236L197.506 60.6696L196.582 60.6696L196.582 72.0236ZM198.164 55.5327L198.164 52.6627L200.544 52.6627L200.544 55.5327L198.164 55.5327ZM200.544 51.5287L198.164 51.5287L198.164 49.5687L197.226 49.5687L197.226 57.2967L195.21 57.2967L195.21 49.8627L191.402 49.8627L191.402 58.4587L192.34 58.4587L192.34 50.9827L194.286 50.9827L194.286 58.4307L198.164 58.4307L198.164 56.6667L200.544 56.6667L200.544 59.8587L201.482 59.8587L201.482 48.4487L200.544 48.4487L200.544 51.5287ZM197.24 36.2978L197.24 38.2018C195.182 37.7538 193.726 37.7538 192.41 37.7538L191.262 37.7538L191.262 46.2238L192.2 46.2238L192.2 38.8598L192.41 38.8598C192.914 38.8598 193.418 38.8598 193.964 38.8878L194.258 46.5878L195.224 46.4338L194.86 38.9578C195.574 39.0138 196.344 39.1258 197.24 39.3358L197.24 47.6518L198.178 47.6518L198.178 42.5418L203.036 42.5418L203.036 41.3938L198.178 41.3938L198.178 36.2978L197.24 36.2978ZM199.312 32.8829L199.312 34.0309L202.756 34.0309L202.756 25.3929L201.818 25.3929L201.818 32.8829L199.312 32.8829ZM191.976 31.3849L191.976 28.2629L194.832 28.2629L194.832 31.3849L191.976 31.3849ZM197.282 29.2289L195.756 29.2289L195.756 25.2669L194.832 25.2669L194.832 27.1149L191.976 27.1149L191.976 25.2249L191.052 25.2249L191.052 34.4369L191.976 34.4369L191.976 32.5329L194.832 32.5329L194.832 34.3949L195.756 34.3949L195.756 30.3769L197.282 30.3769L197.282 35.5009L198.206 35.5009L198.206 24.1469L197.282 24.1469L197.282 29.2289ZM209.304 88.4723L209.304 90.3343L211.18 90.3343C213.574 90.3343 216.038 91.3143 217.06 93.4843L218.558 92.3783C217.844 90.9223 216.486 89.9563 214.848 89.3963C216.388 88.8643 217.634 87.9543 218.32 86.6103L216.864 85.4903C215.842 87.5623 213.504 88.4723 211.18 88.4723L209.304 88.4723ZM213.266 81.2483L213.266 83.1243L208.31 83.1243L208.31 84.9723L221.204 84.9723L221.204 83.1243L214.806 83.1243L214.806 81.2483L213.266 81.2483ZM219.818 75.2434C219.818 76.9654 219.524 77.8474 218.866 77.8474C218.208 77.8474 217.928 76.9654 217.928 75.2434C217.928 73.5214 218.208 72.6394 218.866 72.6394C219.524 72.6394 219.818 73.5214 219.818 75.2434ZM216.528 75.2434C216.528 78.0294 217.368 79.7094 218.866 79.7094C220.364 79.7094 221.218 78.0294 221.218 75.2434C221.218 72.4574 220.364 70.7634 218.866 70.7634C217.368 70.7634 216.528 72.4574 216.528 75.2434ZM213.35 76.5734C213.406 76.1534 213.434 75.7054 213.434 75.2154C213.434 74.7394 213.406 74.2914 213.364 73.8854L214.428 73.8854L214.428 76.5734L213.35 76.5734ZM209.906 75.2154C209.906 73.4514 210.256 72.4434 210.984 72.4434C211.684 72.4434 212.048 73.4514 212.048 75.2154C212.048 76.9654 211.684 77.9734 210.984 77.9734C210.256 77.9734 209.906 76.9654 209.906 75.2154ZM214.428 72.0374L212.888 72.0374C212.468 71.0854 211.824 70.5394 210.984 70.5394C209.444 70.5394 208.506 72.3594 208.506 75.2154C208.506 78.0574 209.444 79.8774 210.984 79.8774C211.81 79.8774 212.454 79.3454 212.874 78.4214L214.428 78.4214L214.428 81.0394L215.884 81.0394L215.884 69.3914L214.428 69.3914L214.428 72.0374ZM211.446 63.7221C210.662 63.7221 210.214 63.1201 210.214 62.2381C210.214 61.3561 210.662 60.7261 211.446 60.7261C212.23 60.7261 212.678 61.3561 212.678 62.2381C212.678 63.1201 212.23 63.7221 211.446 63.7221ZM214.638 58.3741C214.778 59.2981 214.848 60.3061 214.904 61.3001L213.98 61.3001C213.672 59.9281 212.706 59.0181 211.446 59.0181C209.906 59.0181 208.828 60.3621 208.828 62.2381C208.828 64.1001 209.906 65.4441 211.446 65.4441C212.72 65.4441 213.686 64.5201 213.98 63.1481L214.974 63.1481C215.002 64.2121 215.002 65.2341 215.002 66.1161L216.472 65.8921C216.472 63.7641 216.43 60.8661 215.94 58.2621L214.638 58.3741ZM217.312 62.5881L217.312 64.4361L220.98 64.4361L220.98 55.4201L219.51 55.4201L219.51 62.5881L217.312 62.5881ZM212.356 55.8541L208.31 55.8541L208.31 57.7021L218.152 57.7021L218.152 55.8541L213.882 55.8541L213.882 54.2301L212.356 54.2301L212.356 55.8541ZM216.304 49.1212L216.304 46.8672L218.278 46.8672L218.278 49.1212L216.304 49.1212ZM218.278 45.0472L216.304 45.0472L216.304 43.2412L214.834 43.2412L214.834 50.7172L213.42 50.7172L213.42 43.5352L209.136 43.5352L209.136 52.5652L210.606 52.5652L210.606 45.3552L211.978 45.3552L211.978 52.5512L216.304 52.5512L216.304 50.9412L218.278 50.9412L218.278 53.9092L219.79 53.9092L219.79 42.2192L218.278 42.2192L218.278 45.0472Z" fill="white"/>
</g>
</svg>
