<svg width="315" height="847" viewBox="0 0 315 847" fill="none" xmlns="http://www.w3.org/2000/svg">
<circle cx="11" cy="12" r="11" fill="black"/>
<path d="M12.8984 17.8333H10.2578V9.42706L7.66402 10.1849V8.18488L12.6562 6.45831H12.8984V17.8333Z" fill="white"/>
<path d="M37.336 4.032V6.624C37.336 9.264 35.688 12.048 33.592 13.104L34.408 14.16C36.696 12.944 38.424 9.824 38.424 6.624V4.032H37.336ZM37.576 4.032V6.624C37.576 9.728 39.256 12.688 41.496 13.888L42.312 12.832C40.264 11.808 38.648 9.168 38.648 6.624V4.032H37.576ZM43.576 2.784V17.248H44.92V2.784H43.576ZM44.6 8.64V9.76H47.288V8.64H44.6ZM51.2548 7.68V10.416H52.5668V7.68H51.2548ZM56.5668 7.68V10.416H57.8788V7.68H56.5668ZM48.0228 9.936V11.008H61.0948V9.936H48.0228ZM54.5508 12.096C51.4468 12.096 49.5908 13.008 49.5908 14.656C49.5908 16.304 51.4468 17.232 54.5508 17.232C57.6548 17.232 59.5108 16.304 59.5108 14.656C59.5108 13.008 57.6548 12.096 54.5508 12.096ZM54.5508 13.12C56.8228 13.12 58.1668 13.68 58.1668 14.656C58.1668 15.648 56.8228 16.192 54.5508 16.192C52.2948 16.192 50.9348 15.648 50.9348 14.656C50.9348 13.68 52.2948 13.12 54.5508 13.12ZM54.5668 3.04C51.4148 3.04 49.4788 4.048 49.4788 5.744C49.4788 7.424 51.4148 8.416 54.5668 8.416C57.7028 8.416 59.6548 7.424 59.6548 5.744C59.6548 4.048 57.7028 3.04 54.5668 3.04ZM54.5668 4.08C56.8708 4.08 58.2948 4.688 58.2948 5.744C58.2948 6.784 56.8708 7.392 54.5668 7.392C52.2628 7.392 50.8388 6.784 50.8388 5.744C50.8388 4.688 52.2628 4.08 54.5668 4.08ZM72.0695 2.784V17.248H73.3975V2.784H72.0695ZM73.0775 8.72V9.84H75.7655V8.72H73.0775ZM62.1975 5.088V6.176H70.7255V5.088H62.1975ZM66.5175 7.376C64.4855 7.376 62.9975 8.752 62.9975 10.704C62.9975 12.656 64.4855 14.032 66.5175 14.032C68.5655 14.032 70.0375 12.656 70.0375 10.704C70.0375 8.752 68.5655 7.376 66.5175 7.376ZM66.5175 8.48C67.8295 8.48 68.7735 9.392 68.7735 10.704C68.7735 12 67.8295 12.928 66.5175 12.928C65.2055 12.928 64.2615 12 64.2615 10.704C64.2615 9.392 65.2055 8.48 66.5175 8.48ZM65.8295 2.96V5.584H67.1575V2.96H65.8295ZM87.0283 2.784V10.272H88.3563V2.784H87.0283ZM79.0123 11.008V12.048H87.0603V13.488H79.0443V16.464H80.3403V14.48H88.3723V11.008H79.0123ZM79.0443 16.032V17.088H88.8523V16.032H79.0443ZM80.2763 3.2V4.304C80.2763 6.4 78.7883 8.32 76.6123 9.088L77.2683 10.144C79.7163 9.248 81.3803 6.976 81.3803 4.304V3.2H80.2763ZM80.5163 3.2V4.304C80.5163 6.896 82.1803 9.024 84.6123 9.856L85.2683 8.816C83.1243 8.112 81.6043 6.304 81.6043 4.304V3.2H80.5163ZM104.724 6.784L95.4597 7.12L95.6517 8.256L104.724 7.808V6.784ZM95.8917 3.68V4.768H104.932V3.68H95.8917ZM94.2437 10.56V11.664H107.316V10.56H94.2437ZM100.132 11.392V17.248H101.444V11.392H100.132ZM104.372 3.68V4.992C104.372 6.56 104.372 8.304 103.764 10.736L105.076 10.896C105.652 8.336 105.652 6.576 105.652 4.992V3.68H104.372ZM109.683 3.44V4.512H120.307V3.44H109.683ZM109.747 7.792V8.864H120.243V7.792H109.747ZM111.875 3.936V8.272H113.203V3.936H111.875ZM116.803 3.936V8.272H118.115V3.936H116.803ZM108.467 10.608V11.696H121.539V10.608H108.467ZM114.355 8.512V11.28H115.667V8.512H114.355ZM110.163 15.84V16.928H120.099V15.84H110.163ZM110.163 12.944V16.192H111.491V12.944H110.163ZM127.409 3.824C125.153 3.824 123.521 5.216 123.521 7.232C123.521 9.264 125.153 10.656 127.409 10.656C129.665 10.656 131.281 9.264 131.281 7.232C131.281 5.216 129.665 3.824 127.409 3.824ZM127.409 4.976C128.897 4.976 129.985 5.888 129.985 7.232C129.985 8.576 128.897 9.504 127.409 9.504C125.905 9.504 124.817 8.576 124.817 7.232C124.817 5.888 125.905 4.976 127.409 4.976ZM133.169 2.768V17.264H134.497V2.768H133.169ZM122.977 14.096C125.553 14.096 129.089 14.08 132.337 13.456L132.225 12.48C129.073 12.976 125.425 12.992 122.785 12.992L122.977 14.096ZM151.457 2.784V17.248H152.737V2.784H151.457ZM149.169 8.512V9.6H151.937V8.512H149.169ZM148.257 3.088V16.528H149.521V3.088H148.257ZM140.961 4.448V13.376H146.481V4.448H140.961ZM145.233 5.504V12.32H142.209V5.504H145.233ZM160.527 3.296V4.096C160.527 6.16 157.983 7.888 155.343 8.288L155.871 9.36C158.879 8.848 161.695 6.864 161.695 4.096V3.296H160.527ZM160.767 3.296V4.096C160.767 6.832 163.599 8.848 166.575 9.36L167.103 8.288C164.495 7.888 161.919 6.112 161.919 4.096V3.296H160.767ZM160.527 11.744V17.248H161.839V11.744H160.527ZM154.687 10.928V12.032H167.759V10.928H154.687ZM168.91 9.504V10.512H182.03V9.504H168.91ZM170.462 11.68V12.624H179.086V13.856H170.51V16.464H171.822V14.768H180.382V11.68H170.462ZM170.51 16.112V17.072H180.846V16.112H170.51ZM170.574 3.2V4.144H179.038V5.312H170.606V7.776H171.918V6.208H180.334V3.2H170.574ZM170.606 7.456V8.416H180.606V7.456H170.606ZM194.062 6.192V7.296H197.71V6.192H194.062ZM190.27 3.664V5.44C190.27 7.648 188.814 9.696 186.67 10.496L187.358 11.552C189.774 10.576 191.342 8.24 191.342 5.44V3.664H190.27ZM190.526 3.664V5.488C190.526 8.064 192.078 10.304 194.382 11.2L195.102 10.176C193.006 9.408 191.598 7.504 191.598 5.488V3.664H190.526ZM197.214 2.8V13.616H198.542V2.8H197.214ZM189.246 15.84V16.928H198.894V15.84H189.246ZM189.246 12.416V16.352H190.574V12.416H189.246ZM201.5 9.696V10.8H202.428C204.748 10.8 206.124 10.736 207.788 10.416L207.66 9.328C206.044 9.648 204.7 9.696 202.428 9.696H201.5ZM201.5 3.84V10.288H202.78V4.928H207.1V3.84H201.5ZM202.38 6.72V7.76H206.924V6.72H202.38ZM211.804 2.784V11.552H213.068V2.784H211.804ZM209.468 6.56V7.648H212.204V6.56H209.468ZM208.62 3.056V11.472H209.868V3.056H208.62ZM203.372 12.32V13.408H211.756V17.248H213.068V12.32H203.372ZM224.923 2.784V17.248H226.251V2.784H224.923ZM225.931 8.72V9.84H228.619V8.72H225.931ZM215.051 5.088V6.176H223.579V5.088H215.051ZM219.371 7.376C217.339 7.376 215.851 8.752 215.851 10.704C215.851 12.656 217.339 14.032 219.371 14.032C221.419 14.032 222.891 12.656 222.891 10.704C222.891 8.752 221.419 7.376 219.371 7.376ZM219.371 8.48C220.683 8.48 221.627 9.392 221.627 10.704C221.627 12 220.683 12.928 219.371 12.928C218.059 12.928 217.115 12 217.115 10.704C217.115 9.392 218.059 8.48 219.371 8.48ZM218.683 2.96V5.584H220.011V2.96H218.683ZM230.746 4.224V5.328H240.058V4.224H230.746ZM229.37 14.128V15.232H242.442V14.128H229.37ZM234.442 8.96V14.672H235.77V8.96H234.442ZM239.562 4.224V5.664C239.562 7.392 239.562 9.424 239.018 12.192L240.346 12.368C240.874 9.44 240.874 7.456 240.874 5.664V4.224H239.562ZM245.223 14.2812V15.4453C245.223 15.9193 245.103 16.4193 244.863 16.9453C244.624 17.4766 244.288 17.9193 243.856 18.2734L243.035 17.7031C243.202 17.474 243.343 17.2396 243.457 17C243.572 16.7656 243.658 16.5208 243.715 16.2656C243.777 16.0156 243.809 15.75 243.809 15.4688V14.2812H245.223ZM33.7578 29.6172V28.6719C33.7578 28.3542 33.8099 28.0234 33.9141 27.6797C34.0234 27.3307 34.1797 26.9974 34.3828 26.6797C34.5859 26.3568 34.8307 26.0781 35.1172 25.8438L35.9375 26.4141C35.6979 26.7578 35.513 27.112 35.3828 27.4766C35.2526 27.8359 35.1875 28.2266 35.1875 28.6484V29.6172H33.7578ZM42.8794 36.6953L45.77 38.9844L44.7544 39.9219L41.9106 37.6641L42.8794 36.6953ZM45.7309 31.9531V32.6719C45.7309 33.526 45.6242 34.2917 45.4106 34.9688C45.1971 35.6458 44.8898 36.2214 44.4887 36.6953C44.0877 37.1693 43.6059 37.5312 43.0434 37.7812C42.4861 38.0312 41.8611 38.1562 41.1684 38.1562C40.4966 38.1562 39.8794 38.0312 39.3169 37.7812C38.7596 37.5312 38.2752 37.1693 37.8637 36.6953C37.4575 36.2214 37.1424 35.6458 36.9184 34.9688C36.6945 34.2917 36.5825 33.526 36.5825 32.6719V31.9531C36.5825 31.099 36.6919 30.3359 36.9106 29.6641C37.1346 28.987 37.4497 28.4115 37.8559 27.9375C38.2622 27.4583 38.744 27.0938 39.3012 26.8438C39.8637 26.5938 40.4809 26.4688 41.1528 26.4688C41.8455 26.4688 42.4731 26.5938 43.0356 26.8438C43.5981 27.0938 44.0799 27.4583 44.4809 27.9375C44.882 28.4115 45.1893 28.987 45.4028 29.6641C45.6216 30.3359 45.7309 31.099 45.7309 31.9531ZM44.2387 32.6719V31.9375C44.2387 31.2604 44.1684 30.6615 44.0278 30.1406C43.8924 29.6198 43.6919 29.1823 43.4262 28.8281C43.1606 28.474 42.8377 28.2057 42.4575 28.0234C42.0773 27.8411 41.6424 27.75 41.1528 27.75C40.6893 27.75 40.2674 27.8411 39.8872 28.0234C39.5122 28.2057 39.1893 28.474 38.9184 28.8281C38.6476 29.1823 38.4393 29.6198 38.2934 30.1406C38.1476 30.6615 38.0747 31.2604 38.0747 31.9375V32.6719C38.0747 33.3542 38.1476 33.9583 38.2934 34.4844C38.4393 35.0052 38.6476 35.4453 38.9184 35.8047C39.1945 36.1589 39.5226 36.4271 39.9028 36.6094C40.283 36.7917 40.7049 36.8828 41.1684 36.8828C41.658 36.8828 42.0929 36.7917 42.4731 36.6094C42.8533 36.4271 43.1736 36.1589 43.4341 35.8047C43.6997 35.4453 43.9002 35.0052 44.0356 34.4844C44.171 33.9583 44.2387 33.3542 44.2387 32.6719ZM47.5791 26.625H51.3447C52.1989 26.625 52.9202 26.7552 53.5087 27.0156C54.1025 27.276 54.553 27.6615 54.8603 28.1719C55.1728 28.6771 55.3291 29.2995 55.3291 30.0391C55.3291 30.5599 55.2223 31.0365 55.0087 31.4688C54.8004 31.8958 54.4983 32.2604 54.1025 32.5625C53.7119 32.8594 53.2431 33.0807 52.6962 33.2266L52.2744 33.3906H48.7353L48.7197 32.1641H51.3916C51.9332 32.1641 52.3837 32.0703 52.7431 31.8828C53.1025 31.6901 53.3733 31.4323 53.5556 31.1094C53.7379 30.7865 53.8291 30.4297 53.8291 30.0391C53.8291 29.6016 53.7431 29.2188 53.5712 28.8906C53.3994 28.5625 53.1285 28.3099 52.7587 28.1328C52.3942 27.9505 51.9228 27.8594 51.3447 27.8594H49.0869V38H47.5791V26.625ZM54.2275 38L51.4619 32.8438L53.0322 32.8359L55.8369 37.9062V38H54.2275ZM59.4621 25.68V27.616C59.4621 29.248 58.3261 31.12 56.4221 31.952L57.1421 32.992C59.2701 32.048 60.5181 29.776 60.5181 27.616V25.68H59.4621ZM59.6701 25.68V27.616C59.6701 29.744 60.8701 31.744 62.9501 32.576L63.6701 31.568C61.8141 30.848 60.7261 29.216 60.7261 27.616V25.68H59.6701ZM67.3501 24.8V33.712H68.6141V24.8H67.3501ZM65.0461 28.656V29.744H67.7821V28.656H65.0461ZM64.2461 25.072V33.248H65.5101V25.072H64.2461ZM63.8621 34.032C60.8701 34.032 59.0461 34.992 59.0461 36.64C59.0461 38.272 60.8701 39.216 63.8621 39.216C66.8381 39.216 68.6941 38.272 68.6941 36.64C68.6941 34.992 66.8381 34.032 63.8621 34.032ZM63.8621 35.072C66.0381 35.072 67.3661 35.648 67.3661 36.64C67.3661 37.616 66.0381 38.192 63.8621 38.192C61.6861 38.192 60.3421 37.616 60.3421 36.64C60.3421 35.648 61.6861 35.072 63.8621 35.072ZM74.3089 25.6V27.088C74.3089 29.296 72.8689 31.232 70.6609 32.016L71.3489 33.104C73.8289 32.176 75.4129 29.888 75.4129 27.088V25.6H74.3089ZM74.5489 25.6V27.04C74.5489 29.664 76.1009 31.792 78.4369 32.672L79.1569 31.632C77.0449 30.896 75.6369 29.088 75.6369 27.04V25.6H74.5489ZM81.2369 24.784V33.344H82.5649V24.784H81.2369ZM77.8129 33.76C74.8209 33.76 72.9809 34.768 72.9809 36.496C72.9809 38.224 74.8209 39.216 77.8129 39.216C80.7889 39.216 82.6289 38.224 82.6289 36.496C82.6289 34.768 80.7889 33.76 77.8129 33.76ZM77.8129 34.816C79.9889 34.816 81.3169 35.44 81.3169 36.496C81.3169 37.552 79.9889 38.176 77.8129 38.176C75.6369 38.176 74.3089 37.552 74.3089 36.496C74.3089 35.44 75.6369 34.816 77.8129 34.816ZM78.1009 27.84V28.944H81.5249V27.84H78.1009ZM94.7076 24.784V39.248H96.0356V24.784H94.7076ZM95.7156 30.72V31.84H98.4036V30.72H95.7156ZM84.8356 27.088V28.176H93.3636V27.088H84.8356ZM89.1556 29.376C87.1236 29.376 85.6356 30.752 85.6356 32.704C85.6356 34.656 87.1236 36.032 89.1556 36.032C91.2036 36.032 92.6756 34.656 92.6756 32.704C92.6756 30.752 91.2036 29.376 89.1556 29.376ZM89.1556 30.48C90.4676 30.48 91.4116 31.392 91.4116 32.704C91.4116 34 90.4676 34.928 89.1556 34.928C87.8436 34.928 86.8996 34 86.8996 32.704C86.8996 31.392 87.8436 30.48 89.1556 30.48ZM88.4676 24.96V27.584H89.7956V24.96H88.4676ZM109.682 24.784V39.248H111.01V24.784H109.682ZM105.442 26.336V26.56C105.442 30.4 103.506 33.472 99.3304 35.488L100.034 36.56C104.866 34.192 106.754 30.528 106.754 26.336H105.442ZM99.9864 26.336V27.424H106.018V26.336H99.9864ZM115.156 26V27C115.156 27.3125 115.101 27.6432 114.992 27.9922C114.887 28.3359 114.734 28.6693 114.531 28.9922C114.327 29.3099 114.083 29.5885 113.796 29.8281L112.968 29.2578C113.213 28.9141 113.398 28.5625 113.523 28.2031C113.653 27.8385 113.718 27.4453 113.718 27.0234V26H115.156ZM130.197 24.768V39.264H131.509V24.768H130.197ZM126.373 30.144V31.232H130.581V30.144H126.373ZM120.181 25.92V35.632H126.821V25.92H125.509V29.68H121.493V25.92H120.181ZM121.493 30.736H125.509V34.528H121.493V30.736ZM133.828 32.784V33.872H146.9V32.784H133.828ZM135.508 37.84V38.928H145.54V37.84H135.508ZM135.508 34.928V38.256H136.836V34.928H135.508ZM135.556 30.416V31.456H145.364V30.416H135.556ZM135.556 25.312V30.816H136.868V26.368H145.3V25.312H135.556ZM136.484 27.856V28.864H144.916V27.856H136.484ZM154.611 25.024C151.411 25.024 149.523 25.92 149.523 27.536C149.523 29.152 151.411 30.048 154.611 30.048C157.795 30.048 159.699 29.152 159.699 27.536C159.699 25.92 157.795 25.024 154.611 25.024ZM154.611 26.032C156.963 26.032 158.323 26.576 158.323 27.536C158.323 28.496 156.963 29.04 154.611 29.04C152.243 29.04 150.883 28.496 150.883 27.536C150.883 26.576 152.243 26.032 154.611 26.032ZM148.067 31.008V32.08H161.139V31.008H148.067ZM149.651 33.312V34.336H158.163V35.616H149.683V38.336H150.995V36.576H159.475V33.312H149.651ZM149.683 38.048V39.088H159.907V38.048H149.683ZM171.666 31.12V33.712H172.978V31.12H171.666ZM167.57 28.224V29.312H177.378V28.224H167.57ZM165.794 30.56V31.632H178.914V30.56H165.794ZM167.57 24.992V28.72H168.866V24.992H167.57ZM167.426 33.152V34.192H175.922V35.52H167.458V38.416H168.77V36.496H177.25V33.152H167.426ZM167.458 38.048V39.088H177.73V38.048H167.458ZM190.609 24.768V39.264H191.937V24.768H190.609ZM187.857 30.336V31.424H190.929V30.336H187.857ZM180.577 34.688V35.808H181.681C184.289 35.808 186.129 35.712 188.305 35.328L188.177 34.224C186.049 34.608 184.241 34.688 181.681 34.688H180.577ZM180.545 26.128V27.216H185.697V30.112H180.577V35.024H181.889V31.2H187.009V26.128H180.545ZM203.568 26.208V26.816C203.568 28.72 201.088 30.384 198.544 30.752L199.056 31.808C201.968 31.312 204.72 29.408 204.72 26.816V26.208H203.568ZM203.904 26.208V26.816C203.904 29.408 206.64 31.312 209.568 31.808L210.064 30.752C207.536 30.384 205.04 28.72 205.04 26.816V26.208H203.904ZM203.616 33.728V39.248H204.928V33.728H203.616ZM197.776 33.024V34.112H210.848V33.024H197.776ZM198.992 25.68V26.752H209.584V25.68H198.992ZM217.711 29.952V31.056H220.479V29.952H217.711ZM215.007 26.144V28.896C215.007 31.376 213.823 33.968 211.839 35.136L212.671 36.144C214.783 34.848 216.047 31.92 216.047 28.896V26.144H215.007ZM215.263 26.144V28.848C215.263 31.664 216.431 34.544 218.511 35.824L219.279 34.784C217.375 33.632 216.287 31.168 216.287 28.848V26.144H215.263ZM223.023 24.784V39.248H224.303V24.784H223.023ZM220.095 25.088V38.528H221.343V25.088H220.095ZM229.454 32.224V36.56H230.766V32.224H229.454ZM234.798 32.224V36.56H236.126V32.224H234.798ZM226.254 36.304V37.408H239.358V36.304H226.254ZM232.782 25.696C229.71 25.696 227.518 27.152 227.518 29.424C227.518 31.68 229.71 33.136 232.782 33.136C235.838 33.136 238.03 31.68 238.03 29.424C238.03 27.152 235.838 25.696 232.782 25.696ZM232.782 26.752C235.102 26.752 236.75 27.808 236.75 29.424C236.75 31.024 235.102 32.08 232.782 32.08C230.462 32.08 228.798 31.024 228.798 29.424C228.798 27.808 230.462 26.752 232.782 26.752ZM240.818 37.2344C240.818 36.9896 240.893 36.7839 241.044 36.6172C241.2 36.4453 241.424 36.3594 241.716 36.3594C242.008 36.3594 242.229 36.4453 242.38 36.6172C242.536 36.7839 242.614 36.9896 242.614 37.2344C242.614 37.474 242.536 37.6771 242.38 37.8438C242.229 38.0104 242.008 38.0938 241.716 38.0938C241.424 38.0938 241.2 38.0104 241.044 37.8438C240.893 37.6771 240.818 37.474 240.818 37.2344Z" fill="#555555"/>
<rect x="72" y="89" width="171" height="44" rx="22" fill="#E8F4FF"/>
<path d="M119.086 115.891L122.934 118.938L121.088 120.539L117.299 117.492L119.086 115.891ZM123.031 110.559V111.232C123.031 112.313 122.885 113.283 122.592 114.143C122.305 115.002 121.892 115.734 121.352 116.34C120.811 116.939 120.173 117.398 119.438 117.717C118.702 118.036 117.885 118.195 116.986 118.195C116.094 118.195 115.277 118.036 114.535 117.717C113.793 117.398 113.152 116.939 112.611 116.34C112.071 115.734 111.651 115.002 111.352 114.143C111.059 113.283 110.912 112.313 110.912 111.232V110.559C110.912 109.471 111.059 108.501 111.352 107.648C111.651 106.789 112.068 106.057 112.602 105.451C113.135 104.846 113.773 104.383 114.516 104.064C115.258 103.745 116.075 103.586 116.967 103.586C117.865 103.586 118.682 103.745 119.418 104.064C120.16 104.383 120.801 104.846 121.342 105.451C121.882 106.057 122.299 106.789 122.592 107.648C122.885 108.501 123.031 109.471 123.031 110.559ZM120.072 111.232V110.539C120.072 109.784 120.001 109.12 119.857 108.547C119.721 107.974 119.519 107.492 119.252 107.102C118.992 106.711 118.669 106.418 118.285 106.223C117.901 106.021 117.462 105.92 116.967 105.92C116.472 105.92 116.033 106.021 115.648 106.223C115.264 106.418 114.942 106.711 114.682 107.102C114.421 107.492 114.223 107.974 114.086 108.547C113.949 109.12 113.881 109.784 113.881 110.539V111.232C113.881 111.981 113.949 112.645 114.086 113.225C114.223 113.798 114.421 114.283 114.682 114.68C114.949 115.07 115.274 115.367 115.658 115.568C116.049 115.77 116.492 115.871 116.986 115.871C117.481 115.871 117.917 115.77 118.295 115.568C118.679 115.367 119.001 115.07 119.262 114.68C119.529 114.283 119.73 113.798 119.867 113.225C120.004 112.645 120.072 111.981 120.072 111.232ZM125.15 103.781H130.453C131.54 103.781 132.475 103.944 133.256 104.27C134.044 104.595 134.649 105.077 135.072 105.715C135.495 106.353 135.707 107.137 135.707 108.068C135.707 108.83 135.577 109.484 135.316 110.031C135.062 110.572 134.701 111.024 134.232 111.389C133.77 111.747 133.227 112.033 132.602 112.248L131.674 112.736H127.064L127.045 110.451H130.473C130.987 110.451 131.413 110.36 131.752 110.178C132.09 109.995 132.344 109.742 132.514 109.416C132.689 109.09 132.777 108.713 132.777 108.283C132.777 107.827 132.693 107.434 132.523 107.102C132.354 106.77 132.097 106.516 131.752 106.34C131.407 106.164 130.974 106.076 130.453 106.076H128.08V118H125.15V103.781ZM133.1 118L129.857 111.662L132.953 111.643L136.234 117.863V118H133.1ZM145.4 103.942V105.868C145.4 107.74 144.482 109.792 142.16 110.818L143.42 112.672C146.138 111.52 147.272 108.694 147.272 105.868V103.942H145.4ZM145.832 103.942V105.868C145.832 108.586 146.93 111.106 149.522 112.132L150.8 110.314C148.604 109.45 147.704 107.65 147.704 105.868V103.942H145.832ZM154.328 102.952V113.122H156.596V102.952H154.328ZM152.33 106.984V108.91H154.976V106.984H152.33ZM150.8 103.258V112.6H153.032V103.258H150.8ZM150.944 113.356C147.434 113.356 145.22 114.526 145.22 116.488C145.22 118.432 147.434 119.602 150.944 119.602C154.436 119.602 156.686 118.432 156.686 116.488C156.686 114.526 154.436 113.356 150.944 113.356ZM150.944 115.156C153.086 115.156 154.274 115.606 154.274 116.488C154.274 117.37 153.086 117.802 150.944 117.802C148.802 117.802 147.596 117.37 147.596 116.488C147.596 115.606 148.802 115.156 150.944 115.156ZM162.822 103.798V105.292C162.822 107.578 161.652 109.828 158.808 110.746L160.05 112.672C163.326 111.574 164.82 108.64 164.82 105.292V103.798H162.822ZM163.326 103.798V105.184C163.326 108.424 164.658 111.106 167.736 112.168L168.978 110.296C166.332 109.45 165.252 107.398 165.252 105.184V103.798H163.326ZM170.508 102.934V112.69H172.902V102.934H170.508ZM167.25 113.122C163.722 113.122 161.544 114.328 161.544 116.362C161.544 118.414 163.722 119.602 167.25 119.602C170.778 119.602 172.956 118.414 172.956 116.362C172.956 114.328 170.778 113.122 167.25 113.122ZM167.25 114.976C169.428 114.976 170.58 115.426 170.58 116.362C170.58 117.298 169.428 117.766 167.25 117.766C165.09 117.766 163.938 117.298 163.938 116.362C163.938 115.426 165.09 114.976 167.25 114.976ZM167.466 105.958V107.902H170.85V105.958H167.466ZM186.203 102.934V119.602H188.579V102.934H186.203ZM188.039 109.432V111.43H190.991V109.432H188.039ZM175.439 105.4V107.308H185.141V105.4H175.439ZM180.317 108.244C177.887 108.244 176.087 109.9 176.087 112.222C176.087 114.544 177.887 116.2 180.317 116.2C182.747 116.2 184.547 114.544 184.547 112.222C184.547 109.9 182.747 108.244 180.317 108.244ZM180.317 110.188C181.451 110.188 182.261 110.944 182.261 112.222C182.261 113.5 181.451 114.256 180.317 114.256C179.183 114.256 178.373 113.5 178.373 112.222C178.373 110.944 179.183 110.188 180.317 110.188ZM179.111 103.204V106.12H181.505V103.204H179.111ZM203.554 102.934V119.602H205.966V102.934H203.554ZM198.64 104.662V105.094C198.64 109.558 196.912 112.582 192.124 114.886L193.366 116.794C199.288 113.932 201.016 109.756 201.016 104.662H198.64ZM193.006 104.662V106.552H199.774V104.662H193.006Z" fill="#2394FD"/>
<path d="M229.361 151.417H206.445V157.667H229.361V151.417Z" stroke="black" stroke-width="3" stroke-linejoin="round"/>
<path d="M206.445 151.417C199.654 143.997 195.757 139.698 194.755 138.517C193.252 136.746 193.883 134.746 197.646 134.746C201.408 134.746 203.578 140.252 206.445 140.252C206.462 140.255 206.463 133.215 206.448 119.129C206.447 118.719 206.528 118.312 206.684 117.932C206.841 117.553 207.071 117.208 207.361 116.918C207.651 116.627 207.995 116.396 208.374 116.239C208.754 116.081 209.16 116 209.571 116H209.574C209.985 116 210.392 116.081 210.772 116.238C211.151 116.395 211.496 116.626 211.787 116.916C212.078 117.207 212.308 117.552 212.466 117.931C212.623 118.311 212.704 118.718 212.704 119.129V127.473C221.008 128.732 225.524 129.427 226.249 129.556C227.337 129.753 229.361 130.792 229.361 133.78V151.417H206.445Z" fill="white" stroke="black" stroke-width="3" stroke-linejoin="round"/>
<circle cx="11" cy="225" r="11" fill="black"/>
<path d="M15 230.833H7.06246V229.115L10.7187 225.271C11.6198 224.245 12.0703 223.43 12.0703 222.826C12.0703 222.336 11.9635 221.964 11.75 221.708C11.5364 221.453 11.2265 221.326 10.8203 221.326C10.4192 221.326 10.0937 221.497 9.84371 221.841C9.59371 222.18 9.46871 222.604 9.46871 223.115H6.82808C6.82808 222.417 7.00256 221.773 7.35152 221.185C7.70048 220.591 8.18485 220.128 8.80465 219.794C9.42444 219.461 10.1171 219.294 10.8828 219.294C12.1119 219.294 13.0573 219.578 13.7187 220.146C14.3854 220.714 14.7187 221.529 14.7187 222.591C14.7187 223.039 14.6354 223.477 14.4687 223.904C14.302 224.326 14.0416 224.771 13.6875 225.24C13.3385 225.703 12.7734 226.326 11.9921 227.107L10.5234 228.802H15V230.833Z" fill="white"/>
<path d="M36.824 216.68V218.616C36.824 220.248 35.688 222.12 33.784 222.952L34.504 223.992C36.632 223.048 37.88 220.776 37.88 218.616V216.68H36.824ZM37.032 216.68V218.616C37.032 220.744 38.232 222.744 40.312 223.576L41.032 222.568C39.176 221.848 38.088 220.216 38.088 218.616V216.68H37.032ZM44.712 215.8V224.712H45.976V215.8H44.712ZM42.408 219.656V220.744H45.144V219.656H42.408ZM41.608 216.072V224.248H42.872V216.072H41.608ZM41.224 225.032C38.232 225.032 36.408 225.992 36.408 227.64C36.408 229.272 38.232 230.216 41.224 230.216C44.2 230.216 46.056 229.272 46.056 227.64C46.056 225.992 44.2 225.032 41.224 225.032ZM41.224 226.072C43.4 226.072 44.728 226.648 44.728 227.64C44.728 228.616 43.4 229.192 41.224 229.192C39.048 229.192 37.704 228.616 37.704 227.64C37.704 226.648 39.048 226.072 41.224 226.072ZM51.6708 216.6V218.088C51.6708 220.296 50.2308 222.232 48.0228 223.016L48.7108 224.104C51.1908 223.176 52.7748 220.888 52.7748 218.088V216.6H51.6708ZM51.9108 216.6V218.04C51.9108 220.664 53.4628 222.792 55.7988 223.672L56.5188 222.632C54.4068 221.896 52.9988 220.088 52.9988 218.04V216.6H51.9108ZM58.5988 215.784V224.344H59.9268V215.784H58.5988ZM55.1748 224.76C52.1828 224.76 50.3428 225.768 50.3428 227.496C50.3428 229.224 52.1828 230.216 55.1748 230.216C58.1508 230.216 59.9908 229.224 59.9908 227.496C59.9908 225.768 58.1508 224.76 55.1748 224.76ZM55.1748 225.816C57.3508 225.816 58.6788 226.44 58.6788 227.496C58.6788 228.552 57.3508 229.176 55.1748 229.176C52.9988 229.176 51.6708 228.552 51.6708 227.496C51.6708 226.44 52.9988 225.816 55.1748 225.816ZM55.4628 218.84V219.944H58.8868V218.84H55.4628ZM63.6215 220.504V221.592H70.5975V220.504H63.6215ZM66.4055 221.16V224.056H67.7335V221.16H66.4055ZM63.6215 216.728V220.984H64.9495V217.816H70.5015V216.728H63.6215ZM72.7735 215.784V226.6H74.1015V215.784H72.7735ZM64.7575 228.84V229.928H74.5815V228.84H64.7575ZM64.7575 225.896V229.304H66.0695V225.896H64.7575ZM62.5175 224.776C65.2215 224.776 68.6455 224.696 71.7015 224.248L71.6215 223.272C68.6455 223.624 65.1255 223.688 62.3415 223.688L62.5175 224.776ZM86.3613 227.695L89.2519 229.984L88.2363 230.922L85.3925 228.664L86.3613 227.695ZM89.2128 222.953V223.672C89.2128 224.526 89.106 225.292 88.8925 225.969C88.679 226.646 88.3717 227.221 87.9706 227.695C87.5696 228.169 87.0878 228.531 86.5253 228.781C85.968 229.031 85.343 229.156 84.6503 229.156C83.9784 229.156 83.3613 229.031 82.7988 228.781C82.2415 228.531 81.7571 228.169 81.3456 227.695C80.9394 227.221 80.6243 226.646 80.4003 225.969C80.1764 225.292 80.0644 224.526 80.0644 223.672V222.953C80.0644 222.099 80.1738 221.336 80.3925 220.664C80.6165 219.987 80.9316 219.411 81.3378 218.938C81.7441 218.458 82.2258 218.094 82.7831 217.844C83.3456 217.594 83.9628 217.469 84.6347 217.469C85.3274 217.469 85.955 217.594 86.5175 217.844C87.08 218.094 87.5618 218.458 87.9628 218.938C88.3639 219.411 88.6711 219.987 88.8847 220.664C89.1034 221.336 89.2128 222.099 89.2128 222.953ZM87.7206 223.672V222.938C87.7206 222.26 87.6503 221.661 87.5097 221.141C87.3743 220.62 87.1738 220.182 86.9081 219.828C86.6425 219.474 86.3196 219.206 85.9394 219.023C85.5592 218.841 85.1243 218.75 84.6347 218.75C84.1711 218.75 83.7493 218.841 83.3691 219.023C82.9941 219.206 82.6711 219.474 82.4003 219.828C82.1295 220.182 81.9211 220.62 81.7753 221.141C81.6295 221.661 81.5566 222.26 81.5566 222.938V223.672C81.5566 224.354 81.6295 224.958 81.7753 225.484C81.9211 226.005 82.1295 226.445 82.4003 226.805C82.6764 227.159 83.0045 227.427 83.3847 227.609C83.7649 227.792 84.1868 227.883 84.6503 227.883C85.1399 227.883 85.5748 227.792 85.955 227.609C86.3352 227.427 86.6555 227.159 86.9159 226.805C87.1816 226.445 87.3821 226.005 87.5175 225.484C87.6529 224.958 87.7206 224.354 87.7206 223.672ZM91.0609 217.625H94.8266C95.6807 217.625 96.4021 217.755 96.9906 218.016C97.5844 218.276 98.0349 218.661 98.3422 219.172C98.6547 219.677 98.8109 220.299 98.8109 221.039C98.8109 221.56 98.7042 222.036 98.4906 222.469C98.2823 222.896 97.9802 223.26 97.5844 223.562C97.1937 223.859 96.725 224.081 96.1781 224.227L95.7562 224.391H92.2172L92.2016 223.164H94.8734C95.4151 223.164 95.8656 223.07 96.225 222.883C96.5844 222.69 96.8552 222.432 97.0375 222.109C97.2198 221.786 97.3109 221.43 97.3109 221.039C97.3109 220.602 97.225 220.219 97.0531 219.891C96.8812 219.562 96.6104 219.31 96.2406 219.133C95.876 218.951 95.4047 218.859 94.8266 218.859H92.5687V229H91.0609V217.625ZM97.7094 229L94.9437 223.844L96.5141 223.836L99.3187 228.906V229H97.7094ZM101.472 217.192V218.28H110.656V217.192H101.472ZM99.904 227.192V228.28H112.976V227.192H99.904ZM110.112 217.192V218.568C110.112 220.28 110.112 222.312 109.488 225.112L110.816 225.272C111.408 222.312 111.408 220.328 111.408 218.568V217.192H110.112ZM110.4 220.664L101.072 221.032L101.28 222.184L110.4 221.672V220.664ZM104.992 223.448V227.592H106.32V223.448H104.992ZM115.807 222.712V223.8H125.743V222.712H115.807ZM114.159 227.192V228.296H127.263V227.192H114.159ZM115.807 217.112V223.192H117.135V218.216H125.599V217.112H115.807ZM128.382 222.504V223.512H141.502V222.504H128.382ZM129.934 224.68V225.624H138.558V226.856H129.982V229.464H131.294V227.768H139.854V224.68H129.934ZM129.982 229.112V230.072H140.318V229.112H129.982ZM130.046 216.2V217.144H138.51V218.312H130.078V220.776H131.39V219.208H139.806V216.2H130.046ZM130.078 220.456V221.416H140.078V220.456H130.078ZM151.917 216.776V217.88C151.917 220.344 149.197 222.552 146.653 223.032L147.245 224.136C150.141 223.48 153.069 221.032 153.069 217.88V216.776H151.917ZM152.157 216.776V217.88C152.157 221.048 155.101 223.48 157.981 224.136L158.573 223.032C156.045 222.552 153.309 220.36 153.309 217.88V216.776H152.157ZM146.125 227.208V228.296H159.229V227.208H146.125ZM171.276 215.784V226.664H172.54V215.784H171.276ZM168.972 220.248V221.352H171.708V220.248H168.972ZM168.124 216.056V226.184H169.372V216.056H168.124ZM163.068 228.84V229.928H173.004V228.84H163.068ZM163.068 225.352V229.448H164.396V225.352H163.068ZM165.468 217.016V217.384C165.468 220.296 164.06 222.616 160.492 224.104L161.148 225.08C165.164 223.352 166.764 220.552 166.764 217.016H165.468ZM161.148 217.016V218.104H165.932V217.016H161.148ZM165.34 219.72L160.476 220.04L160.684 221.144L165.34 220.648V219.72ZM178.763 217.432V218.504H190.395V217.432H178.763ZM178.091 225.16V226.248H191.195V225.16H178.091ZM183.947 226.04V230.264H185.275V226.04H183.947ZM184.619 219.336C181.659 219.336 179.915 220.2 179.915 221.752C179.915 223.288 181.659 224.168 184.619 224.168C187.563 224.168 189.307 223.288 189.307 221.752C189.307 220.2 187.563 219.336 184.619 219.336ZM184.619 220.36C186.731 220.36 187.947 220.856 187.947 221.752C187.947 222.648 186.731 223.144 184.619 223.144C182.507 223.144 181.291 222.648 181.291 221.752C181.291 220.856 182.507 220.36 184.619 220.36ZM183.947 215.704V218.152H185.275V215.704H183.947ZM193.944 227.281V228.445C193.944 228.919 193.824 229.419 193.585 229.945C193.345 230.477 193.009 230.919 192.577 231.273L191.757 230.703C191.923 230.474 192.064 230.24 192.178 230C192.293 229.766 192.379 229.521 192.436 229.266C192.499 229.016 192.53 228.75 192.53 228.469V227.281H193.944ZM198.453 220.617V219.672C198.453 219.354 198.505 219.023 198.609 218.68C198.718 218.331 198.875 217.997 199.078 217.68C199.281 217.357 199.526 217.078 199.812 216.844L200.633 217.414C200.393 217.758 200.208 218.112 200.078 218.477C199.948 218.836 199.883 219.227 199.883 219.648V220.617H198.453ZM207.01 217.208V217.816C207.01 219.72 204.53 221.384 201.986 221.752L202.498 222.808C205.41 222.312 208.162 220.408 208.162 217.816V217.208H207.01ZM207.346 217.208V217.816C207.346 220.408 210.082 222.312 213.01 222.808L213.506 221.752C210.978 221.384 208.482 219.72 208.482 217.816V217.208H207.346ZM207.058 224.728V230.248H208.37V224.728H207.058ZM201.218 224.024V225.112H214.29V224.024H201.218ZM202.434 216.68V217.752H213.026V216.68H202.434ZM215.441 223.176V224.264H228.545V223.176H215.441ZM221.425 223.848V227.176H222.753V223.848H221.425ZM217.121 216.456V221.544H226.849V216.456H217.121ZM225.537 217.528V220.472H218.417V217.528H225.537ZM217.105 228.84V229.928H227.089V228.84H217.105ZM217.105 225.784V229.224H218.417V225.784H217.105ZM236.912 221.784V223.976H238.24V221.784H236.912ZM237.536 216.44C235.456 216.44 233.984 217.592 233.984 219.304C233.984 221.016 235.456 222.152 237.536 222.152C239.632 222.152 241.104 221.016 241.104 219.304C241.104 217.592 239.632 216.44 237.536 216.44ZM237.536 217.464C238.912 217.464 239.856 218.216 239.856 219.304C239.856 220.408 238.912 221.144 237.536 221.144C236.176 221.144 235.232 220.408 235.232 219.304C235.232 218.216 236.176 217.464 237.536 217.464ZM243.056 215.8V226.856H244.384V215.8H243.056ZM243.824 220.68V221.784H246.496V220.68H243.824ZM235.232 228.824V229.928H244.896V228.824H235.232ZM235.232 225.912V229.304H236.56V225.912H235.232ZM233.328 224.712C235.808 224.712 239.232 224.68 242.256 224.12L242.16 223.144C239.216 223.592 235.696 223.624 233.152 223.624L233.328 224.712ZM251.071 224.264V227.816H252.383V224.264H251.071ZM255.695 224.232V227.8H256.991V224.232H255.695ZM247.423 227.368V228.472H260.527V227.368H247.423ZM249.007 216.856V217.928H257.599V220.168H249.055V224.136H250.367V221.224H258.911V216.856H249.007ZM249.055 223.544V224.632H259.247V223.544H249.055ZM271.454 215.784V230.248H272.782V215.784H271.454ZM272.462 221.72V222.84H275.15V221.72H272.462ZM261.582 218.088V219.176H270.11V218.088H261.582ZM265.902 220.376C263.87 220.376 262.382 221.752 262.382 223.704C262.382 225.656 263.87 227.032 265.902 227.032C267.95 227.032 269.422 225.656 269.422 223.704C269.422 221.752 267.95 220.376 265.902 220.376ZM265.902 221.48C267.214 221.48 268.158 222.392 268.158 223.704C268.158 225 267.214 225.928 265.902 225.928C264.59 225.928 263.646 225 263.646 223.704C263.646 222.392 264.59 221.48 265.902 221.48ZM265.214 215.96V218.584H266.542V215.96H265.214ZM286.429 215.784V230.248H287.757V215.784H286.429ZM282.189 217.336V217.56C282.189 221.4 280.253 224.472 276.077 226.488L276.781 227.56C281.613 225.192 283.501 221.528 283.501 217.336H282.189ZM276.733 217.336V218.424H282.765V217.336H276.733ZM291.902 217V218C291.902 218.312 291.847 218.643 291.738 218.992C291.634 219.336 291.48 219.669 291.277 219.992C291.074 220.31 290.829 220.589 290.543 220.828L289.714 220.258C289.959 219.914 290.144 219.562 290.269 219.203C290.399 218.839 290.464 218.445 290.464 218.023V217H291.902ZM44.392 237.768V252.264H45.704V237.768H44.392ZM40.568 243.144V244.232H44.776V243.144H40.568ZM34.376 238.92V248.632H41.016V238.92H39.704V242.68H35.688V238.92H34.376ZM35.688 243.736H39.704V247.528H35.688V243.736ZM48.0228 245.784V246.872H61.0948V245.784H48.0228ZM49.7028 250.84V251.928H59.7348V250.84H49.7028ZM49.7028 247.928V251.256H51.0308V247.928H49.7028ZM49.7508 243.416V244.456H59.5588V243.416H49.7508ZM49.7508 238.312V243.816H51.0628V239.368H59.4948V238.312H49.7508ZM50.6788 240.856V241.864H59.1108V240.856H50.6788ZM68.8055 238.024C65.6055 238.024 63.7175 238.92 63.7175 240.536C63.7175 242.152 65.6055 243.048 68.8055 243.048C71.9895 243.048 73.8935 242.152 73.8935 240.536C73.8935 238.92 71.9895 238.024 68.8055 238.024ZM68.8055 239.032C71.1575 239.032 72.5175 239.576 72.5175 240.536C72.5175 241.496 71.1575 242.04 68.8055 242.04C66.4375 242.04 65.0775 241.496 65.0775 240.536C65.0775 239.576 66.4375 239.032 68.8055 239.032ZM62.2615 244.008V245.08H75.3335V244.008H62.2615ZM63.8455 246.312V247.336H72.3575V248.616H63.8775V251.336H65.1895V249.576H73.6695V246.312H63.8455ZM63.8775 251.048V252.088H74.1015V251.048H63.8775ZM85.861 244.12V246.712H87.173V244.12H85.861ZM81.765 241.224V242.312H91.573V241.224H81.765ZM79.989 243.56V244.632H93.109V243.56H79.989ZM81.765 237.992V241.72H83.061V237.992H81.765ZM81.621 246.152V247.192H90.117V248.52H81.653V251.416H82.965V249.496H91.445V246.152H81.621ZM81.653 251.048V252.088H91.925V251.048H81.653ZM104.804 237.768V252.264H106.132V237.768H104.804ZM102.052 243.336V244.424H105.124V243.336H102.052ZM94.7717 247.688V248.808H95.8757C98.4837 248.808 100.324 248.712 102.5 248.328L102.372 247.224C100.244 247.608 98.4357 247.688 95.8757 247.688H94.7717ZM94.7397 239.128V240.216H99.8917V243.112H94.7717V248.024H96.0837V244.2H101.204V239.128H94.7397ZM114.275 239.208V239.816C114.275 241.72 111.795 243.384 109.251 243.752L109.763 244.808C112.675 244.312 115.427 242.408 115.427 239.816V239.208H114.275ZM114.611 239.208V239.816C114.611 242.408 117.347 244.312 120.275 244.808L120.771 243.752C118.243 243.384 115.747 241.72 115.747 239.816V239.208H114.611ZM114.323 246.728V252.248H115.635V246.728H114.323ZM108.483 246.024V247.112H121.555V246.024H108.483ZM109.699 238.68V239.752H120.291V238.68H109.699ZM128.417 242.952V244.056H131.185V242.952H128.417ZM125.713 239.144V241.896C125.713 244.376 124.529 246.968 122.545 248.136L123.377 249.144C125.489 247.848 126.753 244.92 126.753 241.896V239.144H125.713ZM125.969 239.144V241.848C125.969 244.664 127.137 247.544 129.217 248.824L129.985 247.784C128.081 246.632 126.993 244.168 126.993 241.848V239.144H125.969ZM133.729 237.784V252.248H135.009V237.784H133.729ZM130.801 238.088V251.528H132.049V238.088H130.801ZM140.16 245.224V249.56H141.472V245.224H140.16ZM145.504 245.224V249.56H146.832V245.224H145.504ZM136.96 249.304V250.408H150.064V249.304H136.96ZM143.488 238.696C140.416 238.696 138.224 240.152 138.224 242.424C138.224 244.68 140.416 246.136 143.488 246.136C146.544 246.136 148.736 244.68 148.736 242.424C148.736 240.152 146.544 238.696 143.488 238.696ZM143.488 239.752C145.808 239.752 147.456 240.808 147.456 242.424C147.456 244.024 145.808 245.08 143.488 245.08C141.168 245.08 139.504 244.024 139.504 242.424C139.504 240.808 141.168 239.752 143.488 239.752ZM151.524 250.234C151.524 249.99 151.599 249.784 151.75 249.617C151.907 249.445 152.131 249.359 152.422 249.359C152.714 249.359 152.935 249.445 153.086 249.617C153.243 249.784 153.321 249.99 153.321 250.234C153.321 250.474 153.243 250.677 153.086 250.844C152.935 251.01 152.714 251.094 152.422 251.094C152.131 251.094 151.907 251.01 151.75 250.844C151.599 250.677 151.524 250.474 151.524 250.234Z" fill="#555555"/>
<path d="M121.167 301.167V315.5H114V301.167C114 299.266 114.755 297.443 116.099 296.099C117.443 294.755 119.266 294 121.167 294H135.5V301.167H121.167ZM192.833 294C194.734 294 196.557 294.755 197.901 296.099C199.245 297.443 200 299.266 200 301.167V315.5H192.833V301.167H178.5V294H192.833ZM121.167 358.5V372.833H135.5V380H121.167C119.266 380 117.443 379.245 116.099 377.901C114.755 376.557 114 374.734 114 372.833V358.5H121.167ZM192.833 372.833V358.5H200V372.833C200 374.734 199.245 376.557 197.901 377.901C196.557 379.245 194.734 380 192.833 380H178.5V372.833H192.833Z" fill="#2394FD"/>
<path d="M136.167 333.083H129V340.25H136.167V333.083Z" fill="black"/>
<path d="M161.25 333.083H146.917V340.25H154.083V347.417H161.25V333.083Z" fill="black"/>
<path d="M161.25 315.167H154.083V329.5H161.25V315.167Z" fill="black"/>
<path fill-rule="evenodd" clip-rule="evenodd" d="M186.333 308V329.5H164.833V308H186.333ZM172 322.333V315.167H179.167V322.333H172Z" fill="black"/>
<path fill-rule="evenodd" clip-rule="evenodd" d="M129 308H150.5V329.5H129V308ZM136.167 322.333V315.167H143.333V322.333H136.167Z" fill="black"/>
<path fill-rule="evenodd" clip-rule="evenodd" d="M129 365.333V343.833H150.5V365.333H129ZM136.167 358.167V351H143.333V358.167H136.167Z" fill="black"/>
<path fill-rule="evenodd" clip-rule="evenodd" d="M172 347.417H164.833V351H154.083V365.333H161.25V358.167H172V365.333H179.167V358.167H186.333V347.417H179.167V340.25H186.333V333.083H179.167V340.25H172V333.083H164.833V340.25H172V347.417ZM172 347.417V358.167H179.167V347.417H172Z" fill="black"/>
<rect x="72" y="410" width="171" height="44" rx="22" fill="#E8F4FF"/>
<path d="M115.477 425.788V426.274C115.477 427.984 113.713 429.856 110.041 430.306L110.923 432.178C115.153 431.602 117.547 429.208 117.547 426.274V425.788H115.477ZM116.161 425.788V426.274C116.161 429.208 118.555 431.602 122.803 432.178L123.667 430.306C119.995 429.856 118.231 427.984 118.231 426.274V425.788H116.161ZM115.603 434.5V440.62H117.979V434.5H115.603ZM109.321 433.132V435.04H124.387V433.132H109.321ZM110.653 424.78V426.67H123.019V424.78H110.653ZM125.862 432.16V434.068H140.946V432.16H125.862ZM132.396 433.366V436.876H134.808V433.366H132.396ZM127.716 424.636V430.828H139.038V424.636H127.716ZM136.68 426.508V428.956H130.056V426.508H136.68ZM127.608 438.406V440.314H139.29V438.406H127.608ZM127.608 435.472V439.036H129.984V435.472H127.608ZM150.701 430.684V433.204H153.095V430.684H150.701ZM151.871 424.6C149.459 424.6 147.713 425.986 147.713 428.002C147.713 429.982 149.459 431.368 151.871 431.368C154.283 431.368 156.029 429.982 156.029 428.002C156.029 425.986 154.283 424.6 151.871 424.6ZM151.871 426.4C153.023 426.4 153.797 426.976 153.797 428.002C153.797 429.01 153.023 429.586 151.871 429.586C150.737 429.586 149.945 429.01 149.945 428.002C149.945 426.976 150.737 426.4 151.871 426.4ZM157.739 423.952V436.66H160.133V423.952H157.739ZM159.287 429.172V431.134H162.221V429.172H159.287ZM149.009 438.388V440.314H160.691V438.388H149.009ZM149.009 435.562V439.216H151.421V435.562H149.009ZM147.119 434.5C149.873 434.5 153.653 434.446 157.019 433.816L156.857 432.106C153.581 432.574 149.675 432.592 146.849 432.592L147.119 434.5ZM167.295 433.654V437.578H169.635V433.654H167.295ZM172.569 433.636V437.578H174.909V433.636H172.569ZM163.479 436.822V438.766H178.563V436.822H163.479ZM165.171 425.014V426.904H174.495V428.668H165.207V433.366H167.583V430.54H176.871V425.014H165.171ZM165.207 432.358V434.284H177.249V432.358H165.207ZM190.712 423.934V440.602H193.088V423.934H190.712ZM192.548 430.432V432.43H195.5V430.432H192.548ZM179.948 426.4V428.308H189.65V426.4H179.948ZM184.826 429.244C182.396 429.244 180.596 430.9 180.596 433.222C180.596 435.544 182.396 437.2 184.826 437.2C187.256 437.2 189.056 435.544 189.056 433.222C189.056 430.9 187.256 429.244 184.826 429.244ZM184.826 431.188C185.96 431.188 186.77 431.944 186.77 433.222C186.77 434.5 185.96 435.256 184.826 435.256C183.692 435.256 182.882 434.5 182.882 433.222C182.882 431.944 183.692 431.188 184.826 431.188ZM183.62 424.204V427.12H186.014V424.204H183.62ZM208.062 423.934V440.602H210.474V423.934H208.062ZM203.148 425.662V426.094C203.148 430.558 201.42 433.582 196.632 435.886L197.874 437.794C203.796 434.932 205.524 430.756 205.524 425.662H203.148ZM197.514 425.662V427.552H204.282V425.662H197.514Z" fill="#2394FD"/>
<path d="M229.361 472.417H206.445V478.667H229.361V472.417Z" stroke="black" stroke-width="3" stroke-linejoin="round"/>
<path d="M206.445 472.417C199.654 464.997 195.757 460.698 194.755 459.517C193.252 457.746 193.883 455.746 197.646 455.746C201.408 455.746 203.578 461.252 206.445 461.252C206.462 461.255 206.463 454.215 206.448 440.129C206.447 439.719 206.528 439.312 206.684 438.932C206.841 438.553 207.071 438.208 207.361 437.918C207.651 437.627 207.995 437.396 208.374 437.239C208.754 437.081 209.16 437 209.571 437H209.574C209.985 437 210.392 437.081 210.772 437.238C211.151 437.395 211.496 437.626 211.787 437.916C212.078 438.207 212.308 438.552 212.466 438.931C212.623 439.311 212.704 439.718 212.704 440.129V448.473C221.008 449.732 225.524 450.427 226.249 450.556C227.337 450.753 229.361 451.792 229.361 454.78V472.417H206.445Z" fill="white" stroke="black" stroke-width="3" stroke-linejoin="round"/>
<path d="M91.1902 500.849C88.5222 501.068 85.7443 501.623 83.083 501.543C81.9637 501.509 80.4357 501.192 79.3272 501.659C79.0807 501.763 79.716 502.009 79.9427 502.127C80.8055 502.579 81.6728 503.021 82.5253 503.494C84.5371 504.609 86.5078 505.809 88.4991 506.964C88.9336 507.216 90.1855 508.013 89.8499 507.624C89.1404 506.801 88.2751 506.167 87.5925 505.297C86.4632 503.858 85.5766 502.297 84.8628 500.556C84.4293 499.498 84.0698 498.078 83.3713 497.188C83.0206 496.741 83.494 498.39 83.5893 498.982C84.0639 501.936 83.4858 504.54 83.2467 507.497C83.1378 508.843 83.2517 509.202 84.322 508.209C86.3468 506.329 87.9861 504.034 89.8734 501.993C90.6817 501.119 91.0658 500.807 92.0237 501.131" stroke="#D66363" stroke-linecap="round"/>
<line x1="91" y1="518" x2="224" y2="518" stroke="#FFFBA0" stroke-width="10"/>
<path d="M101.711 511.57C101.711 512.633 101.539 513.557 101.195 514.344C100.852 515.125 100.375 515.753 99.7656 516.227L101.656 517.711L100.164 519.031L97.7422 517.086C97.4661 517.133 97.1797 517.156 96.8828 517.156C95.9401 517.156 95.099 516.93 94.3594 516.477C93.6198 516.023 93.0469 515.378 92.6406 514.539C92.2344 513.695 92.0286 512.727 92.0234 511.633V511.07C92.0234 509.951 92.224 508.966 92.625 508.117C93.0312 507.263 93.6016 506.609 94.3359 506.156C95.0755 505.698 95.9193 505.469 96.8672 505.469C97.8151 505.469 98.6562 505.698 99.3906 506.156C100.13 506.609 100.701 507.263 101.102 508.117C101.508 508.966 101.711 509.948 101.711 511.062V511.57ZM99.3359 511.055C99.3359 509.862 99.1224 508.956 98.6953 508.336C98.2682 507.716 97.6589 507.406 96.8672 507.406C96.0807 507.406 95.474 507.714 95.0469 508.328C94.6198 508.938 94.4036 509.833 94.3984 511.016V511.57C94.3984 512.732 94.612 513.633 95.0391 514.273C95.4661 514.914 96.0807 515.234 96.8828 515.234C97.6693 515.234 98.2734 514.927 98.6953 514.312C99.1172 513.693 99.3307 512.792 99.3359 511.609V511.055ZM107.641 512.836H105.773V517H103.43V505.625H107.656C109 505.625 110.036 505.924 110.766 506.523C111.495 507.122 111.859 507.969 111.859 509.062C111.859 509.839 111.69 510.487 111.352 511.008C111.018 511.523 110.51 511.935 109.828 512.242L112.289 516.891V517H109.773L107.641 512.836ZM105.773 510.938H107.664C108.253 510.938 108.708 510.789 109.031 510.492C109.354 510.19 109.516 509.776 109.516 509.25C109.516 508.714 109.362 508.292 109.055 507.984C108.753 507.677 108.286 507.523 107.656 507.523H105.773V510.938ZM126.201 510.568C122.873 510.008 121.049 507.72 121.049 505.56V504.504H118.793V505.56C118.793 507.672 116.953 510.008 113.641 510.568L114.537 512.344C117.097 511.848 118.969 510.408 119.913 508.536C120.857 510.408 122.745 511.832 125.305 512.344L126.201 510.568ZM113.321 514.872V516.584H126.665V514.872H113.321ZM137.336 509.624H138.6V514.712H140.6V503.64H138.6V507.928H137.336V503.912H135.368V514.296H137.336V509.624ZM128.728 504.872V506.552H132.408C132.36 506.952 132.28 507.32 132.168 507.688L128.104 507.88L128.376 509.56L131.432 509.224C130.712 510.232 129.592 511.064 127.944 511.768L128.936 513.256C133.032 511.464 134.504 508.728 134.504 504.872H128.728ZM132.712 516.44V513.432H130.6V518.12H141V516.44H132.712ZM159.367 505.176H154.455V503.624H152.343V505.176H147.383V506.824H159.367V505.176ZM156.263 509.944C156.263 510.6 155.319 510.904 153.399 510.904C151.479 510.904 150.551 510.6 150.551 509.944C150.551 509.256 151.479 508.968 153.399 508.968C155.319 508.968 156.263 509.256 156.263 509.944ZM148.359 509.944C148.359 511.56 150.247 512.472 153.399 512.472C156.551 512.472 158.455 511.56 158.455 509.944C158.455 508.312 156.551 507.4 153.399 507.4C150.247 507.4 148.359 508.312 148.359 509.944ZM160.087 513.176H146.743V514.872H152.343V518.392H154.455V514.872H160.087V513.176ZM166.822 511.16C168.534 510.808 169.702 509.992 170.358 508.92C171.014 509.88 172.118 510.616 173.766 510.936L174.582 509.304C172.438 508.92 171.43 507.896 171.366 506.728H174.246V505.096H171.366V503.656H169.254V505.096H166.374V506.728H169.254C169.19 507.976 168.182 509.112 165.974 509.528L166.822 511.16ZM174.838 511.352C171.75 511.768 168.182 511.784 165.494 511.784L165.75 513.496C166.806 513.496 167.99 513.496 169.238 513.448V517.928H171.35V513.32C172.55 513.224 173.782 513.08 174.966 512.872L174.838 511.352ZM175.67 503.64V518.36H177.782V503.64H175.67ZM193.061 510.36C189.701 509.816 187.893 507.608 187.893 505.512V504.456H185.637V505.512C185.637 507.56 183.813 509.816 180.485 510.36L181.349 512.104C183.925 511.64 185.797 510.248 186.757 508.44C187.717 510.264 189.605 511.64 192.197 512.104L193.061 510.36ZM187.829 514.936V511.64H185.717V514.936H180.165V516.632H193.509V514.936H187.829ZM204.419 507.24H198.675V506.376H204.419V507.24ZM206.515 503.864H204.419V504.84H198.675V503.864H196.579V508.792H206.515V503.864ZM208.211 511.24V509.576H194.883V511.24H200.467V512.152H196.403V513.704H204.499V514.44H196.419V518.264H206.963V516.696H198.515V515.896H206.579V512.152H202.579V511.24H208.211ZM210.274 505.144V506.856H215.09C214.706 510.12 212.882 512.456 209.458 514.216L210.642 515.832C215.538 513.352 217.218 509.56 217.218 505.144H210.274ZM223.202 509.256H221.138V503.624H219.026V518.344H221.138V511H223.202V509.256Z" fill="#D66363"/>
<circle cx="11" cy="587" r="11" fill="black"/>
<path d="M9.46871 586.044H10.7109C11.6953 586.044 12.1875 585.563 12.1875 584.599C12.1875 584.224 12.0703 583.919 11.8359 583.685C11.6015 583.445 11.2708 583.326 10.8437 583.326C10.4948 583.326 10.1901 583.427 9.92965 583.63C9.67444 583.833 9.54683 584.086 9.54683 584.388H6.91402C6.91402 583.789 7.08069 583.255 7.41402 582.786C7.74735 582.318 8.20829 581.953 8.79683 581.693C9.39058 581.427 10.0416 581.294 10.75 581.294C12.0156 581.294 13.0104 581.583 13.7343 582.161C14.4583 582.74 14.8203 583.534 14.8203 584.544C14.8203 585.034 14.6692 585.497 14.3671 585.935C14.0703 586.367 13.6354 586.719 13.0625 586.99C13.6666 587.208 14.1406 587.542 14.4843 587.99C14.8281 588.432 15 588.982 15 589.638C15 590.654 14.6093 591.466 13.8281 592.076C13.0468 592.685 12.0208 592.99 10.75 592.99C10.0052 592.99 9.31246 592.849 8.67183 592.568C8.03642 592.281 7.55465 591.888 7.22652 591.388C6.8984 590.883 6.73433 590.31 6.73433 589.669H9.38277C9.38277 590.018 9.5234 590.32 9.80465 590.576C10.0859 590.831 10.4323 590.958 10.8437 590.958C11.3073 590.958 11.677 590.831 11.9531 590.576C12.2291 590.315 12.3671 589.984 12.3671 589.583C12.3671 589.01 12.2239 588.604 11.9375 588.365C11.651 588.125 11.2552 588.005 10.75 588.005H9.46871V586.044Z" fill="white"/>
<path d="M38.664 579.08H37.368V581.656C37.368 584.264 35.736 587.016 33.672 588.072L34.456 589.128C36.072 588.264 37.4 586.472 38.024 584.376C38.68 586.344 39.976 588.024 41.496 588.84L42.312 587.8C40.296 586.792 38.664 584.184 38.664 581.656V579.08ZM47.256 583.656H44.888V577.848H43.576V592.184H44.888V584.744H47.256V583.656ZM54.5668 591.16C52.3108 591.16 50.9828 590.6 50.9828 589.624C50.9828 588.648 52.3108 588.088 54.5668 588.088C56.8068 588.088 58.1508 588.648 58.1508 589.624C58.1508 590.6 56.8068 591.16 54.5668 591.16ZM54.5668 587.064C51.4948 587.064 49.6548 587.976 49.6548 589.624C49.6548 591.272 51.4948 592.168 54.5668 592.168C57.6548 592.168 59.4788 591.272 59.4788 589.624C59.4788 587.976 57.6548 587.064 54.5668 587.064ZM52.5828 583.256C53.1748 583.352 53.8468 583.416 54.5668 583.416C55.3028 583.416 55.9748 583.352 56.5668 583.256V584.936H52.5828V583.256ZM50.8708 580.76C50.8708 579.72 52.2788 579.112 54.5668 579.112C56.8548 579.112 58.2628 579.72 58.2628 580.76C58.2628 581.784 56.8548 582.408 54.5668 582.408C52.2788 582.408 50.8708 581.784 50.8708 580.76ZM57.8628 584.936V582.904C58.9668 582.456 59.6068 581.72 59.6068 580.76C59.6068 579.08 57.6868 578.088 54.5668 578.088C51.4628 578.088 49.5268 579.08 49.5268 580.76C49.5268 581.736 50.1508 582.456 51.2868 582.92V584.936H48.0708V585.992H61.0628V584.936H57.8628ZM64.3575 581.32C64.3575 580.232 65.3015 579.496 66.6775 579.496C68.0215 579.496 68.9815 580.232 68.9815 581.32C68.9815 582.424 68.0215 583.144 66.6775 583.144C65.3015 583.144 64.3575 582.424 64.3575 581.32ZM71.2535 585.144C70.0055 585.336 68.6775 585.432 67.3495 585.512V584.104C69.0615 583.896 70.2135 582.84 70.2135 581.32C70.2135 579.64 68.7575 578.504 66.6775 578.504C64.5815 578.504 63.1415 579.64 63.1415 581.32C63.1415 582.856 64.2935 583.912 66.0375 584.12V585.56C64.6935 585.608 63.4135 585.624 62.3095 585.624L62.4855 586.696C64.9335 586.696 68.3415 586.648 71.3335 586.104L71.2535 585.144ZM65.6855 587.896H64.3735V591.848H73.9575V590.776H65.6855V587.896ZM73.4455 582.696V577.848H72.1335V588.824H73.4455V583.784H75.5415V582.696H73.4455ZM81.4923 586.616H84.7723V589.336H81.4923V586.616ZM86.0683 589.336V586.616H88.3083V585.544H79.4763V583.24H87.9723V578.888H78.1483V579.96H86.6923V582.184H78.1803V586.616H80.1963V589.336H76.5483V590.408H89.5883V589.336H86.0683ZM102.948 579.576H99.3317V577.848H98.0197V579.576H94.3717V580.616H102.948V579.576ZM96.5317 584.12C96.5317 583.128 97.3957 582.472 98.6757 582.472C99.9557 582.472 100.82 583.128 100.82 584.12C100.82 585.112 99.9557 585.752 98.6757 585.752C97.3957 585.752 96.5317 585.112 96.5317 584.12ZM99.3317 586.744C100.98 586.536 102.068 585.544 102.068 584.12C102.068 582.504 100.676 581.464 98.6757 581.464C96.6757 581.464 95.2837 582.504 95.2837 584.12C95.2837 585.544 96.3717 586.536 98.0197 586.744V588.312C96.6277 588.36 95.2837 588.36 94.1317 588.36L94.3077 589.464C96.8197 589.464 100.196 589.432 103.268 588.888L103.188 587.912C101.956 588.104 100.628 588.2 99.3317 588.264V586.744ZM107.588 583.928H105.348V577.832H104.036V592.184H105.348V585.032H107.588V583.928ZM114.451 584.744H110.483V580.136H114.451V584.744ZM119.027 581.432V583.432H115.731V581.432H119.027ZM115.731 584.504H119.027V588.312H120.355V577.848H119.027V580.36H115.731V579.096H109.187V585.784H115.731V584.504ZM112.435 590.792V587.384H111.123V591.864H120.691V590.792H112.435ZM129.249 579.064C131.601 579.064 132.945 579.608 132.945 580.568C132.945 581.528 131.601 582.072 129.249 582.072C126.897 582.072 125.553 581.528 125.553 580.568C125.553 579.608 126.897 579.064 129.249 579.064ZM129.249 583.048C132.401 583.048 134.289 582.184 134.289 580.568C134.289 578.952 132.401 578.072 129.249 578.072C126.097 578.072 124.209 578.952 124.209 580.568C124.209 582.184 126.097 583.048 129.249 583.048ZM125.649 589.544H134.081V586.312H124.321V587.304H132.785V588.584H124.369V592.024H134.513V591H125.649V589.544ZM122.753 584.024V585.08H135.745V584.024H122.753ZM149.265 584.84C147.153 584.136 145.665 582.392 145.665 580.472V579.896H148.913V578.84H141.041V579.896H144.321V580.472C144.321 582.488 142.865 584.36 140.689 585.128L141.377 586.152C143.073 585.528 144.401 584.248 145.009 582.616C145.665 584.12 146.977 585.304 148.625 585.88L149.265 584.84ZM142.673 588.328H150.961V592.184H152.273V587.272H142.673V588.328ZM150.961 577.832V586.52H152.273V577.832H150.961ZM162.255 586.312V587.288H165.167V588.76H166.479V577.832H165.167V586.312H162.255ZM159.327 579.384C160.687 579.384 161.615 579.992 161.615 580.904C161.615 581.832 160.687 582.44 159.327 582.44C157.967 582.44 157.039 581.832 157.039 580.904C157.039 579.992 157.967 579.384 159.327 579.384ZM159.327 583.416C161.423 583.416 162.863 582.44 162.863 580.904C162.863 579.4 161.423 578.408 159.327 578.408C157.231 578.408 155.791 579.4 155.791 580.904C155.791 582.44 157.231 583.416 159.327 583.416ZM158.815 588.248H160.127V585.416C161.423 585.336 162.751 585.192 164.015 585L163.903 584.056C160.863 584.44 157.311 584.472 154.655 584.472L154.831 585.56C156.015 585.56 157.391 585.544 158.815 585.48V588.248ZM158.015 590.792V587.688H156.703V591.864H166.847V590.792H158.015ZM172.222 587.816C171.07 587.816 170.35 586.36 170.35 584.008C170.35 581.704 171.07 580.248 172.222 580.248C173.342 580.248 174.078 581.704 174.078 584.008C174.078 586.36 173.342 587.816 172.222 587.816ZM177.07 583.416H175.262C175.102 580.712 173.95 579.032 172.222 579.032C170.35 579.032 169.15 580.952 169.15 584.008C169.15 587.112 170.35 589.032 172.222 589.032C173.982 589.032 175.15 587.304 175.262 584.488H177.07V591.48H178.318V578.152H177.07V583.416ZM179.918 577.832V592.184H181.166V577.832H179.918ZM191.165 583.704H188.685C189.165 582.424 189.373 581.064 189.373 579.656H183.837V580.728H188.077C187.837 583.736 186.301 586.312 183.229 588.152L183.997 589.096C185.981 587.912 187.357 586.424 188.221 584.76H191.165V591.464H192.413V578.216H191.165V583.704ZM194.157 577.832V592.184H195.405V577.832H194.157ZM203.772 582.488H211.1V585.128H203.772V582.488ZM208.092 589.272V586.184H212.38V578.856H211.1V581.416H203.772V578.856H202.476V586.184H206.764V589.272H200.94V590.344H213.948V589.272H208.092ZM222.427 585.576C222.523 585.08 222.587 584.536 222.587 583.944C222.587 583.288 222.507 582.68 222.379 582.12H225.691V585.576H222.427ZM219.019 587.784C217.643 587.784 216.683 586.28 216.683 583.944C216.683 581.624 217.643 580.12 219.019 580.12C220.379 580.12 221.355 581.624 221.355 583.944C221.355 586.28 220.379 587.784 219.019 587.784ZM225.691 577.832V581.048H222.011C221.403 579.704 220.347 578.936 219.019 578.936C216.923 578.936 215.435 580.888 215.435 583.944C215.435 587 216.923 588.952 219.019 588.952C220.395 588.952 221.515 588.104 222.107 586.648H225.691V592.216H227.003V577.832H225.691ZM230.698 584.808C232.922 584.424 235.034 583.224 235.914 581.528C236.778 583.224 238.906 584.424 241.13 584.808L241.642 583.768C239.114 583.4 236.634 581.752 236.634 579.864V579.784H241.13V578.728H230.65V579.784H235.178V579.864C235.178 581.752 232.698 583.4 230.202 583.768L230.698 584.808ZM242.394 586.008H229.434V587.08H235.226V592.184H236.538V587.08H242.41L242.394 586.008ZM248.745 579.08H247.449V581.656C247.449 584.376 245.705 587.128 243.593 588.136L244.393 589.208C246.073 588.344 247.449 586.552 248.105 584.392C248.793 586.44 250.169 588.136 251.801 588.936L252.585 587.88C250.457 586.92 248.745 584.28 248.745 581.656V579.08ZM254.089 577.832V592.216H255.401V577.832H254.089ZM268.024 580.696C268.024 582.424 268.024 584.44 267.48 587.192L268.792 587.336C269.336 584.44 269.336 582.472 269.336 580.696V579.272H259.272V580.344H268.024V580.696ZM264.264 589.096V583.96H262.952V589.096H257.912V590.168H270.888V589.096H264.264ZM272.333 593.266L271.513 592.703C272.002 592.021 272.258 591.318 272.278 590.594V589.289H273.693V590.422C273.693 590.948 273.562 591.474 273.302 592C273.047 592.526 272.724 592.948 272.333 593.266ZM41.368 608.312V609.288H44.28V610.76H45.592V599.832H44.28V608.312H41.368ZM38.44 601.384C39.8 601.384 40.728 601.992 40.728 602.904C40.728 603.832 39.8 604.44 38.44 604.44C37.08 604.44 36.152 603.832 36.152 602.904C36.152 601.992 37.08 601.384 38.44 601.384ZM38.44 605.416C40.536 605.416 41.976 604.44 41.976 602.904C41.976 601.4 40.536 600.408 38.44 600.408C36.344 600.408 34.904 601.4 34.904 602.904C34.904 604.44 36.344 605.416 38.44 605.416ZM37.928 610.248H39.24V607.416C40.536 607.336 41.864 607.192 43.128 607L43.016 606.056C39.976 606.44 36.424 606.472 33.768 606.472L33.944 607.56C35.128 607.56 36.504 607.544 37.928 607.48V610.248ZM37.128 612.792V609.688H35.816V613.864H45.96V612.792H37.128ZM52.2948 609.896C50.9988 609.896 50.0548 608.968 50.0548 607.688C50.0548 606.392 50.9988 605.464 52.2948 605.464C53.6068 605.464 54.5508 606.392 54.5508 607.688C54.5508 608.968 53.6068 609.896 52.2948 609.896ZM52.2948 604.376C50.2788 604.376 48.8228 605.752 48.8228 607.688C48.8228 609.64 50.2788 610.984 52.2948 610.984C54.3428 610.984 55.7988 609.64 55.7988 607.688C55.7988 605.752 54.3428 604.376 52.2948 604.376ZM52.9348 600.008H51.6228V602.136H48.0068V603.192H56.4708V602.136H52.9348V600.008ZM61.4948 605.736H59.1428V599.848H57.8308V614.184H59.1428V606.84H61.4948V605.736ZM73.8295 604.152H65.3815V600.36H64.0695V605.224H73.8295V604.152ZM65.2855 609.64H63.9735V613.832H73.9095V612.76H65.2855V609.64ZM62.3095 607.144V608.2H75.3175V607.144H62.3095ZM86.533 600.152C83.429 600.152 81.493 601.16 81.493 602.872C81.493 604.568 83.429 605.576 86.533 605.576C89.637 605.576 91.573 604.568 91.573 602.872C91.573 601.16 89.637 600.152 86.533 600.152ZM86.533 601.192C88.805 601.192 90.229 601.816 90.229 602.872C90.229 603.928 88.805 604.552 86.533 604.552C84.261 604.552 82.837 603.928 82.837 602.872C82.837 601.816 84.261 601.192 86.533 601.192ZM81.653 609.272V613.992H91.445V609.272H81.653ZM90.165 610.312V612.936H82.933V610.312H90.165ZM80.053 606.808V607.864H93.029V606.808H80.053ZM99.2197 608.616H102.5V611.336H99.2197V608.616ZM103.796 611.336V608.616H106.036V607.544H97.2037V605.24H105.7V600.888H95.8757V601.96H104.42V604.184H95.9077V608.616H97.9237V611.336H94.2757V612.408H107.316V611.336H103.796ZM118.579 602.344H110.195V605.416H120.131V604.472H111.491V603.24H119.875V600.248H110.163V601.176H118.579V602.344ZM111.411 611.72H119.923V608.664H110.083V609.608H118.627V610.808H110.115V613.992H120.371V613.048H111.411V611.72ZM108.531 606.504V607.496H121.539V606.504H108.531ZM127.538 606.808C129.762 606.424 131.874 605.224 132.754 603.528C133.618 605.224 135.746 606.424 137.97 606.808L138.482 605.768C135.954 605.4 133.474 603.752 133.474 601.864V601.784H137.97V600.728H127.49V601.784H132.018V601.864C132.018 603.752 129.538 605.4 127.042 605.768L127.538 606.808ZM139.234 608.008H126.274V609.08H132.066V614.184H133.378V609.08H139.25L139.234 608.008ZM150.513 604.488H143.441V601.56H150.513V604.488ZM151.809 600.504H142.161V605.544H151.809V600.504ZM143.441 609.768H142.129V613.864H152.049V612.792H143.441V609.768ZM140.465 607.176V608.232H146.433V611.128H147.745V608.232H153.505V607.176H140.465ZM158.943 609.896C157.647 609.896 156.703 608.968 156.703 607.688C156.703 606.392 157.647 605.464 158.943 605.464C160.255 605.464 161.199 606.392 161.199 607.688C161.199 608.968 160.255 609.896 158.943 609.896ZM158.943 604.376C156.927 604.376 155.471 605.752 155.471 607.688C155.471 609.64 156.927 610.984 158.943 610.984C160.991 610.984 162.447 609.64 162.447 607.688C162.447 605.752 160.991 604.376 158.943 604.376ZM159.583 600.008H158.271V602.136H154.655V603.192H163.119V602.136H159.583V600.008ZM168.143 605.736H165.791V599.848H164.479V614.184H165.791V606.84H168.143V605.736ZM174.062 601.08H172.766V603.656C172.766 606.376 171.022 609.128 168.91 610.136L169.71 611.208C171.39 610.344 172.766 608.552 173.422 606.392C174.11 608.44 175.486 610.136 177.118 610.936L177.902 609.88C175.774 608.92 174.062 606.28 174.062 603.656V601.08ZM179.406 599.832V614.216H180.718V599.832H179.406ZM189.133 606.744H185.165V602.136H189.133V606.744ZM193.709 603.432V605.432H190.413V603.432H193.709ZM190.413 606.504H193.709V610.312H195.037V599.848H193.709V602.36H190.413V601.096H183.869V607.784H190.413V606.504ZM187.117 612.792V609.384H185.805V613.864H195.373V612.792H187.117ZM202.972 603.32C202.972 602.232 203.916 601.496 205.292 601.496C206.636 601.496 207.596 602.232 207.596 603.32C207.596 604.424 206.636 605.144 205.292 605.144C203.916 605.144 202.972 604.424 202.972 603.32ZM209.868 607.144C208.62 607.336 207.292 607.432 205.964 607.512V606.104C207.676 605.896 208.828 604.84 208.828 603.32C208.828 601.64 207.372 600.504 205.292 600.504C203.196 600.504 201.756 601.64 201.756 603.32C201.756 604.856 202.908 605.912 204.652 606.12V607.56C203.308 607.608 202.028 607.624 200.924 607.624L201.1 608.696C203.548 608.696 206.956 608.648 209.948 608.104L209.868 607.144ZM204.3 609.896H202.988V613.848H212.572V612.776H204.3V609.896ZM212.06 604.696V599.848H210.748V610.824H212.06V605.784H214.156V604.696H212.06ZM220.107 608.616H223.387V611.336H220.107V608.616ZM224.683 611.336V608.616H226.923V607.544H218.091V605.24H226.587V600.888H216.763V601.96H225.307V604.184H216.795V608.616H218.811V611.336H215.163V612.408H228.203V611.336H224.683ZM231.281 609.789H229.976L229.875 601.625H231.39L231.281 609.789ZM229.82 612.273C229.82 612.039 229.89 611.844 230.031 611.688C230.177 611.526 230.39 611.445 230.672 611.445C230.953 611.445 231.166 611.526 231.312 611.688C231.458 611.844 231.531 612.039 231.531 612.273C231.531 612.508 231.458 612.703 231.312 612.859C231.166 613.01 230.953 613.086 230.672 613.086C230.39 613.086 230.177 613.01 230.031 612.859C229.89 612.703 229.82 612.508 229.82 612.273Z" fill="#555555"/>
<path fill-rule="evenodd" clip-rule="evenodd" d="M71 654C62.7157 654 56 660.716 56 669V695.764C56.0388 695.764 56.0776 695.763 56.1165 695.763C62.0351 695.763 66.833 700.692 66.833 706.771C66.833 712.851 62.0351 717.779 56.1165 717.779C56.0776 717.779 56.0388 717.779 56 717.778V745C56 753.284 62.7157 760 71 760H244.846C253.13 760 259.846 753.284 259.846 745V717.778C259.807 717.779 259.769 717.779 259.73 717.779C253.811 717.779 249.013 712.851 249.013 706.771C249.013 700.692 253.811 695.763 259.73 695.763C259.769 695.763 259.807 695.764 259.846 695.764V669C259.846 660.716 253.13 654 244.846 654H71Z" fill="#E8F4FF"/>
<mask id="mask0_221_4487" style="mask-type:alpha" maskUnits="userSpaceOnUse" x="56" y="654" width="204" height="106">
<path fill-rule="evenodd" clip-rule="evenodd" d="M71 654C62.7157 654 56 660.716 56 669V695.764C56.0388 695.764 56.0776 695.763 56.1165 695.763C62.0351 695.763 66.833 700.692 66.833 706.771C66.833 712.851 62.0351 717.779 56.1165 717.779C56.0776 717.779 56.0388 717.779 56 717.778V745C56 753.284 62.7157 760 71 760H244.846C253.13 760 259.846 753.284 259.846 745V717.778C259.807 717.779 259.769 717.779 259.73 717.779C253.811 717.779 249.013 712.851 249.013 706.771C249.013 700.692 253.811 695.763 259.73 695.763C259.769 695.763 259.807 695.764 259.846 695.764V669C259.846 660.716 253.13 654 244.846 654H71Z" fill="#E8F4FF"/>
</mask>
<g mask="url(#mask0_221_4487)">
<rect x="196.246" y="654.179" width="63.6" height="106" fill="#2394FD"/>
<path d="M215.912 743.239L215.912 739.387L215.12 739.387L215.12 743.239L212.9 743.239L212.9 738.991L212.096 738.991L212.096 744.211L219.296 744.211L219.296 743.359C219.296 741.307 219.224 739.867 218.936 738.187L218.132 738.283C218.42 739.891 218.492 741.283 218.492 743.239L215.912 743.239ZM211.124 737.047L221.876 737.047L221.876 736.063L211.124 736.063L211.124 737.047ZM212.06 730.64L212.06 731.612L213.992 731.612C216.032 731.612 218.096 732.92 218.852 734.504L219.656 733.904C219.008 732.644 217.664 731.612 216.044 731.12C217.58 730.604 218.852 729.572 219.452 728.348L218.66 727.76C217.94 729.356 215.96 730.64 213.992 730.64L212.06 730.64ZM211.124 726.632L221.912 726.632L221.912 725.648L211.124 725.648L211.124 726.632ZM216.536 714.741C216.176 716.625 214.544 718.665 212.708 718.665L211.88 718.665L211.88 719.697L212.708 719.697C214.544 719.697 216.164 721.725 216.536 723.609L217.352 723.165C216.968 721.545 215.816 719.865 214.244 719.181C215.828 718.497 216.98 716.817 217.352 715.185L216.536 714.741ZM219.632 724.017L220.448 724.017L220.448 714.261L219.632 714.261L219.632 724.017ZM211.364 706.329C211.364 708.657 212.12 710.109 213.404 710.109C214.676 710.109 215.432 708.657 215.432 706.329C215.432 704.001 214.676 702.549 213.404 702.549C212.12 702.549 211.364 704.001 211.364 706.329ZM212.144 706.329C212.144 704.625 212.612 703.557 213.404 703.557C214.196 703.557 214.664 704.625 214.664 706.329C214.664 708.033 214.196 709.101 213.404 709.101C212.612 709.101 212.144 708.033 212.144 706.329ZM218.204 709.989L221.744 709.989L221.744 702.645L218.204 702.645L218.204 709.989ZM218.984 703.605L220.952 703.605L220.952 709.029L218.984 709.029L218.984 703.605ZM216.356 711.189L217.148 711.189L217.148 701.457L216.356 701.457L216.356 711.189ZM217.712 697.054L217.712 694.594L219.752 694.594L219.752 697.054L217.712 697.054ZM219.752 693.622L217.712 693.622L217.712 691.942L216.908 691.942L216.908 698.566L215.18 698.566L215.18 692.194L211.916 692.194L211.916 699.562L212.72 699.562L212.72 693.154L214.388 693.154L214.388 699.538L217.712 699.538L217.712 698.026L219.752 698.026L219.752 700.762L220.556 700.762L220.556 690.982L219.752 690.982L219.752 693.622ZM216.92 680.567L216.92 682.199C215.156 681.815 213.908 681.815 212.78 681.815L211.796 681.815L211.796 689.075L212.6 689.075L212.6 682.763L212.78 682.763C213.212 682.763 213.644 682.763 214.112 682.787L214.364 689.387L215.192 689.255L214.88 682.847C215.492 682.895 216.152 682.991 216.92 683.171L216.92 690.299L217.724 690.299L217.724 685.919L221.888 685.919L221.888 684.935L217.724 684.935L217.724 680.567L216.92 680.567ZM218.696 677.64L218.696 678.624L221.648 678.624L221.648 671.22L220.844 671.22L220.844 677.64L218.696 677.64ZM212.408 676.356L212.408 673.68L214.856 673.68L214.856 676.356L212.408 676.356ZM216.956 674.508L215.648 674.508L215.648 671.112L214.856 671.112L214.856 672.696L212.408 672.696L212.408 671.076L211.616 671.076L211.616 678.972L212.408 678.972L212.408 677.34L214.856 677.34L214.856 678.936L215.648 678.936L215.648 675.492L216.956 675.492L216.956 679.884L217.748 679.884L217.748 670.152L216.956 670.152L216.956 674.508ZM227.832 725.288L227.832 726.884L229.44 726.884C231.492 726.884 233.604 727.724 234.48 729.584L235.764 728.636C235.152 727.388 233.988 726.56 232.584 726.08C233.904 725.624 234.972 724.844 235.56 723.692L234.312 722.732C233.436 724.508 231.432 725.288 229.44 725.288L227.832 725.288ZM231.228 719.096L231.228 720.704L226.98 720.704L226.98 722.288L238.032 722.288L238.032 720.704L232.548 720.704L232.548 719.096L231.228 719.096ZM236.844 713.949C236.844 715.425 236.592 716.181 236.028 716.181C235.464 716.181 235.224 715.425 235.224 713.949C235.224 712.473 235.464 711.717 236.028 711.717C236.592 711.717 236.844 712.473 236.844 713.949ZM234.024 713.949C234.024 716.337 234.744 717.777 236.028 717.777C237.312 717.777 238.044 716.337 238.044 713.949C238.044 711.561 237.312 710.109 236.028 710.109C234.744 710.109 234.024 711.561 234.024 713.949ZM231.3 715.089C231.348 714.729 231.372 714.345 231.372 713.925C231.372 713.517 231.348 713.133 231.312 712.785L232.224 712.785L232.224 715.089L231.3 715.089ZM228.348 713.925C228.348 712.413 228.648 711.549 229.272 711.549C229.872 711.549 230.184 712.413 230.184 713.925C230.184 715.425 229.872 716.289 229.272 716.289C228.648 716.289 228.348 715.425 228.348 713.925ZM232.224 711.201L230.904 711.201C230.544 710.385 229.992 709.917 229.272 709.917C227.952 709.917 227.148 711.477 227.148 713.925C227.148 716.361 227.952 717.921 229.272 717.921C229.98 717.921 230.532 717.465 230.892 716.673L232.224 716.673L232.224 718.917L233.472 718.917L233.472 708.933L232.224 708.933L232.224 711.201ZM229.668 704.074C228.996 704.074 228.612 703.558 228.612 702.802C228.612 702.046 228.996 701.506 229.668 701.506C230.34 701.506 230.724 702.046 230.724 702.802C230.724 703.558 230.34 704.074 229.668 704.074ZM232.404 699.49C232.524 700.282 232.584 701.146 232.632 701.998L231.84 701.998C231.576 700.822 230.748 700.042 229.668 700.042C228.348 700.042 227.424 701.194 227.424 702.802C227.424 704.398 228.348 705.55 229.668 705.55C230.76 705.55 231.588 704.758 231.84 703.582L232.692 703.582C232.716 704.494 232.716 705.37 232.716 706.126L233.976 705.934C233.976 704.11 233.94 701.626 233.52 699.394L232.404 699.49ZM234.696 703.102L234.696 704.686L237.84 704.686L237.84 696.958L236.58 696.958L236.58 703.102L234.696 703.102ZM230.448 697.33L226.98 697.33L226.98 698.914L235.416 698.914L235.416 697.33L231.756 697.33L231.756 695.938L230.448 695.938L230.448 697.33ZM233.832 691.559L233.832 689.627L235.524 689.627L235.524 691.559L233.832 691.559ZM235.524 688.067L233.832 688.067L233.832 686.519L232.572 686.519L232.572 692.927L231.36 692.927L231.36 686.771L227.688 686.771L227.688 694.511L228.948 694.511L228.948 688.331L230.124 688.331L230.124 694.499L233.832 694.499L233.832 693.119L235.524 693.119L235.524 695.663L236.82 695.663L236.82 685.643L235.524 685.643L235.524 688.067Z" fill="white"/>
</g>
<path d="M131.936 727.348H122.694V697.926L113.616 700.579V693.579L131.089 687.536H131.936V727.348Z" fill="#2394FD"/>
<path d="M152.64 717.47C149.74 716.61 148.48 714.55 148.44 712.45H152.04V710.33H142.08V712.45H145.74C145.7 714.75 144.38 717.09 141.4 718.09L142.72 720.15C144.88 719.45 146.34 717.99 147.16 716.17C147.96 717.69 149.36 718.91 151.38 719.51L152.64 717.47ZM150.14 725.51C147.78 725.51 146.52 725.01 146.52 723.97C146.52 722.91 147.78 722.41 150.14 722.41C152.48 722.41 153.74 722.91 153.74 723.97C153.74 725.01 152.48 725.51 150.14 725.51ZM150.14 720.37C146.3 720.37 143.9 721.71 143.9 723.97C143.9 726.21 146.3 727.53 150.14 727.53C153.96 727.53 156.36 726.21 156.36 723.97C156.36 721.71 153.96 720.37 150.14 720.37ZM156.16 713.35V709.11H153.52V720.05H156.16V715.51H158.6V713.35H156.16Z" fill="#2394FD"/>
<line x1="73" y1="814" x2="244" y2="814" stroke="#FFFBA0" stroke-width="10"/>
<line x1="84" y1="840" x2="235" y2="840" stroke="#FFFBA0" stroke-width="10"/>
<path d="M71.6377 795.483C68.9697 795.702 66.1918 796.258 63.5305 796.178C62.4113 796.144 60.8832 795.826 59.7747 796.293C59.5282 796.397 60.1635 796.643 60.3902 796.762C61.253 797.214 62.1203 797.656 62.9728 798.128C64.9846 799.244 66.9553 800.443 68.9467 801.598C69.3812 801.85 70.633 802.648 70.2974 802.258C69.5879 801.435 68.7226 800.802 68.04 799.932C66.9107 798.493 66.0241 796.931 65.3104 795.19C64.8768 794.133 64.5173 792.712 63.8188 791.822C63.4681 791.375 63.9416 793.024 64.0368 793.617C64.5115 796.57 63.9333 799.174 63.6942 802.132C63.5854 803.477 63.6992 803.837 64.7695 802.843C66.7943 800.963 68.4336 798.668 70.3209 796.628C71.1292 795.754 71.5133 795.441 72.4712 795.766" stroke="#D66363" stroke-linecap="round"/>
<path d="M82.6429 801.256H79.3789V799.704H77.2669V801.256H73.9709V802.92H82.6429V801.256ZM76.7229 806.264C76.7229 805.512 77.3629 805.096 78.3229 805.096C79.2829 805.096 79.9229 805.512 79.9229 806.264C79.9229 807.048 79.2829 807.464 78.3229 807.464C77.3629 807.464 76.7229 807.048 76.7229 806.264ZM79.3789 808.936C80.9149 808.616 81.9229 807.624 81.9229 806.264C81.9229 804.616 80.4349 803.496 78.3229 803.496C76.2109 803.496 74.7229 804.616 74.7229 806.264C74.7229 807.624 75.7309 808.616 77.2669 808.936V810.184C75.9709 810.216 74.7549 810.216 73.6989 810.216L73.9549 811.928C76.4509 811.928 79.7629 811.928 82.8669 811.32L82.7069 809.8C81.6509 809.96 80.5149 810.04 79.3789 810.104V808.936ZM87.4109 805.64H85.5709V799.64H83.4589V814.376H85.5709V807.384H87.4109V805.64ZM92.7857 806.36H89.9857V802.472H92.7857V806.36ZM97.5057 803.64V805.128H94.8497V803.64H97.5057ZM94.8497 806.808H97.5057V810.376H99.6177V799.64H97.5057V801.96H94.8497V800.824H87.9057V808.024H94.8497V806.808ZM92.0017 812.44V809.368H89.8897V814.12H99.9377V812.44H92.0017ZM113.537 799.624V814.408H115.649V799.624H113.537ZM107.729 800.664C105.505 800.664 103.857 802.68 103.857 805.912C103.857 809.16 105.505 811.192 107.729 811.192C109.953 811.192 111.601 809.16 111.601 805.912C111.601 802.68 109.953 800.664 107.729 800.664ZM107.729 802.568C108.817 802.568 109.569 803.736 109.569 805.912C109.569 808.104 108.817 809.272 107.729 809.272C106.641 809.272 105.889 808.104 105.889 805.912C105.889 803.736 106.641 802.568 107.729 802.568ZM123.504 812.792C121.536 812.792 120.528 812.456 120.528 811.688C120.528 810.92 121.536 810.568 123.504 810.568C125.472 810.568 126.48 810.92 126.48 811.688C126.48 812.456 125.472 812.792 123.504 812.792ZM123.504 808.968C120.32 808.968 118.4 809.944 118.4 811.688C118.4 813.416 120.32 814.392 123.504 814.392C126.688 814.392 128.624 813.416 128.624 811.688C128.624 809.944 126.688 808.968 123.504 808.968ZM124.608 806.568V805.352H128.704V803.672H120.608V801.944H128.624V800.264H118.512V805.352H122.496V806.568H116.896V808.248H130.224V806.568H124.608ZM136.03 800.776H133.918V802.92C133.918 805.784 132.702 808.632 130.126 809.736L131.39 811.48C133.15 810.648 134.35 809.064 135.006 807.096C135.662 808.904 136.798 810.36 138.494 811.128L139.694 809.416C137.198 808.344 136.03 805.656 136.03 802.92V800.776ZM140.414 799.624V814.408H142.526V799.624H140.414ZM147.869 806.936C150.445 806.584 152.253 805.48 153.133 803.976C154.013 805.48 155.821 806.584 158.397 806.936L159.149 805.288C156.157 804.92 154.605 803.48 154.397 802.072H158.573V800.392H147.645V802.072H151.885C151.677 803.48 150.109 804.92 147.101 805.288L147.869 806.936ZM159.789 807.784H146.477V809.464H152.029V814.408H154.141V809.464H159.789V807.784ZM169.452 804.088H163.612V801.912H169.452V804.088ZM171.532 800.264H161.532V805.752H171.532V800.264ZM163.548 809.848H161.436V814.12H171.756V812.44H163.548V809.848ZM159.884 806.92V808.584H165.692V811.096H167.804V808.584H173.228V806.92H159.884ZM185.579 803.24H179.835V802.376H185.579V803.24ZM187.675 799.864H185.579V800.84H179.835V799.864H177.739V804.792H187.675V799.864ZM189.371 807.24V805.576H176.043V807.24H181.627V808.152H177.563V809.704H185.659V810.44H177.579V814.264H188.123V812.696H179.675V811.896H187.739V808.152H183.739V807.24H189.371ZM190.154 801.144V802.856H194.97C194.586 806.12 192.762 808.456 189.338 810.216L190.522 811.832C195.418 809.352 197.098 805.56 197.098 801.144H190.154ZM203.082 805.256H201.018V799.624H198.906V814.344H201.018V807H203.082V805.256ZM207.177 809.64C206.185 809.64 205.449 808.968 205.449 807.848C205.449 806.728 206.185 806.04 207.177 806.04C208.169 806.04 208.889 806.728 208.889 807.832C208.889 808.968 208.169 809.64 207.177 809.64ZM207.177 804.328C205.033 804.328 203.433 805.784 203.433 807.832C203.433 809.912 205.033 811.368 207.177 811.368C209.305 811.368 210.889 809.912 210.889 807.832C210.889 805.784 209.305 804.328 207.177 804.328ZM208.217 799.896H206.105V801.816H202.841V803.496H211.417V801.816H208.217V799.896ZM216.601 805.4H214.489V799.64H212.377V814.376H214.489V807.144H216.601V805.4ZM216.36 810.904V812.632H229.704V810.904H216.36ZM217.768 800.792V808.072H228.248V800.792H217.768ZM226.184 802.456V806.408H219.832V802.456H226.184ZM237.51 811.032V808.84H241.974V807.144H233.43V805.496H241.638V800.584H231.318V802.264H239.558V803.848H231.334V808.84H235.398V811.032H229.798V812.76H243.142V811.032H237.51ZM92.9678 833.57C92.9678 834.633 92.7959 835.557 92.4522 836.344C92.1084 837.125 91.6319 837.753 91.0225 838.227L92.9131 839.711L91.4209 841.031L88.9991 839.086C88.723 839.133 88.4366 839.156 88.1397 839.156C87.197 839.156 86.3558 838.93 85.6162 838.477C84.8767 838.023 84.3037 837.378 83.8975 836.539C83.4912 835.695 83.2855 834.727 83.2803 833.633V833.07C83.2803 831.951 83.4808 830.966 83.8819 830.117C84.2881 829.263 84.8584 828.609 85.5928 828.156C86.3324 827.698 87.1761 827.469 88.1241 827.469C89.072 827.469 89.9131 827.698 90.6475 828.156C91.3871 828.609 91.9574 829.263 92.3584 830.117C92.7647 830.966 92.9678 831.948 92.9678 833.062V833.57ZM90.5928 833.055C90.5928 831.862 90.3793 830.956 89.9522 830.336C89.5251 829.716 88.9157 829.406 88.1241 829.406C87.3376 829.406 86.7308 829.714 86.3037 830.328C85.8767 830.938 85.6605 831.833 85.6553 833.016V833.57C85.6553 834.732 85.8689 835.633 86.2959 836.273C86.723 836.914 87.3376 837.234 88.1397 837.234C88.9261 837.234 89.5303 836.927 89.9522 836.312C90.3741 835.693 90.5876 834.792 90.5928 833.609V833.055ZM97.6175 834.836H95.7503V839H93.4066V827.625H97.6331C98.9769 827.625 100.013 827.924 100.743 828.523C101.472 829.122 101.836 829.969 101.836 831.062C101.836 831.839 101.667 832.487 101.328 833.008C100.995 833.523 100.487 833.935 99.805 834.242L102.266 838.891V839H99.7503L97.6175 834.836ZM95.7503 832.938H97.6409C98.2295 832.938 98.6852 832.789 99.0081 832.492C99.331 832.19 99.4925 831.776 99.4925 831.25C99.4925 830.714 99.3389 830.292 99.0316 829.984C98.7295 829.677 98.2633 829.523 97.6331 829.523H95.7503V832.938ZM114.898 832.568C111.57 832.008 109.746 829.72 109.746 827.56V826.504H107.49V827.56C107.49 829.672 105.65 832.008 102.338 832.568L103.234 834.344C105.794 833.848 107.666 832.408 108.61 830.536C109.554 832.408 111.442 833.832 114.002 834.344L114.898 832.568ZM102.018 836.872V838.584H115.362V836.872H102.018ZM124.752 831.624H126.016V836.712H128.016V825.64H126.016V829.928H124.752V825.912H122.784V836.296H124.752V831.624ZM116.144 826.872V828.552H119.824C119.776 828.952 119.696 829.32 119.584 829.688L115.52 829.88L115.792 831.56L118.848 831.224C118.128 832.232 117.008 833.064 115.36 833.768L116.352 835.256C120.448 833.464 121.92 830.728 121.92 826.872H116.144ZM120.128 838.44V835.432H118.016V840.12H128.416V838.44H120.128ZM144.224 827.176H139.312V825.624H137.2V827.176H132.24V828.824H144.224V827.176ZM141.12 831.944C141.12 832.6 140.176 832.904 138.256 832.904C136.336 832.904 135.408 832.6 135.408 831.944C135.408 831.256 136.336 830.968 138.256 830.968C140.176 830.968 141.12 831.256 141.12 831.944ZM133.216 831.944C133.216 833.56 135.104 834.472 138.256 834.472C141.408 834.472 143.312 833.56 143.312 831.944C143.312 830.312 141.408 829.4 138.256 829.4C135.104 829.4 133.216 830.312 133.216 831.944ZM144.944 835.176H131.6V836.872H137.2V840.392H139.312V836.872H144.944V835.176ZM149.039 831.944C151.807 831.672 153.615 830.616 154.399 829.192C155.167 830.616 156.991 831.672 159.743 831.944L160.495 830.296C157.647 830.04 156.207 828.984 155.903 827.912H159.855V826.248H148.943V827.912H152.895C152.575 828.984 151.135 830.024 148.303 830.296L149.039 831.944ZM149.215 836.936H157.343V840.392H159.455V835.272H149.215V836.936ZM147.727 832.536V834.216H161.071V832.536H147.727ZM166.893 826.776H164.781V828.92C164.781 831.784 163.565 834.632 160.989 835.736L162.253 837.48C164.013 836.648 165.213 835.064 165.869 833.096C166.525 834.904 167.661 836.36 169.357 837.128L170.557 835.416C168.061 834.344 166.893 831.656 166.893 828.92V826.776ZM171.277 825.624V840.408H173.389V825.624H171.277ZM178.733 832.936C181.309 832.584 183.117 831.48 183.997 829.976C184.877 831.48 186.685 832.584 189.261 832.936L190.013 831.288C187.021 830.92 185.469 829.48 185.261 828.072H189.437V826.392H178.509V828.072H182.749C182.541 829.48 180.973 830.92 177.965 831.288L178.733 832.936ZM190.653 833.784H177.341V835.464H182.893V840.408H185.005V835.464H190.653V833.784ZM200.315 830.088H194.475V827.912H200.315V830.088ZM202.395 826.264H192.395V831.752H202.395V826.264ZM194.411 835.848H192.299V840.12H202.619V838.44H194.411V835.848ZM190.747 832.92V834.584H196.555V837.096H198.667V834.584H204.091V832.92H190.747ZM219.178 825.656H217.066V833.192H219.178V825.656ZM210.73 828.168H212.282V831.144C211.77 831.176 211.242 831.192 210.73 831.208V828.168ZM216.026 830.872C215.466 830.936 214.906 830.984 214.314 831.032V828.168H215.466V826.536H207.53V828.168H208.698V831.24L207.162 831.256L207.37 832.92C209.914 832.92 213.226 832.84 216.122 832.36L216.026 830.872ZM211.322 838.632V837.752H219.178V833.784H209.21V835.4H217.082V836.248H209.226V840.264H219.594V838.632H211.322ZM233.193 830.872C229.849 830.408 228.153 828.488 228.153 826.776V826.072H225.897V826.776C225.897 828.504 224.217 830.408 220.857 830.872L221.657 832.568C224.233 832.184 226.089 830.984 227.033 829.4C227.977 830.984 229.817 832.184 232.393 832.568L233.193 830.872ZM233.673 833.656H220.361V835.368H225.913V840.392H228.025V835.368H233.673V833.656Z" fill="#D66363"/>
</svg>
