<svg width="228" height="119" viewBox="0 0 228 119" fill="none" xmlns="http://www.w3.org/2000/svg">
<mask id="path-1-inside-1_134_3962" fill="white">
<path fill-rule="evenodd" clip-rule="evenodd" d="M15 0C6.71573 0 0 6.71573 0 15V44.625C6.62742 44.625 12 51.2848 12 59.5C12 67.7152 6.62742 74.375 0 74.375V104C0 112.284 6.71573 119 15 119H213C221.284 119 228 112.284 228 104V74.375C221.373 74.375 216 67.7152 216 59.5C216 51.2848 221.373 44.625 228 44.625V15C228 6.71573 221.284 0 213 0H15Z"/>
</mask>
<path fill-rule="evenodd" clip-rule="evenodd" d="M15 0C6.71573 0 0 6.71573 0 15V44.625C6.62742 44.625 12 51.2848 12 59.5C12 67.7152 6.62742 74.375 0 74.375V104C0 112.284 6.71573 119 15 119H213C221.284 119 228 112.284 228 104V74.375C221.373 74.375 216 67.7152 216 59.5C216 51.2848 221.373 44.625 228 44.625V15C228 6.71573 221.284 0 213 0H15Z" fill="white"/>
<path d="M0 44.625H-1V45.625H0V44.625ZM0 74.375V73.375H-1V74.375H0ZM228 74.375H229V73.375H228V74.375ZM228 44.625V45.625H229V44.625H228ZM-1 15V16.4812H1V15H-1ZM-1 19.4437V22.4063H1V19.4437H-1ZM-1 25.3688V28.3313H1V25.3688H-1ZM-1 31.2937V34.2563H1V31.2937H-1ZM-1 37.2187V40.1812H1V37.2187H-1ZM-1 43.1437V44.625H1V43.1437H-1ZM0 45.625C0.400771 45.625 0.796142 45.6521 1.18516 45.7048L1.45386 43.723C0.976238 43.6582 0.4911 43.625 0 43.625V45.625ZM3.4754 46.3344C4.20307 46.6409 4.90045 47.0425 5.5576 47.53L6.74919 45.9238C5.97033 45.346 5.1344 44.8631 4.2519 44.4913L3.4754 46.3344ZM7.3447 49.1803C7.87425 49.7804 8.35919 50.446 8.79079 51.1683L10.5077 50.1424C10.0153 49.3185 9.45831 48.5528 8.84433 47.857L7.3447 49.1803ZM9.87722 53.3944C10.1726 54.1512 10.4151 54.9477 10.5982 55.7762L12.5511 55.3446C12.346 54.4166 12.0736 53.5213 11.7404 52.6674L9.87722 53.3944ZM10.9557 58.248C10.985 58.6603 11 59.0778 11 59.5H13C13 59.0305 12.9833 58.5656 12.9507 58.1062L10.9557 58.248ZM11 59.5C11 59.9222 10.985 60.3397 10.9557 60.752L12.9507 60.8938C12.9833 60.4344 13 59.9695 13 59.5H11ZM10.5982 63.2238C10.4151 64.0523 10.1726 64.8487 9.87722 65.6056L11.7404 66.3326C12.0736 65.4787 12.346 64.5834 12.5511 63.6554L10.5982 63.2238ZM8.79079 67.8317C8.35919 68.554 7.87425 69.2196 7.3447 69.8197L8.84434 71.143C9.45831 70.4472 10.0153 69.6815 10.5076 68.8576L8.79079 67.8317ZM5.5576 71.47C4.90045 71.9575 4.20307 72.3591 3.4754 72.6656L4.2519 74.5087C5.1344 74.1369 5.97034 73.654 6.74919 73.0762L5.5576 71.47ZM1.18516 73.2952C0.796143 73.3479 0.400772 73.375 0 73.375V75.375C0.491101 75.375 0.976239 75.3418 1.45386 75.277L1.18516 73.2952ZM-1 74.375V75.8563H1V74.375H-1ZM-1 78.8188V81.7813H1V78.8188H-1ZM-1 84.7438V87.7063H1V84.7438H-1ZM-1 90.6688V93.6313H1V90.6688H-1ZM-1 96.5938V99.5562H1V96.5938H-1ZM-1 102.519V104H1V102.519H-1ZM-1 104C-1 104.529 -0.974325 105.052 -0.924103 105.568L1.06649 105.374C1.02253 104.922 1 104.464 1 104H-1ZM-0.314842 108.646C-0.0080997 109.658 0.396196 110.628 0.886999 111.544L2.65003 110.6C2.22074 109.799 1.86732 108.951 1.59924 108.066L-0.314842 108.646ZM2.63174 114.151C3.29678 114.96 4.03971 115.703 4.84913 116.368L6.11878 114.823C5.41 114.241 4.7594 113.59 4.17705 112.881L2.63174 114.151ZM7.45563 118.113C8.37197 118.604 9.34185 119.008 10.3543 119.315L10.9342 117.401C10.0494 117.133 9.20142 116.779 8.39995 116.35L7.45563 118.113ZM13.4323 119.924C13.9484 119.974 14.4713 120 15 120V118C14.5361 118 14.0778 117.977 13.626 117.934L13.4323 119.924ZM15 120H16.5V118H15V120ZM19.5 120H22.5V118H19.5V120ZM25.5 120H28.5V118H25.5V120ZM31.5 120H34.5V118H31.5V120ZM37.5 120H40.5V118H37.5V120ZM43.5 120H46.5V118H43.5V120ZM49.5 120H52.5V118H49.5V120ZM55.5 120H58.5V118H55.5V120ZM61.5 120H64.5V118H61.5V120ZM67.5 120H70.5V118H67.5V120ZM73.5 120H76.5V118H73.5V120ZM79.5 120H82.5V118H79.5V120ZM85.5 120H88.5V118H85.5V120ZM91.5 120H94.5V118H91.5V120ZM97.5 120H100.5V118H97.5V120ZM103.5 120H106.5V118H103.5V120ZM109.5 120H112.5V118H109.5V120ZM115.5 120H118.5V118H115.5V120ZM121.5 120H124.5V118H121.5V120ZM127.5 120H130.5V118H127.5V120ZM133.5 120H136.5V118H133.5V120ZM139.5 120H142.5V118H139.5V120ZM145.5 120H148.5V118H145.5V120ZM151.5 120H154.5V118H151.5V120ZM157.5 120H160.5V118H157.5V120ZM163.5 120H166.5V118H163.5V120ZM169.5 120H172.5V118H169.5V120ZM175.5 120H178.5V118H175.5V120ZM181.5 120H184.5V118H181.5V120ZM187.5 120H190.5V118H187.5V120ZM193.5 120H196.5V118H193.5V120ZM199.5 120H202.5V118H199.5V120ZM205.5 120H208.5V118H205.5V120ZM211.5 120H213V118H211.5V120ZM213 120C213.529 120 214.052 119.974 214.568 119.924L214.374 117.934C213.922 117.977 213.464 118 213 118V120ZM217.646 119.315C218.658 119.008 219.628 118.604 220.544 118.113L219.6 116.35C218.799 116.779 217.951 117.133 217.066 117.401L217.646 119.315ZM223.151 116.368C223.96 115.703 224.703 114.96 225.368 114.151L223.823 112.881C223.241 113.59 222.59 114.241 221.881 114.823L223.151 116.368ZM227.113 111.544C227.604 110.628 228.008 109.658 228.315 108.646L226.401 108.066C226.133 108.951 225.779 109.799 225.35 110.6L227.113 111.544ZM228.924 105.568C228.974 105.052 229 104.529 229 104H227C227 104.464 226.977 104.922 226.934 105.374L228.924 105.568ZM229 104V102.519H227V104H229ZM229 99.5562V96.5937H227V99.5562H229ZM229 93.6312V90.6687H227V93.6312H229ZM229 87.7062V84.7437H227V87.7062H229ZM229 81.7812V78.8188H227V81.7812H229ZM229 75.8563V74.375H227V75.8563H229ZM228 73.375C227.599 73.375 227.204 73.3479 226.815 73.2952L226.546 75.277C227.024 75.3418 227.509 75.375 228 75.375V73.375ZM224.525 72.6656C223.797 72.3591 223.1 71.9575 222.442 71.47L221.251 73.0762C222.03 73.654 222.866 74.1369 223.748 74.5087L224.525 72.6656ZM220.655 69.8197C220.126 69.2196 219.641 68.554 219.209 67.8317L217.492 68.8576C217.985 69.6815 218.542 70.4472 219.156 71.143L220.655 69.8197ZM218.123 65.6056C217.827 64.8488 217.585 64.0523 217.402 63.2238L215.449 63.6554C215.654 64.5834 215.926 65.4787 216.26 66.3326L218.123 65.6056ZM217.044 60.752C217.015 60.3397 217 59.9222 217 59.5H215C215 59.9695 215.017 60.4344 215.049 60.8938L217.044 60.752ZM217 59.5C217 59.0778 217.015 58.6603 217.044 58.248L215.049 58.1062C215.017 58.5656 215 59.0305 215 59.5H217ZM217.402 55.7762C217.585 54.9477 217.827 54.1512 218.123 53.3944L216.26 52.6674C215.926 53.5213 215.654 54.4166 215.449 55.3446L217.402 55.7762ZM219.209 51.1683C219.641 50.446 220.126 49.7804 220.655 49.1803L219.156 47.857C218.542 48.5528 217.985 49.3185 217.492 50.1424L219.209 51.1683ZM222.442 47.53C223.1 47.0425 223.797 46.6409 224.525 46.3344L223.748 44.4913C222.866 44.8631 222.03 45.346 221.251 45.9238L222.442 47.53ZM226.815 45.7048C227.204 45.6521 227.599 45.625 228 45.625V43.625C227.509 43.625 227.024 43.6582 226.546 43.723L226.815 45.7048ZM229 44.625V43.1438H227V44.625H229ZM229 40.1812V37.2187H227V40.1812H229ZM229 34.2562V31.2937H227V34.2562H229ZM229 28.3313V25.3687H227V28.3313H229ZM229 22.4063V19.4438H227V22.4063H229ZM229 16.4813V15H227V16.4813H229ZM229 15C229 14.4713 228.974 13.9484 228.924 13.4323L226.934 13.626C226.977 14.0778 227 14.5361 227 15H229ZM228.315 10.3543C228.008 9.34185 227.604 8.37197 227.113 7.45564L225.35 8.39995C225.779 9.20143 226.133 10.0494 226.401 10.9342L228.315 10.3543ZM225.368 4.84913C224.703 4.03971 223.96 3.29678 223.151 2.63175L221.881 4.17705C222.59 4.7594 223.241 5.41001 223.823 6.11878L225.368 4.84913ZM220.544 0.887001C219.628 0.396197 218.658 -0.00809853 217.646 -0.314841L217.066 1.59924C217.951 1.86732 218.799 2.22075 219.6 2.65003L220.544 0.887001ZM214.568 -0.924103C214.052 -0.974325 213.529 -1 213 -1V1C213.464 1 213.922 1.02253 214.374 1.06649L214.568 -0.924103ZM213 -1H211.5V1H213V-1ZM208.5 -1H205.5V1H208.5V-1ZM202.5 -1H199.5V1H202.5V-1ZM196.5 -1H193.5V1H196.5V-1ZM190.5 -1H187.5V1H190.5V-1ZM184.5 -1H181.5V1H184.5V-1ZM178.5 -1H175.5V1H178.5V-1ZM172.5 -1H169.5V1H172.5V-1ZM166.5 -1H163.5V1H166.5V-1ZM160.5 -1H157.5V1H160.5V-1ZM154.5 -1H151.5V1H154.5V-1ZM148.5 -1H145.5V1H148.5V-1ZM142.5 -1H139.5V1H142.5V-1ZM136.5 -1H133.5V1H136.5V-1ZM130.5 -1H127.5V1H130.5V-1ZM124.5 -1H121.5V1H124.5V-1ZM118.5 -1H115.5V1H118.5V-1ZM112.5 -1H109.5V1H112.5V-1ZM106.5 -1H103.5V1H106.5V-1ZM100.5 -1H97.5V1H100.5V-1ZM94.5 -1H91.5V1H94.5V-1ZM88.5 -1H85.5V1H88.5V-1ZM82.5 -1H79.5V1H82.5V-1ZM76.5 -1H73.5V1H76.5V-1ZM70.5 -1H67.5V1H70.5V-1ZM64.5 -1H61.5V1H64.5V-1ZM58.5 -1H55.5V1H58.5V-1ZM52.5 -1H49.5V1H52.5V-1ZM46.5 -1H43.5V1H46.5V-1ZM40.5 -1H37.5V1H40.5V-1ZM34.5 -1H31.5V1H34.5V-1ZM28.5 -1H25.5V1H28.5V-1ZM22.5 -1H19.5V1H22.5V-1ZM16.5 -1H15V1H16.5V-1ZM15 -1C14.4713 -1 13.9484 -0.974325 13.4323 -0.924103L13.626 1.06649C14.0778 1.02253 14.5361 1 15 1V-1ZM10.3543 -0.314841C9.34185 -0.00809927 8.37197 0.396196 7.45564 0.887L8.39995 2.65003C9.20143 2.22074 10.0494 1.86732 10.9342 1.59924L10.3543 -0.314841ZM4.84913 2.63174C4.03971 3.29678 3.29678 4.03971 2.63175 4.84913L4.17705 6.11878C4.7594 5.41 5.41001 4.7594 6.11878 4.17705L4.84913 2.63174ZM0.887001 7.45563C0.396197 8.37197 -0.00809852 9.34185 -0.314841 10.3543L1.59924 10.9342C1.86732 10.0494 2.22075 9.20142 2.65003 8.39995L0.887001 7.45563ZM-0.924103 13.4323C-0.974325 13.9484 -1 14.4713 -1 15H1C1 14.5361 1.02253 14.0778 1.06649 13.626L-0.924103 13.4323ZM0 44.625H-2V46.625H0V44.625ZM0 74.375V72.375H-2V74.375H0ZM228 74.375H230V72.375H228V74.375ZM228 44.625V46.625H230V44.625H228ZM-2 15V16.4812H2V15H-2ZM-2 19.4437V22.4063H2V19.4437H-2ZM-2 25.3688V28.3313H2V25.3688H-2ZM-2 31.2937V34.2563H2V31.2937H-2ZM-2 37.2187V40.1812H2V37.2187H-2ZM-2 43.1437V44.625H2V43.1437H-2ZM0 46.625C0.355607 46.625 0.706094 46.649 1.05081 46.6958L1.58821 42.732C1.06629 42.6613 0.536265 42.625 0 42.625V46.625ZM3.08714 47.2559C3.7374 47.5299 4.3655 47.8908 4.96181 48.3332L7.34498 45.1206C6.50528 44.4977 5.60006 43.9741 4.64015 43.5697L3.08714 47.2559ZM6.59489 49.8419C7.08222 50.3942 7.53112 51.0097 7.93236 51.6812L11.3661 49.6295C10.8434 48.7547 10.2503 47.939 9.59415 47.1953L6.59489 49.8419ZM8.94564 53.7579C9.22203 54.4662 9.44963 55.2132 9.62175 55.992L13.5275 55.1288C13.3114 54.151 13.0242 53.2063 12.672 52.3038L8.94564 53.7579ZM9.95823 58.319C9.98586 58.7076 10 59.1015 10 59.5H14C14 59.0069 13.9825 58.5183 13.9482 58.0353L9.95823 58.319ZM10 59.5C10 59.8985 9.98586 60.2924 9.95823 60.681L13.9482 60.9647C13.9825 60.4817 14 59.9931 14 59.5H10ZM9.62175 63.008C9.44963 63.7868 9.22203 64.5338 8.94564 65.2421L12.672 66.6962C13.0242 65.7937 13.3114 64.849 13.5275 63.8712L9.62175 63.008ZM7.93236 67.3188C7.53112 67.9903 7.08222 68.6058 6.59489 69.1581L9.59415 71.8047C10.2503 71.061 10.8434 70.2453 11.3661 69.3705L7.93236 67.3188ZM4.96181 70.6668C4.3655 71.1092 3.7374 71.4701 3.08715 71.7441L4.64015 75.4303C5.60006 75.0259 6.50528 74.5023 7.34498 73.8794L4.96181 70.6668ZM1.05081 72.3042C0.706095 72.351 0.355607 72.375 0 72.375V76.375C0.536265 76.375 1.06629 76.3387 1.58821 76.268L1.05081 72.3042ZM-2 74.375V75.8563H2V74.375H-2ZM-2 78.8188V81.7813H2V78.8188H-2ZM-2 84.7438V87.7063H2V84.7438H-2ZM-2 90.6688V93.6313H2V90.6688H-2ZM-2 96.5938V99.5562H2V96.5938H-2ZM-2 102.519V104H2V102.519H-2ZM-2 104C-2 104.561 -1.97275 105.116 -1.9194 105.665L2.06179 105.277C2.02095 104.857 2 104.431 2 104H-2ZM-1.27188 108.936C-0.945811 110.012 -0.516079 111.043 0.00548396 112.017L3.53155 110.128C3.13302 109.384 2.80504 108.597 2.55628 107.776L-1.27188 108.936ZM1.85909 114.786C2.56547 115.645 3.35456 116.435 4.2143 117.141L6.75361 114.05C6.09515 113.509 5.49071 112.905 4.94971 112.246L1.85909 114.786ZM6.98348 118.995C7.95724 119.516 8.9881 119.946 10.0643 120.272L11.2242 116.444C10.4031 116.195 9.61615 115.867 8.8721 115.468L6.98348 118.995ZM13.3354 120.919C13.8836 120.973 14.4389 121 15 121V117C14.5685 117 14.1425 116.979 13.7229 116.938L13.3354 120.919ZM15 121H16.5V117H15V121ZM19.5 121H22.5V117H19.5V121ZM25.5 121H28.5V117H25.5V121ZM31.5 121H34.5V117H31.5V121ZM37.5 121H40.5V117H37.5V121ZM43.5 121H46.5V117H43.5V121ZM49.5 121H52.5V117H49.5V121ZM55.5 121H58.5V117H55.5V121ZM61.5 121H64.5V117H61.5V121ZM67.5 121H70.5V117H67.5V121ZM73.5 121H76.5V117H73.5V121ZM79.5 121H82.5V117H79.5V121ZM85.5 121H88.5V117H85.5V121ZM91.5 121H94.5V117H91.5V121ZM97.5 121H100.5V117H97.5V121ZM103.5 121H106.5V117H103.5V121ZM109.5 121H112.5V117H109.5V121ZM115.5 121H118.5V117H115.5V121ZM121.5 121H124.5V117H121.5V121ZM127.5 121H130.5V117H127.5V121ZM133.5 121H136.5V117H133.5V121ZM139.5 121H142.5V117H139.5V121ZM145.5 121H148.5V117H145.5V121ZM151.5 121H154.5V117H151.5V121ZM157.5 121H160.5V117H157.5V121ZM163.5 121H166.5V117H163.5V121ZM169.5 121H172.5V117H169.5V121ZM175.5 121H178.5V117H175.5V121ZM181.5 121H184.5V117H181.5V121ZM187.5 121H190.5V117H187.5V121ZM193.5 121H196.5V117H193.5V121ZM199.5 121H202.5V117H199.5V121ZM205.5 121H208.5V117H205.5V121ZM211.5 121H213V117H211.5V121ZM213 121C213.561 121 214.116 120.973 214.665 120.919L214.277 116.938C213.857 116.979 213.431 117 213 117V121ZM217.936 120.272C219.012 119.946 220.043 119.516 221.017 118.995L219.128 115.468C218.384 115.867 217.597 116.195 216.776 116.444L217.936 120.272ZM223.786 117.141C224.645 116.435 225.435 115.645 226.141 114.786L223.05 112.246C222.509 112.905 221.905 113.509 221.246 114.05L223.786 117.141ZM227.995 112.017C228.516 111.043 228.946 110.012 229.272 108.936L225.444 107.776C225.195 108.597 224.867 109.384 224.468 110.128L227.995 112.017ZM229.919 105.665C229.973 105.116 230 104.561 230 104H226C226 104.431 225.979 104.857 225.938 105.277L229.919 105.665ZM230 104V102.519H226V104H230ZM230 99.5562V96.5937H226V99.5562H230ZM230 93.6312V90.6687H226V93.6312H230ZM230 87.7062V84.7437H226V87.7062H230ZM230 81.7812V78.8188H226V81.7812H230ZM230 75.8563V74.375H226V75.8563H230ZM228 72.375C227.644 72.375 227.294 72.351 226.949 72.3042L226.412 76.268C226.934 76.3387 227.464 76.375 228 76.375V72.375ZM224.913 71.7441C224.263 71.4701 223.635 71.1092 223.038 70.6668L220.655 73.8794C221.495 74.5023 222.4 75.0259 223.36 75.4303L224.913 71.7441ZM221.405 69.1581C220.918 68.6058 220.469 67.9903 220.068 67.3188L216.634 69.3705C217.157 70.2453 217.75 71.061 218.406 71.8047L221.405 69.1581ZM219.054 65.2421C218.778 64.5338 218.55 63.7868 218.378 63.008L214.472 63.8712C214.689 64.849 214.976 65.7937 215.328 66.6962L219.054 65.2421ZM218.042 60.681C218.014 60.2924 218 59.8985 218 59.5H214C214 59.9931 214.018 60.4817 214.052 60.9647L218.042 60.681ZM218 59.5C218 59.1015 218.014 58.7076 218.042 58.319L214.052 58.0353C214.018 58.5183 214 59.0069 214 59.5H218ZM218.378 55.992C218.55 55.2132 218.778 54.4662 219.054 53.7579L215.328 52.3038C214.976 53.2063 214.689 54.151 214.472 55.1288L218.378 55.992ZM220.068 51.6812C220.469 51.0097 220.918 50.3942 221.405 49.8419L218.406 47.1953C217.75 47.939 217.157 48.7547 216.634 49.6295L220.068 51.6812ZM223.038 48.3332C223.634 47.8908 224.263 47.5299 224.913 47.2559L223.36 43.5697C222.4 43.9741 221.495 44.4977 220.655 45.1206L223.038 48.3332ZM226.949 46.6958C227.294 46.649 227.644 46.625 228 46.625V42.625C227.464 42.625 226.934 42.6613 226.412 42.732L226.949 46.6958ZM230 44.625V43.1438H226V44.625H230ZM230 40.1812V37.2187H226V40.1812H230ZM230 34.2562V31.2937H226V34.2562H230ZM230 28.3313V25.3687H226V28.3313H230ZM230 22.4063V19.4438H226V22.4063H230ZM230 16.4813V15H226V16.4813H230ZM230 15C230 14.4389 229.973 13.8836 229.919 13.3354L225.938 13.7229C225.979 14.1425 226 14.5685 226 15H230ZM229.272 10.0643C228.946 8.9881 228.516 7.95724 227.995 6.98348L224.468 8.8721C224.867 9.61615 225.195 10.4031 225.444 11.2242L229.272 10.0643ZM226.141 4.2143C225.435 3.35456 224.645 2.56547 223.786 1.85909L221.246 4.94971C221.905 5.49071 222.509 6.09515 223.05 6.75361L226.141 4.2143ZM221.017 0.005486C220.043 -0.516077 219.012 -0.94581 217.936 -1.27188L216.776 2.55628C217.597 2.80504 218.384 3.13302 219.128 3.53155L221.017 0.005486ZM214.665 -1.9194C214.116 -1.97275 213.561 -2 213 -2V2C213.431 2 213.857 2.02095 214.277 2.06179L214.665 -1.9194ZM213 -2H211.5V2H213V-2ZM208.5 -2H205.5V2H208.5V-2ZM202.5 -2H199.5V2H202.5V-2ZM196.5 -2H193.5V2H196.5V-2ZM190.5 -2H187.5V2H190.5V-2ZM184.5 -2H181.5V2H184.5V-2ZM178.5 -2H175.5V2H178.5V-2ZM172.5 -2H169.5V2H172.5V-2ZM166.5 -2H163.5V2H166.5V-2ZM160.5 -2H157.5V2H160.5V-2ZM154.5 -2H151.5V2H154.5V-2ZM148.5 -2H145.5V2H148.5V-2ZM142.5 -2H139.5V2H142.5V-2ZM136.5 -2H133.5V2H136.5V-2ZM130.5 -2H127.5V2H130.5V-2ZM124.5 -2H121.5V2H124.5V-2ZM118.5 -2H115.5V2H118.5V-2ZM112.5 -2H109.5V2H112.5V-2ZM106.5 -2H103.5V2H106.5V-2ZM100.5 -2H97.5V2H100.5V-2ZM94.5 -2H91.5V2H94.5V-2ZM88.5 -2H85.5V2H88.5V-2ZM82.5 -2H79.5V2H82.5V-2ZM76.5 -2H73.5V2H76.5V-2ZM70.5 -2H67.5V2H70.5V-2ZM64.5 -2H61.5V2H64.5V-2ZM58.5 -2H55.5V2H58.5V-2ZM52.5 -2H49.5V2H52.5V-2ZM46.5 -2H43.5V2H46.5V-2ZM40.5 -2H37.5V2H40.5V-2ZM34.5 -2H31.5V2H34.5V-2ZM28.5 -2H25.5V2H28.5V-2ZM22.5 -2H19.5V2H22.5V-2ZM16.5 -2H15V2H16.5V-2ZM15 -2C14.4389 -2 13.8836 -1.97275 13.3354 -1.9194L13.7229 2.06179C14.1425 2.02095 14.5685 2 15 2V-2ZM10.0643 -1.27188C8.9881 -0.945811 7.95724 -0.516078 6.98348 0.00548483L8.8721 3.53155C9.61615 3.13302 10.4031 2.80504 11.2242 2.55628L10.0643 -1.27188ZM4.2143 1.85909C3.35456 2.56547 2.56547 3.35456 1.85909 4.2143L4.94971 6.75361C5.49071 6.09515 6.09515 5.49071 6.75361 4.94971L4.2143 1.85909ZM0.00548603 6.98348C-0.516077 7.95724 -0.94581 8.9881 -1.27188 10.0643L2.55628 11.2242C2.80504 10.4031 3.13302 9.61615 3.53155 8.8721L0.00548603 6.98348ZM-1.9194 13.3354C-1.97275 13.8836 -2 14.4389 -2 15H2C2 14.5685 2.02095 14.1425 2.06179 13.7229L-1.9194 13.3354Z" fill="#DCDCDC" mask="url(#path-1-inside-1_134_3962)"/>
<path d="M56.3544 57.592C52.7784 56.44 51.2664 53.776 51.2664 51.136V51.112H55.5864V48.592H43.7064V51.112H48.0264V51.136C48.0264 53.92 46.4664 56.848 42.8184 58.048L44.4264 60.544C46.9944 59.68 48.7224 57.928 49.7064 55.768C50.6664 57.688 52.2984 59.224 54.6504 60.016L56.3544 57.592ZM49.4424 61.6H46.2744V68.68H61.3224V66.16H49.4424V61.6ZM60.5304 53.392V46.96H57.3624V63.16H60.5304V55.984H63.4584V53.392H60.5304ZM75.6246 58.336C75.7206 57.736 75.7686 57.064 75.7686 56.368C75.7686 55.528 75.6966 54.736 75.5526 54.016H79.3926V58.336H75.6246ZM70.0566 61.408C68.4486 61.408 67.3446 59.656 67.3446 56.368C67.3446 53.104 68.4486 51.352 70.0566 51.352C71.6886 51.352 72.7926 53.104 72.7926 56.368C72.7926 59.656 71.6886 61.408 70.0566 61.408ZM79.3926 46.936V51.472H74.6886C73.7046 49.576 72.0486 48.496 70.0566 48.496C66.7686 48.496 64.3446 51.52 64.3446 56.368C64.3446 61.24 66.7686 64.288 70.0566 64.288C72.1926 64.312 73.8966 63.064 74.8806 60.904H79.3926V69.112H82.5606V46.936H79.3926ZM109.655 58.624H106.727C107.471 55.024 107.471 52.456 107.471 50.176V48.184H91.9912V50.704H104.423C104.423 51.424 104.423 52.168 104.375 52.96L91.2712 53.368L91.6312 56.056L104.159 55.408C104.039 56.392 103.871 57.472 103.607 58.624H89.6872V61.192H98.0632V69.016H101.231V61.192H109.655V58.624ZM116.133 62.44H112.965V68.68H128.277V66.16H116.133V62.44ZM118.245 50.296H122.781V54.016H118.245V50.296ZM122.085 58.504V56.512H128.565V54.016H125.925V50.296H128.733V47.776H112.293V50.296H115.101V54.016H112.437V56.512H118.917V58.504H110.541V61.024H130.509V58.504H122.085ZM178.031 56.992C174.551 55.96 173.039 53.488 172.991 50.968H177.311V48.424H165.359V50.968H169.751C169.703 53.728 168.119 56.536 164.543 57.736L166.127 60.208C168.719 59.368 170.471 57.616 171.455 55.432C172.415 57.256 174.095 58.72 176.519 59.44L178.031 56.992ZM175.031 66.64C172.199 66.64 170.687 66.04 170.687 64.792C170.687 63.52 172.199 62.92 175.031 62.92C177.839 62.92 179.351 63.52 179.351 64.792C179.351 66.04 177.839 66.64 175.031 66.64ZM175.031 60.472C170.423 60.472 167.543 62.08 167.543 64.792C167.543 67.48 170.423 69.064 175.031 69.064C179.615 69.064 182.495 67.48 182.495 64.792C182.495 62.08 179.615 60.472 175.031 60.472ZM182.255 52.048V46.96H179.087V60.088H182.255V54.64H185.183V52.048H182.255Z" fill="#DCDCDC"/>
<path d="M160.902 61.3789C160.902 65.2201 160.036 68.1823 158.305 70.2656C156.586 72.349 154.158 73.3906 151.02 73.3906C147.855 73.3906 145.408 72.3424 143.676 70.2461C141.944 68.1497 141.078 65.194 141.078 61.3789V56.1836C141.078 52.3424 141.938 49.3802 143.656 47.2969C145.388 45.2135 147.829 44.1719 150.98 44.1719C154.132 44.1719 156.573 45.2201 158.305 47.3164C160.036 49.4128 160.902 52.375 160.902 56.2031V61.3789ZM154.32 55.3438C154.32 53.2995 154.053 51.776 153.52 50.7734C152.986 49.7578 152.139 49.25 150.98 49.25C149.848 49.25 149.021 49.7188 148.5 50.6562C147.992 51.5938 147.719 53.013 147.68 54.9141V62.1797C147.68 64.3021 147.947 65.8581 148.48 66.8477C149.014 67.8242 149.861 68.3125 151.02 68.3125C152.139 68.3125 152.966 67.8372 153.5 66.8867C154.034 65.9232 154.307 64.4193 154.32 62.375V55.3438Z" fill="#DCDCDC"/>
</svg>
