<svg width="315" height="847" viewBox="0 0 315 847" fill="none" xmlns="http://www.w3.org/2000/svg">
<circle cx="11" cy="12" r="11" fill="black"/>
<path d="M12.8984 17.8333H10.2578V9.42706L7.66402 10.1849V8.18488L12.6562 6.45831H12.8984V17.8333Z" fill="white"/>
<path d="M38.664 4.08H37.368V6.656C37.368 9.264 35.736 12.016 33.672 13.072L34.456 14.128C36.072 13.264 37.4 11.472 38.024 9.376C38.68 11.344 39.976 13.024 41.496 13.84L42.312 12.8C40.296 11.792 38.664 9.184 38.664 6.656V4.08ZM47.256 8.656H44.888V2.848H43.576V17.184H44.888V9.744H47.256V8.656ZM54.5668 16.16C52.3108 16.16 50.9828 15.6 50.9828 14.624C50.9828 13.648 52.3108 13.088 54.5668 13.088C56.8068 13.088 58.1508 13.648 58.1508 14.624C58.1508 15.6 56.8068 16.16 54.5668 16.16ZM54.5668 12.064C51.4948 12.064 49.6548 12.976 49.6548 14.624C49.6548 16.272 51.4948 17.168 54.5668 17.168C57.6548 17.168 59.4788 16.272 59.4788 14.624C59.4788 12.976 57.6548 12.064 54.5668 12.064ZM52.5828 8.256C53.1748 8.352 53.8468 8.416 54.5668 8.416C55.3028 8.416 55.9748 8.352 56.5668 8.256V9.936H52.5828V8.256ZM50.8708 5.76C50.8708 4.72 52.2788 4.112 54.5668 4.112C56.8548 4.112 58.2628 4.72 58.2628 5.76C58.2628 6.784 56.8548 7.408 54.5668 7.408C52.2788 7.408 50.8708 6.784 50.8708 5.76ZM57.8628 9.936V7.904C58.9668 7.456 59.6068 6.72 59.6068 5.76C59.6068 4.08 57.6868 3.088 54.5668 3.088C51.4628 3.088 49.5268 4.08 49.5268 5.76C49.5268 6.736 50.1508 7.456 51.2868 7.92V9.936H48.0708V10.992H61.0628V9.936H57.8628ZM66.5335 12.896C65.2375 12.896 64.2935 11.968 64.2935 10.688C64.2935 9.392 65.2375 8.464 66.5335 8.464C67.8455 8.464 68.7895 9.392 68.7895 10.688C68.7895 11.968 67.8455 12.896 66.5335 12.896ZM66.5335 7.376C64.5175 7.376 63.0615 8.752 63.0615 10.688C63.0615 12.64 64.5175 13.984 66.5335 13.984C68.5815 13.984 70.0375 12.64 70.0375 10.688C70.0375 8.752 68.5815 7.376 66.5335 7.376ZM67.1735 3.008H65.8615V5.136H62.2455V6.192H70.7095V5.136H67.1735V3.008ZM75.7335 8.736H73.3815V2.848H72.0695V17.184H73.3815V9.84H75.7335V8.736ZM88.3243 2.848H87.0123V10.272H88.3243V2.848ZM85.2523 8.832C83.1243 8.128 81.6203 6.336 81.6203 4.352V3.264H80.3083V4.352C80.3083 6.432 78.8203 8.352 76.6603 9.104L77.3323 10.128C79.0283 9.52 80.3563 8.208 80.9803 6.56C81.6363 8.08 82.9483 9.28 84.5963 9.856L85.2523 8.832ZM80.3723 15.984V14.448H88.3403V10.992H79.0443V12.016H87.0443V13.456H79.0763V17.024H88.8203V15.984H80.3723ZM107.284 10.56H105.108C105.62 8.208 105.62 6.544 105.62 5.04V3.728H95.9397V4.8H104.356V5.04C104.356 5.616 104.356 6.192 104.324 6.816L95.5237 7.152L95.6997 8.256L104.244 7.84C104.18 8.656 104.052 9.536 103.812 10.56H94.3077V11.632H100.148V17.184H101.46V11.632H107.284V10.56ZM111.507 12.928H110.195V16.864H120.067V15.792H111.507V12.928ZM113.219 4.544H116.787V7.808H113.219V4.544ZM115.683 10.608V8.864H120.211V7.808H118.099V4.544H120.259V3.488H109.731V4.544H111.907V7.808H109.779V8.864H114.371V10.608H108.515V11.664H121.491V10.608H115.683ZM127.425 3.888C125.201 3.888 123.585 5.248 123.585 7.264C123.585 9.264 125.201 10.64 127.425 10.64C129.665 10.64 131.265 9.264 131.265 7.264C131.265 5.248 129.665 3.888 127.425 3.888ZM127.425 5.008C128.913 5.008 129.985 5.92 129.985 7.264C129.985 8.592 128.913 9.52 127.425 9.52C125.953 9.52 124.865 8.592 124.865 7.264C124.865 5.92 125.953 5.008 127.425 5.008ZM133.153 2.832V17.216H134.465V2.832H133.153ZM123.025 14.064C125.617 14.064 129.089 14.032 132.321 13.44L132.209 12.464C129.073 12.944 125.473 12.96 122.865 12.96L123.025 14.064ZM142.241 5.536H145.249V12.288H142.241V5.536ZM141.009 13.328H146.465V4.496H141.009V13.328ZM151.441 2.832V8.512H149.505V3.152H148.273V16.464H149.505V9.584H151.441V17.168H152.689V2.832H151.441ZM167.087 8.304C164.479 7.92 161.919 6.144 161.919 4.144V3.344H160.543V4.144C160.543 6.192 158.015 7.92 155.407 8.304L155.935 9.36C158.175 8.976 160.335 7.744 161.231 6C162.159 7.728 164.319 8.976 166.543 9.36L167.087 8.304ZM167.711 10.912H154.751V12H160.543V17.2H161.855V12H167.727L167.711 10.912ZM179.022 5.344H170.638V8.416H180.574V7.472H171.934V6.24H180.318V3.248H170.606V4.176H179.022V5.344ZM171.854 14.72H180.366V11.664H170.526V12.608H179.07V13.808H170.558V16.992H180.814V16.048H171.854V14.72ZM168.974 9.504V10.496H181.982V9.504H168.974ZM197.198 13.568H198.526V2.848H197.198V6.208H194.062V7.296H197.198V13.568ZM195.086 10.176C193.022 9.408 191.614 7.52 191.614 5.52V3.696H190.302V5.472C190.302 7.664 188.862 9.696 186.718 10.48L187.406 11.52C189.086 10.848 190.366 9.488 190.974 7.776C191.582 9.328 192.814 10.56 194.398 11.184L195.086 10.176ZM190.606 15.792V12.384H189.294V16.864H198.862V15.792H190.606ZM207.66 9.328C206.156 9.632 204.876 9.712 202.828 9.712V7.76H206.94V6.752H202.828V4.944H207.1V3.888H201.564V10.784H202.476C204.78 10.784 206.14 10.72 207.788 10.384L207.66 9.328ZM203.404 13.344H211.74V17.184H213.052V12.288H203.404V13.344ZM211.788 2.848V6.576H209.868V3.104H208.62V11.44H209.868V7.648H211.788V11.536H213.052V2.848H211.788ZM219.387 12.896C218.091 12.896 217.147 11.968 217.147 10.688C217.147 9.392 218.091 8.464 219.387 8.464C220.699 8.464 221.643 9.392 221.643 10.688C221.643 11.968 220.699 12.896 219.387 12.896ZM219.387 7.376C217.371 7.376 215.915 8.752 215.915 10.688C215.915 12.64 217.371 13.984 219.387 13.984C221.435 13.984 222.891 12.64 222.891 10.688C222.891 8.752 221.435 7.376 219.387 7.376ZM220.027 3.008H218.715V5.136H215.099V6.192H223.563V5.136H220.027V3.008ZM228.587 8.736H226.235V2.848H224.923V17.184H226.235V9.84H228.587V8.736ZM239.546 5.696C239.546 7.424 239.546 9.44 239.002 12.192L240.314 12.336C240.858 9.44 240.858 7.472 240.858 5.696V4.272H230.794V5.344H239.546V5.696ZM235.786 14.096V8.96H234.474V14.096H229.434V15.168H242.41V14.096H235.786ZM243.856 18.2656L243.035 17.7031C243.525 17.0208 243.78 16.3177 243.801 15.5938V14.2891H245.215V15.4219C245.215 15.9479 245.085 16.474 244.824 17C244.569 17.526 244.246 17.9479 243.856 18.2656ZM251.068 3.85156L251.896 4.41406C251.411 5.07552 251.161 5.78906 251.146 6.55469V7.61719H249.708V6.71094C249.708 6.17969 249.833 5.65365 250.083 5.13281C250.338 4.61198 250.666 4.1849 251.068 3.85156ZM261.689 10.6797C261.689 11.7786 261.515 12.7266 261.166 13.5234C260.817 14.3151 260.327 14.9349 259.697 15.3828L261.728 16.9766L260.705 17.9219L258.306 16.0156C257.931 16.1094 257.535 16.1562 257.119 16.1562C256.223 16.1562 255.429 15.9375 254.736 15.5C254.043 15.0573 253.504 14.4297 253.119 13.6172C252.739 12.7995 252.543 11.8542 252.533 10.7812V9.96094C252.533 8.86719 252.723 7.90104 253.103 7.0625C253.483 6.22396 254.02 5.58333 254.712 5.14062C255.41 4.69271 256.207 4.46875 257.103 4.46875C258.02 4.46875 258.824 4.6901 259.517 5.13281C260.215 5.57552 260.752 6.21354 261.127 7.04688C261.502 7.875 261.689 8.84375 261.689 9.95312V10.6797ZM260.189 9.94531C260.189 8.60677 259.921 7.57552 259.384 6.85156C258.853 6.1224 258.093 5.75781 257.103 5.75781C256.16 5.75781 255.416 6.11979 254.869 6.84375C254.327 7.5625 254.048 8.5625 254.033 9.84375V10.6797C254.033 11.9818 254.304 13.0078 254.845 13.7578C255.392 14.5078 256.15 14.8828 257.119 14.8828C258.087 14.8828 258.837 14.5312 259.369 13.8281C259.9 13.1198 260.173 12.1068 260.189 10.7891V9.94531ZM267.693 11.3984H265.022V16H263.514V4.625H267.279C268.561 4.625 269.545 4.91667 270.232 5.5C270.925 6.08333 271.272 6.93229 271.272 8.04688C271.272 8.75521 271.079 9.3724 270.693 9.89844C270.313 10.4245 269.782 10.8177 269.1 11.0781L271.772 15.9062V16H270.162L267.693 11.3984ZM265.022 10.1719H267.326C268.071 10.1719 268.662 9.97917 269.1 9.59375C269.542 9.20833 269.764 8.69271 269.764 8.04688C269.764 7.34375 269.553 6.80469 269.131 6.42969C268.714 6.05469 268.11 5.86458 267.318 5.85938H265.022V10.1719ZM281.453 7.76H283.277V11.696H284.541V2.848H283.277V6.688H281.453V3.12H280.205V11.232H281.453V7.76ZM279.613 9.568C277.773 8.864 276.701 7.248 276.701 5.664V3.728H275.437V5.664C275.437 7.264 274.317 9.12 272.445 9.952L273.149 10.976C274.541 10.352 275.565 9.136 276.077 7.792C276.589 9.008 277.565 10.032 278.909 10.576L279.613 9.568ZM279.805 16.16C277.661 16.16 276.317 15.584 276.317 14.592C276.317 13.6 277.661 13.04 279.805 13.04C281.981 13.04 283.309 13.6 283.309 14.592C283.309 15.584 281.981 16.16 279.805 16.16ZM279.805 12.016C276.861 12.016 275.021 12.96 275.021 14.592C275.021 16.224 276.861 17.168 279.805 17.168C282.765 17.168 284.605 16.224 284.605 14.592C284.605 12.96 282.765 12.016 279.805 12.016ZM297.163 11.328H298.491V2.848H297.163V5.888H294.043V6.96H297.163V11.328ZM295.083 9.632C292.987 8.896 291.595 7.12 291.595 5.072V3.648H290.283V5.12C290.283 7.312 288.859 9.232 286.651 10.016L287.339 11.088C289.067 10.432 290.363 9.136 290.971 7.44C291.595 8.928 292.811 10.064 294.379 10.656L295.083 9.632ZM293.755 16.128C291.595 16.128 290.283 15.504 290.283 14.464C290.283 13.408 291.595 12.784 293.755 12.784C295.915 12.784 297.227 13.408 297.227 14.464C297.227 15.504 295.915 16.128 293.755 16.128ZM293.755 11.76C290.811 11.76 288.971 12.736 288.971 14.464C288.971 16.176 290.811 17.168 293.755 17.168C296.699 17.168 298.539 16.176 298.539 14.464C298.539 12.736 296.699 11.76 293.755 11.76ZM301.253 7.82812L300.433 7.26562C300.918 6.58854 301.168 5.875 301.183 5.125V4H302.613V5.01562C302.608 5.53646 302.477 6.05729 302.222 6.57812C301.972 7.09375 301.649 7.51042 301.253 7.82812ZM39.72 34.512H35.72V30.736H39.72V34.512ZM44.36 24.832V30.16H41V25.968H39.72V29.696H35.72V25.968H34.424V35.584H41V31.216H44.36V39.216H45.672V24.832H44.36ZM59.5268 30.416H51.0948V28.88H59.0628V27.888H51.0948V26.384H59.4468V25.36H49.7828V31.44H59.5268V30.416ZM51.0628 34.88H49.7508V38.864H59.7028V37.792H51.0628V34.88ZM48.0708 32.784V33.84H61.0468V32.784H48.0708ZM68.8055 26.064C71.1575 26.064 72.5015 26.608 72.5015 27.568C72.5015 28.528 71.1575 29.072 68.8055 29.072C66.4535 29.072 65.1095 28.528 65.1095 27.568C65.1095 26.608 66.4535 26.064 68.8055 26.064ZM68.8055 30.048C71.9575 30.048 73.8455 29.184 73.8455 27.568C73.8455 25.952 71.9575 25.072 68.8055 25.072C65.6535 25.072 63.7655 25.952 63.7655 27.568C63.7655 29.184 65.6535 30.048 68.8055 30.048ZM65.2055 36.544H73.6375V33.312H63.8775V34.304H72.3415V35.584H63.9255V39.024H74.0695V38H65.2055V36.544ZM62.3095 31.024V32.08H75.3015V31.024H62.3095ZM91.541 28.256H83.093V25.04H81.797V29.312H91.541V28.256ZM93.061 31.632V30.56H80.053V31.632H85.877V33.136H81.653V34.144H90.101V35.488H81.685V39.024H91.893V38H82.997V36.448H91.413V33.136H87.189V31.632H93.061ZM96.1157 31.184H101.204V26.16H94.7877V27.232H99.9237V30.128H94.8197V35.744H95.9237C98.5157 35.744 100.34 35.664 102.5 35.28L102.372 34.192C100.308 34.56 98.5637 34.656 96.1157 34.656V31.184ZM104.788 24.816V30.352H102.052V31.424H104.788V39.2H106.1V24.816H104.788ZM113.299 31.808C115.523 31.424 117.635 30.224 118.515 28.528C119.379 30.224 121.507 31.424 123.731 31.808L124.243 30.768C121.715 30.4 119.235 28.752 119.235 26.864V26.784H123.731V25.728H113.251V26.784H117.779V26.864C117.779 28.752 115.299 30.4 112.803 30.768L113.299 31.808ZM124.995 33.008H112.035V34.08H117.827V39.184H119.139V34.08H125.011L124.995 33.008ZM130.514 26.192H129.25V28.928C129.25 31.392 128.066 33.968 126.098 35.12L126.914 36.096C128.338 35.216 129.378 33.6 129.89 31.696C130.402 33.44 131.362 34.96 132.722 35.792L133.474 34.768C131.586 33.616 130.514 31.184 130.514 28.88V26.192ZM134.29 29.984H131.922V31.072H134.29V38.48H135.522V25.152H134.29V29.984ZM137.202 24.832V39.184H138.45V24.832H137.202ZM144.993 32.88C145.585 33.024 146.273 33.104 146.977 33.104C147.697 33.104 148.385 33.024 148.993 32.88V36.256H144.993V32.88ZM146.977 26.768C149.281 26.768 150.945 27.824 150.945 29.424C150.945 31.024 149.281 32.08 146.977 32.08C144.673 32.08 143.025 31.024 143.025 29.424C143.025 27.824 144.673 26.768 146.977 26.768ZM150.305 36.256V32.368C151.489 31.744 152.193 30.72 152.193 29.424C152.193 27.184 150.033 25.744 146.977 25.744C143.937 25.744 141.761 27.184 141.761 29.424C141.761 30.72 142.481 31.76 143.681 32.384V36.256H140.481V37.344H153.521V36.256H150.305ZM155.012 37.2422C155.012 36.9922 155.085 36.7839 155.231 36.6172C155.382 36.4505 155.606 36.3672 155.903 36.3672C156.2 36.3672 156.424 36.4505 156.575 36.6172C156.731 36.7839 156.809 36.9922 156.809 37.2422C156.809 37.4818 156.731 37.6823 156.575 37.8438C156.424 38.0052 156.2 38.0859 155.903 38.0859C155.606 38.0859 155.382 38.0052 155.231 37.8438C155.085 37.6823 155.012 37.4818 155.012 37.2422Z" fill="#555555"/>
<rect x="72" y="89" width="171" height="44" rx="22" fill="#E8F4FF"/>
<path d="M139.09 111.213C139.09 112.541 138.875 113.697 138.445 114.68C138.016 115.656 137.42 116.441 136.658 117.033L139.021 118.889L137.156 120.539L134.129 118.107C133.784 118.166 133.426 118.195 133.055 118.195C131.876 118.195 130.825 117.912 129.9 117.346C128.976 116.779 128.26 115.972 127.752 114.924C127.244 113.869 126.987 112.658 126.98 111.291V110.588C126.98 109.188 127.231 107.958 127.732 106.896C128.24 105.829 128.953 105.012 129.871 104.445C130.796 103.872 131.85 103.586 133.035 103.586C134.22 103.586 135.271 103.872 136.189 104.445C137.114 105.012 137.827 105.829 138.328 106.896C138.836 107.958 139.09 109.185 139.09 110.578V111.213ZM136.121 110.568C136.121 109.077 135.854 107.945 135.32 107.17C134.786 106.395 134.025 106.008 133.035 106.008C132.052 106.008 131.294 106.392 130.76 107.16C130.226 107.922 129.956 109.042 129.949 110.52V111.213C129.949 112.665 130.216 113.791 130.75 114.592C131.284 115.393 132.052 115.793 133.055 115.793C134.038 115.793 134.793 115.409 135.32 114.641C135.848 113.866 136.115 112.74 136.121 111.262V110.568ZM146.502 112.795H144.168V118H141.238V103.781H146.521C148.201 103.781 149.497 104.156 150.408 104.904C151.32 105.653 151.775 106.711 151.775 108.078C151.775 109.048 151.564 109.859 151.141 110.51C150.724 111.154 150.089 111.669 149.236 112.053L152.312 117.863V118H149.168L146.502 112.795ZM144.168 110.422H146.531C147.267 110.422 147.837 110.236 148.24 109.865C148.644 109.488 148.846 108.97 148.846 108.312C148.846 107.642 148.654 107.115 148.27 106.73C147.892 106.346 147.309 106.154 146.521 106.154H144.168V110.422ZM169.081 108.91H170.377V113.104H172.627V102.97H170.377V107.002H169.081V103.276H166.867V112.582H169.081V108.91ZM166.849 110.332C164.671 109.45 163.771 107.668 163.771 105.886V103.96H161.485V105.886C161.485 107.758 160.585 109.81 158.263 110.818L159.523 112.654C161.053 112.006 162.079 110.818 162.673 109.414C163.267 110.602 164.221 111.592 165.589 112.132L166.849 110.332ZM167.011 117.766C164.851 117.766 163.663 117.334 163.663 116.452C163.663 115.57 164.851 115.138 167.011 115.138C169.135 115.138 170.323 115.57 170.323 116.452C170.323 117.334 169.135 117.766 167.011 117.766ZM167.011 113.356C163.519 113.356 161.287 114.526 161.287 116.452C161.287 118.396 163.519 119.548 167.011 119.548C170.485 119.548 172.699 118.396 172.699 116.452C172.699 114.526 170.485 113.356 167.011 113.356ZM186.539 112.69H188.915V102.97H186.539V105.994H183.515V107.92H186.539V112.69ZM185.027 110.296C182.399 109.45 181.319 107.434 181.319 105.202V103.834H178.907V105.31C178.907 107.596 177.737 109.846 174.911 110.746L176.153 112.654C178.115 111.988 179.429 110.656 180.167 108.964C180.869 110.44 182.039 111.574 183.785 112.168L185.027 110.296ZM183.317 117.73C181.139 117.73 180.005 117.28 180.005 116.344C180.005 115.39 181.139 114.94 183.317 114.94C185.477 114.94 186.611 115.39 186.611 116.344C186.611 117.28 185.477 117.73 183.317 117.73ZM183.317 113.104C179.789 113.104 177.629 114.292 177.629 116.344C177.629 118.36 179.789 119.548 183.317 119.548C186.827 119.548 188.987 118.36 188.987 116.344C188.987 114.292 186.827 113.104 183.317 113.104Z" fill="#2394FD"/>
<path d="M229.361 151.417H206.445V157.667H229.361V151.417Z" stroke="black" stroke-width="3" stroke-linejoin="round"/>
<path d="M206.445 151.417C199.654 143.997 195.757 139.698 194.755 138.517C193.252 136.746 193.883 134.746 197.646 134.746C201.408 134.746 203.578 140.252 206.445 140.252C206.462 140.255 206.463 133.215 206.448 119.129C206.447 118.719 206.528 118.312 206.684 117.932C206.841 117.553 207.071 117.208 207.361 116.918C207.651 116.627 207.995 116.396 208.374 116.239C208.754 116.081 209.16 116 209.571 116H209.574C209.985 116 210.392 116.081 210.772 116.238C211.151 116.395 211.496 116.626 211.787 116.916C212.078 117.207 212.308 117.552 212.466 117.931C212.623 118.311 212.704 118.718 212.704 119.129V127.473C221.008 128.732 225.524 129.427 226.249 129.556C227.337 129.753 229.361 130.792 229.361 133.78V151.417H206.445Z" fill="white" stroke="black" stroke-width="3" stroke-linejoin="round"/>
<circle cx="11" cy="225" r="11" fill="black"/>
<path d="M15 230.833H7.06246V229.115L10.7187 225.271C11.6198 224.245 12.0703 223.43 12.0703 222.826C12.0703 222.336 11.9635 221.964 11.75 221.708C11.5364 221.453 11.2265 221.326 10.8203 221.326C10.4192 221.326 10.0937 221.497 9.84371 221.841C9.59371 222.18 9.46871 222.604 9.46871 223.115H6.82808C6.82808 222.417 7.00256 221.773 7.35152 221.185C7.70048 220.591 8.18485 220.128 8.80465 219.794C9.42444 219.461 10.1171 219.294 10.8828 219.294C12.1119 219.294 13.0573 219.578 13.7187 220.146C14.3854 220.714 14.7187 221.529 14.7187 222.591C14.7187 223.039 14.6354 223.477 14.4687 223.904C14.302 224.326 14.0416 224.771 13.6875 225.24C13.3385 225.703 12.7734 226.326 11.9921 227.107L10.5234 228.802H15V230.833Z" fill="white"/>
<path d="M42.872 220.76H44.696V224.696H45.96V215.848H44.696V219.688H42.872V216.12H41.624V224.232H42.872V220.76ZM41.032 222.568C39.192 221.864 38.12 220.248 38.12 218.664V216.728H36.856V218.664C36.856 220.264 35.736 222.12 33.864 222.952L34.568 223.976C35.96 223.352 36.984 222.136 37.496 220.792C38.008 222.008 38.984 223.032 40.328 223.576L41.032 222.568ZM41.224 229.16C39.08 229.16 37.736 228.584 37.736 227.592C37.736 226.6 39.08 226.04 41.224 226.04C43.4 226.04 44.728 226.6 44.728 227.592C44.728 228.584 43.4 229.16 41.224 229.16ZM41.224 225.016C38.28 225.016 36.44 225.96 36.44 227.592C36.44 229.224 38.28 230.168 41.224 230.168C44.184 230.168 46.024 229.224 46.024 227.592C46.024 225.96 44.184 225.016 41.224 225.016ZM58.5828 224.328H59.9108V215.848H58.5828V218.888H55.4628V219.96H58.5828V224.328ZM56.5028 222.632C54.4068 221.896 53.0148 220.12 53.0148 218.072V216.648H51.7028V218.12C51.7028 220.312 50.2788 222.232 48.0708 223.016L48.7588 224.088C50.4868 223.432 51.7828 222.136 52.3908 220.44C53.0148 221.928 54.2308 223.064 55.7988 223.656L56.5028 222.632ZM55.1748 229.128C53.0148 229.128 51.7028 228.504 51.7028 227.464C51.7028 226.408 53.0148 225.784 55.1748 225.784C57.3348 225.784 58.6468 226.408 58.6468 227.464C58.6468 228.504 57.3348 229.128 55.1748 229.128ZM55.1748 224.76C52.2308 224.76 50.3908 225.736 50.3908 227.464C50.3908 229.176 52.2308 230.168 55.1748 230.168C58.1188 230.168 59.9588 229.176 59.9588 227.464C59.9588 225.736 58.1188 224.76 55.1748 224.76ZM74.0695 215.832H72.7575V226.568H74.0695V215.832ZM71.6055 223.288C70.3735 223.432 69.0775 223.512 67.7495 223.576V221.592H70.5975V220.536H64.9815V217.832H70.5015V216.76H63.6695V221.592H66.4375V223.624C65.0295 223.672 63.6375 223.688 62.3895 223.688L62.5815 224.76C65.2535 224.76 68.6615 224.664 71.7015 224.232L71.6055 223.288ZM66.1015 228.792V225.864H64.7895V229.864H74.5495V228.792H66.1015ZM89.2128 223.68C89.2128 224.779 89.0383 225.727 88.6894 226.523C88.3404 227.315 87.8508 227.935 87.2206 228.383L89.2519 229.977L88.2284 230.922L85.83 229.016C85.455 229.109 85.0592 229.156 84.6425 229.156C83.7467 229.156 82.9524 228.938 82.2597 228.5C81.567 228.057 81.0279 227.43 80.6425 226.617C80.2623 225.799 80.067 224.854 80.0566 223.781V222.961C80.0566 221.867 80.2467 220.901 80.6269 220.062C81.0071 219.224 81.5435 218.583 82.2363 218.141C82.9342 217.693 83.731 217.469 84.6269 217.469C85.5435 217.469 86.3482 217.69 87.0409 218.133C87.7389 218.576 88.2753 219.214 88.6503 220.047C89.0253 220.875 89.2128 221.844 89.2128 222.953V223.68ZM87.7128 222.945C87.7128 221.607 87.4446 220.576 86.9081 219.852C86.3769 219.122 85.6165 218.758 84.6269 218.758C83.6842 218.758 82.9394 219.12 82.3925 219.844C81.8508 220.562 81.5722 221.562 81.5566 222.844V223.68C81.5566 224.982 81.8274 226.008 82.3691 226.758C82.9159 227.508 83.6738 227.883 84.6425 227.883C85.6113 227.883 86.3613 227.531 86.8925 226.828C87.4238 226.12 87.6972 225.107 87.7128 223.789V222.945ZM95.2172 224.398H92.5453V229H91.0375V217.625H94.8031C96.0844 217.625 97.0687 217.917 97.7562 218.5C98.449 219.083 98.7953 219.932 98.7953 221.047C98.7953 221.755 98.6026 222.372 98.2172 222.898C97.837 223.424 97.3057 223.818 96.6234 224.078L99.2953 228.906V229H97.6859L95.2172 224.398ZM92.5453 223.172H94.85C95.5948 223.172 96.1859 222.979 96.6234 222.594C97.0661 222.208 97.2875 221.693 97.2875 221.047C97.2875 220.344 97.0766 219.805 96.6547 219.43C96.238 219.055 95.6339 218.865 94.8422 218.859H92.5453V223.172ZM101.12 221.048L101.312 222.168L109.984 221.704C109.888 222.696 109.744 223.816 109.472 225.096L110.768 225.256C111.376 222.312 111.376 220.344 111.376 218.584V217.224H101.504V218.296H110.08V218.584C110.08 219.24 110.08 219.928 110.048 220.68L101.12 221.048ZM106.32 227.16V223.432H105.008V227.16H99.9524V228.232H112.928V227.16H106.32ZM125.695 222.712H117.135V218.232H125.551V217.144H115.839V223.784H125.695V222.712ZM114.175 227.16V228.248H127.199V227.16H114.175ZM138.478 218.344H130.094V221.416H140.03V220.472H131.39V219.24H139.774V216.248H130.062V217.176H138.478V218.344ZM131.31 227.72H139.822V224.664H129.982V225.608H138.526V226.808H130.014V229.992H140.27V229.048H131.31V227.72ZM128.43 222.504V223.496H141.438V222.504H128.43ZM158.525 223.048C156.013 222.568 153.293 220.392 153.293 217.944V216.84H151.917V217.944C151.917 220.392 149.213 222.552 146.701 223.048L147.293 224.136C149.453 223.624 151.693 222.088 152.605 219.992C153.517 222.104 155.757 223.64 157.933 224.136L158.525 223.048ZM146.157 227.176V228.264H159.165V227.176H146.157ZM169.356 221.352H171.244V226.632H172.508V215.848H171.244V220.28H169.356V216.104H168.108V226.152H169.356V221.352ZM161.196 217.064V218.136H165.468C165.42 218.696 165.308 219.24 165.132 219.752L160.524 220.072L160.732 221.144L164.7 220.728C163.932 222.088 162.588 223.224 160.556 224.088L161.18 225.064C165.18 223.336 166.764 220.552 166.764 217.064H161.196ZM164.412 228.792V225.336H163.1V229.864H172.94V228.792H164.412ZM190.332 217.48H185.276V215.752H183.948V217.48H178.796V218.536H190.332V217.48ZM187.9 221.752C187.9 222.632 186.716 223.144 184.62 223.144C182.524 223.144 181.308 222.632 181.308 221.752C181.308 220.872 182.524 220.36 184.62 220.36C186.716 220.36 187.9 220.872 187.9 221.752ZM179.948 221.752C179.948 223.288 181.692 224.136 184.62 224.136C187.516 224.136 189.26 223.288 189.26 221.752C189.26 220.216 187.516 219.352 184.62 219.352C181.692 219.352 179.948 220.216 179.948 221.752ZM191.132 225.144H178.124V226.216H183.948V230.2H185.276V226.216H191.132V225.144ZM192.561 231.266L191.741 230.703C192.231 230.021 192.486 229.318 192.507 228.594V227.289H193.921V228.422C193.921 228.948 193.79 229.474 193.53 230C193.275 230.526 192.952 230.948 192.561 231.266ZM199.773 216.852L200.601 217.414C200.117 218.076 199.867 218.789 199.851 219.555V220.617H198.414V219.711C198.414 219.18 198.539 218.654 198.789 218.133C199.044 217.612 199.372 217.185 199.773 216.852ZM214.227 223.56H212.051C212.563 221.208 212.563 219.544 212.563 218.04V216.728H202.883V217.8H211.299V218.04C211.299 218.616 211.299 219.192 211.267 219.816L202.467 220.152L202.643 221.256L211.187 220.84C211.123 221.656 210.995 222.536 210.755 223.56H201.251V224.632H207.091V230.184H208.403V224.632H214.227V223.56ZM218.45 225.928H217.138V229.864H227.01V228.792H218.45V225.928ZM220.162 217.544H223.73V220.808H220.162V217.544ZM222.626 223.608V221.864H227.154V220.808H225.042V217.544H227.202V216.488H216.674V217.544H218.85V220.808H216.722V221.864H221.314V223.608H215.458V224.664H228.434V223.608H222.626ZM234.528 217.08H233.232V219.656C233.232 222.264 231.6 225.016 229.536 226.072L230.32 227.128C231.936 226.264 233.264 224.472 233.888 222.376C234.544 224.344 235.84 226.024 237.36 226.84L238.176 225.8C236.16 224.792 234.528 222.184 234.528 219.656V217.08ZM243.12 221.656H240.752V215.848H239.44V230.184H240.752V222.744H243.12V221.656ZM250.431 229.16C248.175 229.16 246.847 228.6 246.847 227.624C246.847 226.648 248.175 226.088 250.431 226.088C252.671 226.088 254.015 226.648 254.015 227.624C254.015 228.6 252.671 229.16 250.431 229.16ZM250.431 225.064C247.359 225.064 245.519 225.976 245.519 227.624C245.519 229.272 247.359 230.168 250.431 230.168C253.519 230.168 255.343 229.272 255.343 227.624C255.343 225.976 253.519 225.064 250.431 225.064ZM248.447 221.256C249.039 221.352 249.711 221.416 250.431 221.416C251.167 221.416 251.839 221.352 252.431 221.256V222.936H248.447V221.256ZM246.735 218.76C246.735 217.72 248.143 217.112 250.431 217.112C252.719 217.112 254.127 217.72 254.127 218.76C254.127 219.784 252.719 220.408 250.431 220.408C248.143 220.408 246.735 219.784 246.735 218.76ZM253.727 222.936V220.904C254.831 220.456 255.471 219.72 255.471 218.76C255.471 217.08 253.551 216.088 250.431 216.088C247.327 216.088 245.391 217.08 245.391 218.76C245.391 219.736 246.015 220.456 247.151 220.92V222.936H243.935V223.992H256.927V222.936H253.727ZM258.537 220.828L257.717 220.266C258.201 219.589 258.451 218.875 258.467 218.125V217H259.897V218.016C259.891 218.536 259.761 219.057 259.506 219.578C259.256 220.094 258.933 220.51 258.537 220.828ZM270.274 225.512H266.274V221.736H270.274V225.512ZM274.914 215.832V221.16H271.554V216.968H270.274V220.696H266.274V216.968H264.978V226.584H271.554V222.216H274.914V230.216H276.226V215.832H274.914ZM290.08 221.416H281.648V219.88H289.616V218.888H281.648V217.384H290V216.36H280.336V222.44H290.08V221.416ZM281.616 225.88H280.304V229.864H290.256V228.792H281.616V225.88ZM278.624 223.784V224.84H291.6V223.784H278.624ZM299.359 217.064C301.711 217.064 303.055 217.608 303.055 218.568C303.055 219.528 301.711 220.072 299.359 220.072C297.007 220.072 295.663 219.528 295.663 218.568C295.663 217.608 297.007 217.064 299.359 217.064ZM299.359 221.048C302.511 221.048 304.399 220.184 304.399 218.568C304.399 216.952 302.511 216.072 299.359 216.072C296.207 216.072 294.319 216.952 294.319 218.568C294.319 220.184 296.207 221.048 299.359 221.048ZM295.759 227.544H304.191V224.312H294.431V225.304H302.895V226.584H294.479V230.024H304.623V229H295.759V227.544ZM292.863 222.024V223.08H305.855V222.024H292.863ZM45.336 241.256H36.888V238.04H35.592V242.312H45.336V241.256ZM46.856 244.632V243.56H33.848V244.632H39.672V246.136H35.448V247.144H43.896V248.488H35.48V252.024H45.688V251H36.792V249.448H45.208V246.136H40.984V244.632H46.856ZM49.9108 244.184H54.9988V239.16H48.5828V240.232H53.7188V243.128H48.6148V248.744H49.7188C52.3108 248.744 54.1348 248.664 56.2948 248.28L56.1668 247.192C54.1028 247.56 52.3588 247.656 49.9108 247.656V244.184ZM58.5828 237.816V243.352H55.8468V244.424H58.5828V252.2H59.8948V237.816H58.5828ZM63.6055 244.808C65.8295 244.424 67.9415 243.224 68.8215 241.528C69.6855 243.224 71.8135 244.424 74.0375 244.808L74.5495 243.768C72.0215 243.4 69.5415 241.752 69.5415 239.864V239.784H74.0375V238.728H63.5575V239.784H68.0855V239.864C68.0855 241.752 65.6055 243.4 63.1095 243.768L63.6055 244.808ZM75.3015 246.008H62.3415V247.08H68.1335V252.184H69.4455V247.08H75.3175L75.3015 246.008ZM80.8203 239.192H79.5563V241.928C79.5563 244.392 78.3723 246.968 76.4043 248.12L77.2203 249.096C78.6443 248.216 79.6843 246.6 80.1963 244.696C80.7083 246.44 81.6683 247.96 83.0283 248.792L83.7803 247.768C81.8923 246.616 80.8203 244.184 80.8203 241.88V239.192ZM84.5963 242.984H82.2283V244.072H84.5963V251.48H85.8283V238.152H84.5963V242.984ZM87.5083 237.832V252.184H88.7563V237.832H87.5083ZM95.299 245.88C95.891 246.024 96.579 246.104 97.283 246.104C98.003 246.104 98.691 246.024 99.299 245.88V249.256H95.299V245.88ZM97.283 239.768C99.587 239.768 101.251 240.824 101.251 242.424C101.251 244.024 99.587 245.08 97.283 245.08C94.979 245.08 93.331 244.024 93.331 242.424C93.331 240.824 94.979 239.768 97.283 239.768ZM100.611 249.256V245.368C101.795 244.744 102.499 243.72 102.499 242.424C102.499 240.184 100.339 238.744 97.283 238.744C94.243 238.744 92.067 240.184 92.067 242.424C92.067 243.72 92.787 244.76 93.987 245.384V249.256H90.787V250.344H103.827V249.256H100.611ZM105.319 250.242C105.319 249.992 105.392 249.784 105.537 249.617C105.689 249.451 105.912 249.367 106.209 249.367C106.506 249.367 106.73 249.451 106.881 249.617C107.037 249.784 107.116 249.992 107.116 250.242C107.116 250.482 107.037 250.682 106.881 250.844C106.73 251.005 106.506 251.086 106.209 251.086C105.912 251.086 105.689 251.005 105.537 250.844C105.392 250.682 105.319 250.482 105.319 250.242Z" fill="#555555"/>
<path d="M121.167 301.167V315.5H114V301.167C114 299.266 114.755 297.443 116.099 296.099C117.443 294.755 119.266 294 121.167 294H135.5V301.167H121.167ZM192.833 294C194.734 294 196.557 294.755 197.901 296.099C199.245 297.443 200 299.266 200 301.167V315.5H192.833V301.167H178.5V294H192.833ZM121.167 358.5V372.833H135.5V380H121.167C119.266 380 117.443 379.245 116.099 377.901C114.755 376.557 114 374.734 114 372.833V358.5H121.167ZM192.833 372.833V358.5H200V372.833C200 374.734 199.245 376.557 197.901 377.901C196.557 379.245 194.734 380 192.833 380H178.5V372.833H192.833Z" fill="#2394FD"/>
<path d="M136.167 333.083H129V340.25H136.167V333.083Z" fill="black"/>
<path d="M161.25 333.083H146.917V340.25H154.083V347.417H161.25V333.083Z" fill="black"/>
<path d="M161.25 315.167H154.083V329.5H161.25V315.167Z" fill="black"/>
<path fill-rule="evenodd" clip-rule="evenodd" d="M186.333 308V329.5H164.833V308H186.333ZM172 322.333V315.167H179.167V322.333H172Z" fill="black"/>
<path fill-rule="evenodd" clip-rule="evenodd" d="M129 308H150.5V329.5H129V308ZM136.167 322.333V315.167H143.333V322.333H136.167Z" fill="black"/>
<path fill-rule="evenodd" clip-rule="evenodd" d="M129 365.333V343.833H150.5V365.333H129ZM136.167 358.167V351H143.333V358.167H136.167Z" fill="black"/>
<path fill-rule="evenodd" clip-rule="evenodd" d="M172 347.417H164.833V351H154.083V365.333H161.25V358.167H172V365.333H179.167V358.167H186.333V347.417H179.167V340.25H186.333V333.083H179.167V340.25H172V333.083H164.833V340.25H172V347.417ZM172 347.417V358.167H179.167V347.417H172Z" fill="black"/>
<rect x="72" y="410" width="171" height="44" rx="22" fill="#E8F4FF"/>
<path d="M137.41 432.718H135.214C135.772 430.018 135.772 428.092 135.772 426.382V424.888H124.162V426.778H133.486C133.486 427.318 133.486 427.876 133.45 428.47L123.622 428.776L123.892 430.792L133.288 430.306C133.198 431.044 133.072 431.854 132.874 432.718H122.434V434.644H128.716V440.512H131.092V434.644H137.41V432.718ZM143.168 435.58H140.792V440.26H152.276V438.37H143.168V435.58ZM144.752 426.472H148.154V429.262H144.752V426.472ZM147.632 432.628V431.134H152.492V429.262H150.512V426.472H152.618V424.582H140.288V426.472H142.394V429.262H140.396V431.134H145.256V432.628H138.974V434.518H153.95V432.628H147.632ZM166.117 425.248H163.723V427.66C163.723 430.738 162.463 433.906 159.673 435.22L161.095 437.146C162.967 436.228 164.209 434.482 164.929 432.376C165.613 434.356 166.783 435.958 168.511 436.84L169.951 434.968C167.287 433.654 166.117 430.648 166.117 427.66V425.248ZM175.405 430.342H172.993V423.97H170.617V440.548H172.993V432.322H175.405V430.342ZM184.026 438.766C181.812 438.766 180.678 438.388 180.678 437.542C180.678 436.696 181.812 436.336 184.026 436.336C186.24 436.336 187.374 436.696 187.374 437.542C187.374 438.388 186.24 438.766 184.026 438.766ZM184.026 434.536C180.444 434.536 178.284 435.616 178.284 437.542C178.284 439.468 180.444 440.566 184.026 440.566C187.608 440.566 189.786 439.468 189.786 437.542C189.786 435.616 187.608 434.536 184.026 434.536ZM182.316 430.45C182.856 430.522 183.432 430.558 184.062 430.558C184.674 430.558 185.25 430.522 185.772 430.468V431.836H182.316V430.45ZM184.062 426.022C186.33 426.022 187.626 426.472 187.626 427.408C187.626 428.308 186.33 428.776 184.062 428.776C181.812 428.776 180.516 428.308 180.516 427.408C180.516 426.472 181.812 426.022 184.062 426.022ZM188.148 431.836V429.856C189.372 429.316 190.074 428.488 190.074 427.408C190.074 425.428 187.734 424.222 184.062 424.222C180.408 424.222 178.068 425.428 178.068 427.408C178.068 428.47 178.752 429.298 179.94 429.838V431.836H176.574V433.708H191.55V431.836H188.148Z" fill="#2394FD"/>
<path d="M229.361 472.417H206.445V478.667H229.361V472.417Z" stroke="black" stroke-width="3" stroke-linejoin="round"/>
<path d="M206.445 472.417C199.654 464.997 195.757 460.698 194.755 459.517C193.252 457.746 193.883 455.746 197.646 455.746C201.408 455.746 203.578 461.252 206.445 461.252C206.462 461.255 206.463 454.215 206.448 440.129C206.447 439.719 206.528 439.312 206.684 438.932C206.841 438.553 207.071 438.208 207.361 437.918C207.651 437.627 207.995 437.396 208.374 437.239C208.754 437.081 209.16 437 209.571 437H209.574C209.985 437 210.392 437.081 210.772 437.238C211.151 437.395 211.496 437.626 211.787 437.916C212.078 438.207 212.308 438.552 212.466 438.931C212.623 439.311 212.704 439.718 212.704 440.129V448.473C221.008 449.732 225.524 450.427 226.249 450.556C227.337 450.753 229.361 451.792 229.361 454.78V472.417H206.445Z" fill="white" stroke="black" stroke-width="3" stroke-linejoin="round"/>
<path d="M91.1902 500.849C88.5222 501.068 85.7443 501.623 83.083 501.543C81.9637 501.509 80.4357 501.192 79.3272 501.659C79.0807 501.763 79.716 502.009 79.9427 502.127C80.8055 502.579 81.6728 503.021 82.5253 503.494C84.5371 504.609 86.5078 505.809 88.4991 506.964C88.9336 507.216 90.1855 508.013 89.8499 507.624C89.1404 506.801 88.2751 506.167 87.5925 505.297C86.4632 503.858 85.5766 502.297 84.8628 500.556C84.4293 499.498 84.0698 498.078 83.3713 497.188C83.0206 496.741 83.494 498.39 83.5893 498.982C84.0639 501.936 83.4858 504.54 83.2467 507.497C83.1378 508.843 83.2517 509.202 84.322 508.209C86.3468 506.329 87.9861 504.034 89.8734 501.993C90.6817 501.119 91.0658 500.807 92.0237 501.131" stroke="#D66363" stroke-linecap="round"/>
<line x1="91" y1="518" x2="224" y2="518" stroke="#FFFBA0" stroke-width="10"/>
<path d="M101.711 511.57C101.711 512.633 101.539 513.557 101.195 514.344C100.852 515.125 100.375 515.753 99.7656 516.227L101.656 517.711L100.164 519.031L97.7422 517.086C97.4661 517.133 97.1797 517.156 96.8828 517.156C95.9401 517.156 95.099 516.93 94.3594 516.477C93.6198 516.023 93.0469 515.378 92.6406 514.539C92.2344 513.695 92.0286 512.727 92.0234 511.633V511.07C92.0234 509.951 92.224 508.966 92.625 508.117C93.0312 507.263 93.6016 506.609 94.3359 506.156C95.0755 505.698 95.9193 505.469 96.8672 505.469C97.8151 505.469 98.6562 505.698 99.3906 506.156C100.13 506.609 100.701 507.263 101.102 508.117C101.508 508.966 101.711 509.948 101.711 511.062V511.57ZM99.3359 511.055C99.3359 509.862 99.1224 508.956 98.6953 508.336C98.2682 507.716 97.6589 507.406 96.8672 507.406C96.0807 507.406 95.474 507.714 95.0469 508.328C94.6198 508.938 94.4036 509.833 94.3984 511.016V511.57C94.3984 512.732 94.612 513.633 95.0391 514.273C95.4661 514.914 96.0807 515.234 96.8828 515.234C97.6693 515.234 98.2734 514.927 98.6953 514.312C99.1172 513.693 99.3307 512.792 99.3359 511.609V511.055ZM107.641 512.836H105.773V517H103.43V505.625H107.656C109 505.625 110.036 505.924 110.766 506.523C111.495 507.122 111.859 507.969 111.859 509.062C111.859 509.839 111.69 510.487 111.352 511.008C111.018 511.523 110.51 511.935 109.828 512.242L112.289 516.891V517H109.773L107.641 512.836ZM105.773 510.938H107.664C108.253 510.938 108.708 510.789 109.031 510.492C109.354 510.19 109.516 509.776 109.516 509.25C109.516 508.714 109.362 508.292 109.055 507.984C108.753 507.677 108.286 507.523 107.656 507.523H105.773V510.938ZM126.201 510.568C122.873 510.008 121.049 507.72 121.049 505.56V504.504H118.793V505.56C118.793 507.672 116.953 510.008 113.641 510.568L114.537 512.344C117.097 511.848 118.969 510.408 119.913 508.536C120.857 510.408 122.745 511.832 125.305 512.344L126.201 510.568ZM113.321 514.872V516.584H126.665V514.872H113.321ZM137.336 509.624H138.6V514.712H140.6V503.64H138.6V507.928H137.336V503.912H135.368V514.296H137.336V509.624ZM128.728 504.872V506.552H132.408C132.36 506.952 132.28 507.32 132.168 507.688L128.104 507.88L128.376 509.56L131.432 509.224C130.712 510.232 129.592 511.064 127.944 511.768L128.936 513.256C133.032 511.464 134.504 508.728 134.504 504.872H128.728ZM132.712 516.44V513.432H130.6V518.12H141V516.44H132.712ZM159.367 505.176H154.455V503.624H152.343V505.176H147.383V506.824H159.367V505.176ZM156.263 509.944C156.263 510.6 155.319 510.904 153.399 510.904C151.479 510.904 150.551 510.6 150.551 509.944C150.551 509.256 151.479 508.968 153.399 508.968C155.319 508.968 156.263 509.256 156.263 509.944ZM148.359 509.944C148.359 511.56 150.247 512.472 153.399 512.472C156.551 512.472 158.455 511.56 158.455 509.944C158.455 508.312 156.551 507.4 153.399 507.4C150.247 507.4 148.359 508.312 148.359 509.944ZM160.087 513.176H146.743V514.872H152.343V518.392H154.455V514.872H160.087V513.176ZM166.822 511.16C168.534 510.808 169.702 509.992 170.358 508.92C171.014 509.88 172.118 510.616 173.766 510.936L174.582 509.304C172.438 508.92 171.43 507.896 171.366 506.728H174.246V505.096H171.366V503.656H169.254V505.096H166.374V506.728H169.254C169.19 507.976 168.182 509.112 165.974 509.528L166.822 511.16ZM174.838 511.352C171.75 511.768 168.182 511.784 165.494 511.784L165.75 513.496C166.806 513.496 167.99 513.496 169.238 513.448V517.928H171.35V513.32C172.55 513.224 173.782 513.08 174.966 512.872L174.838 511.352ZM175.67 503.64V518.36H177.782V503.64H175.67ZM193.061 510.36C189.701 509.816 187.893 507.608 187.893 505.512V504.456H185.637V505.512C185.637 507.56 183.813 509.816 180.485 510.36L181.349 512.104C183.925 511.64 185.797 510.248 186.757 508.44C187.717 510.264 189.605 511.64 192.197 512.104L193.061 510.36ZM187.829 514.936V511.64H185.717V514.936H180.165V516.632H193.509V514.936H187.829ZM204.419 507.24H198.675V506.376H204.419V507.24ZM206.515 503.864H204.419V504.84H198.675V503.864H196.579V508.792H206.515V503.864ZM208.211 511.24V509.576H194.883V511.24H200.467V512.152H196.403V513.704H204.499V514.44H196.419V518.264H206.963V516.696H198.515V515.896H206.579V512.152H202.579V511.24H208.211ZM210.274 505.144V506.856H215.09C214.706 510.12 212.882 512.456 209.458 514.216L210.642 515.832C215.538 513.352 217.218 509.56 217.218 505.144H210.274ZM223.202 509.256H221.138V503.624H219.026V518.344H221.138V511H223.202V509.256Z" fill="#D66363"/>
<circle cx="11" cy="587" r="11" fill="black"/>
<path d="M9.46871 586.044H10.7109C11.6953 586.044 12.1875 585.563 12.1875 584.599C12.1875 584.224 12.0703 583.919 11.8359 583.685C11.6015 583.445 11.2708 583.326 10.8437 583.326C10.4948 583.326 10.1901 583.427 9.92965 583.63C9.67444 583.833 9.54683 584.086 9.54683 584.388H6.91402C6.91402 583.789 7.08069 583.255 7.41402 582.786C7.74735 582.318 8.20829 581.953 8.79683 581.693C9.39058 581.427 10.0416 581.294 10.75 581.294C12.0156 581.294 13.0104 581.583 13.7343 582.161C14.4583 582.74 14.8203 583.534 14.8203 584.544C14.8203 585.034 14.6692 585.497 14.3671 585.935C14.0703 586.367 13.6354 586.719 13.0625 586.99C13.6666 587.208 14.1406 587.542 14.4843 587.99C14.8281 588.432 15 588.982 15 589.638C15 590.654 14.6093 591.466 13.8281 592.076C13.0468 592.685 12.0208 592.99 10.75 592.99C10.0052 592.99 9.31246 592.849 8.67183 592.568C8.03642 592.281 7.55465 591.888 7.22652 591.388C6.8984 590.883 6.73433 590.31 6.73433 589.669H9.38277C9.38277 590.018 9.5234 590.32 9.80465 590.576C10.0859 590.831 10.4323 590.958 10.8437 590.958C11.3073 590.958 11.677 590.831 11.9531 590.576C12.2291 590.315 12.3671 589.984 12.3671 589.583C12.3671 589.01 12.2239 588.604 11.9375 588.365C11.651 588.125 11.2552 588.005 10.75 588.005H9.46871V586.044Z" fill="white"/>
<path d="M38.664 579.08H37.368V581.656C37.368 584.264 35.736 587.016 33.672 588.072L34.456 589.128C36.072 588.264 37.4 586.472 38.024 584.376C38.68 586.344 39.976 588.024 41.496 588.84L42.312 587.8C40.296 586.792 38.664 584.184 38.664 581.656V579.08ZM47.256 583.656H44.888V577.848H43.576V592.184H44.888V584.744H47.256V583.656ZM54.5668 591.16C52.3108 591.16 50.9828 590.6 50.9828 589.624C50.9828 588.648 52.3108 588.088 54.5668 588.088C56.8068 588.088 58.1508 588.648 58.1508 589.624C58.1508 590.6 56.8068 591.16 54.5668 591.16ZM54.5668 587.064C51.4948 587.064 49.6548 587.976 49.6548 589.624C49.6548 591.272 51.4948 592.168 54.5668 592.168C57.6548 592.168 59.4788 591.272 59.4788 589.624C59.4788 587.976 57.6548 587.064 54.5668 587.064ZM52.5828 583.256C53.1748 583.352 53.8468 583.416 54.5668 583.416C55.3028 583.416 55.9748 583.352 56.5668 583.256V584.936H52.5828V583.256ZM50.8708 580.76C50.8708 579.72 52.2788 579.112 54.5668 579.112C56.8548 579.112 58.2628 579.72 58.2628 580.76C58.2628 581.784 56.8548 582.408 54.5668 582.408C52.2788 582.408 50.8708 581.784 50.8708 580.76ZM57.8628 584.936V582.904C58.9668 582.456 59.6068 581.72 59.6068 580.76C59.6068 579.08 57.6868 578.088 54.5668 578.088C51.4628 578.088 49.5268 579.08 49.5268 580.76C49.5268 581.736 50.1508 582.456 51.2868 582.92V584.936H48.0708V585.992H61.0628V584.936H57.8628ZM64.3575 581.32C64.3575 580.232 65.3015 579.496 66.6775 579.496C68.0215 579.496 68.9815 580.232 68.9815 581.32C68.9815 582.424 68.0215 583.144 66.6775 583.144C65.3015 583.144 64.3575 582.424 64.3575 581.32ZM71.2535 585.144C70.0055 585.336 68.6775 585.432 67.3495 585.512V584.104C69.0615 583.896 70.2135 582.84 70.2135 581.32C70.2135 579.64 68.7575 578.504 66.6775 578.504C64.5815 578.504 63.1415 579.64 63.1415 581.32C63.1415 582.856 64.2935 583.912 66.0375 584.12V585.56C64.6935 585.608 63.4135 585.624 62.3095 585.624L62.4855 586.696C64.9335 586.696 68.3415 586.648 71.3335 586.104L71.2535 585.144ZM65.6855 587.896H64.3735V591.848H73.9575V590.776H65.6855V587.896ZM73.4455 582.696V577.848H72.1335V588.824H73.4455V583.784H75.5415V582.696H73.4455ZM81.4923 586.616H84.7723V589.336H81.4923V586.616ZM86.0683 589.336V586.616H88.3083V585.544H79.4763V583.24H87.9723V578.888H78.1483V579.96H86.6923V582.184H78.1803V586.616H80.1963V589.336H76.5483V590.408H89.5883V589.336H86.0683ZM102.948 579.576H99.3317V577.848H98.0197V579.576H94.3717V580.616H102.948V579.576ZM96.5317 584.12C96.5317 583.128 97.3957 582.472 98.6757 582.472C99.9557 582.472 100.82 583.128 100.82 584.12C100.82 585.112 99.9557 585.752 98.6757 585.752C97.3957 585.752 96.5317 585.112 96.5317 584.12ZM99.3317 586.744C100.98 586.536 102.068 585.544 102.068 584.12C102.068 582.504 100.676 581.464 98.6757 581.464C96.6757 581.464 95.2837 582.504 95.2837 584.12C95.2837 585.544 96.3717 586.536 98.0197 586.744V588.312C96.6277 588.36 95.2837 588.36 94.1317 588.36L94.3077 589.464C96.8197 589.464 100.196 589.432 103.268 588.888L103.188 587.912C101.956 588.104 100.628 588.2 99.3317 588.264V586.744ZM107.588 583.928H105.348V577.832H104.036V592.184H105.348V585.032H107.588V583.928ZM114.451 584.744H110.483V580.136H114.451V584.744ZM119.027 581.432V583.432H115.731V581.432H119.027ZM115.731 584.504H119.027V588.312H120.355V577.848H119.027V580.36H115.731V579.096H109.187V585.784H115.731V584.504ZM112.435 590.792V587.384H111.123V591.864H120.691V590.792H112.435ZM129.249 579.064C131.601 579.064 132.945 579.608 132.945 580.568C132.945 581.528 131.601 582.072 129.249 582.072C126.897 582.072 125.553 581.528 125.553 580.568C125.553 579.608 126.897 579.064 129.249 579.064ZM129.249 583.048C132.401 583.048 134.289 582.184 134.289 580.568C134.289 578.952 132.401 578.072 129.249 578.072C126.097 578.072 124.209 578.952 124.209 580.568C124.209 582.184 126.097 583.048 129.249 583.048ZM125.649 589.544H134.081V586.312H124.321V587.304H132.785V588.584H124.369V592.024H134.513V591H125.649V589.544ZM122.753 584.024V585.08H135.745V584.024H122.753ZM149.265 584.84C147.153 584.136 145.665 582.392 145.665 580.472V579.896H148.913V578.84H141.041V579.896H144.321V580.472C144.321 582.488 142.865 584.36 140.689 585.128L141.377 586.152C143.073 585.528 144.401 584.248 145.009 582.616C145.665 584.12 146.977 585.304 148.625 585.88L149.265 584.84ZM142.673 588.328H150.961V592.184H152.273V587.272H142.673V588.328ZM150.961 577.832V586.52H152.273V577.832H150.961ZM162.255 586.312V587.288H165.167V588.76H166.479V577.832H165.167V586.312H162.255ZM159.327 579.384C160.687 579.384 161.615 579.992 161.615 580.904C161.615 581.832 160.687 582.44 159.327 582.44C157.967 582.44 157.039 581.832 157.039 580.904C157.039 579.992 157.967 579.384 159.327 579.384ZM159.327 583.416C161.423 583.416 162.863 582.44 162.863 580.904C162.863 579.4 161.423 578.408 159.327 578.408C157.231 578.408 155.791 579.4 155.791 580.904C155.791 582.44 157.231 583.416 159.327 583.416ZM158.815 588.248H160.127V585.416C161.423 585.336 162.751 585.192 164.015 585L163.903 584.056C160.863 584.44 157.311 584.472 154.655 584.472L154.831 585.56C156.015 585.56 157.391 585.544 158.815 585.48V588.248ZM158.015 590.792V587.688H156.703V591.864H166.847V590.792H158.015ZM172.222 587.816C171.07 587.816 170.35 586.36 170.35 584.008C170.35 581.704 171.07 580.248 172.222 580.248C173.342 580.248 174.078 581.704 174.078 584.008C174.078 586.36 173.342 587.816 172.222 587.816ZM177.07 583.416H175.262C175.102 580.712 173.95 579.032 172.222 579.032C170.35 579.032 169.15 580.952 169.15 584.008C169.15 587.112 170.35 589.032 172.222 589.032C173.982 589.032 175.15 587.304 175.262 584.488H177.07V591.48H178.318V578.152H177.07V583.416ZM179.918 577.832V592.184H181.166V577.832H179.918ZM191.165 583.704H188.685C189.165 582.424 189.373 581.064 189.373 579.656H183.837V580.728H188.077C187.837 583.736 186.301 586.312 183.229 588.152L183.997 589.096C185.981 587.912 187.357 586.424 188.221 584.76H191.165V591.464H192.413V578.216H191.165V583.704ZM194.157 577.832V592.184H195.405V577.832H194.157ZM203.772 582.488H211.1V585.128H203.772V582.488ZM208.092 589.272V586.184H212.38V578.856H211.1V581.416H203.772V578.856H202.476V586.184H206.764V589.272H200.94V590.344H213.948V589.272H208.092ZM222.427 585.576C222.523 585.08 222.587 584.536 222.587 583.944C222.587 583.288 222.507 582.68 222.379 582.12H225.691V585.576H222.427ZM219.019 587.784C217.643 587.784 216.683 586.28 216.683 583.944C216.683 581.624 217.643 580.12 219.019 580.12C220.379 580.12 221.355 581.624 221.355 583.944C221.355 586.28 220.379 587.784 219.019 587.784ZM225.691 577.832V581.048H222.011C221.403 579.704 220.347 578.936 219.019 578.936C216.923 578.936 215.435 580.888 215.435 583.944C215.435 587 216.923 588.952 219.019 588.952C220.395 588.952 221.515 588.104 222.107 586.648H225.691V592.216H227.003V577.832H225.691ZM230.698 584.808C232.922 584.424 235.034 583.224 235.914 581.528C236.778 583.224 238.906 584.424 241.13 584.808L241.642 583.768C239.114 583.4 236.634 581.752 236.634 579.864V579.784H241.13V578.728H230.65V579.784H235.178V579.864C235.178 581.752 232.698 583.4 230.202 583.768L230.698 584.808ZM242.394 586.008H229.434V587.08H235.226V592.184H236.538V587.08H242.41L242.394 586.008ZM248.745 579.08H247.449V581.656C247.449 584.376 245.705 587.128 243.593 588.136L244.393 589.208C246.073 588.344 247.449 586.552 248.105 584.392C248.793 586.44 250.169 588.136 251.801 588.936L252.585 587.88C250.457 586.92 248.745 584.28 248.745 581.656V579.08ZM254.089 577.832V592.216H255.401V577.832H254.089ZM268.024 580.696C268.024 582.424 268.024 584.44 267.48 587.192L268.792 587.336C269.336 584.44 269.336 582.472 269.336 580.696V579.272H259.272V580.344H268.024V580.696ZM264.264 589.096V583.96H262.952V589.096H257.912V590.168H270.888V589.096H264.264ZM272.333 593.266L271.513 592.703C272.002 592.021 272.258 591.318 272.278 590.594V589.289H273.693V590.422C273.693 590.948 273.562 591.474 273.302 592C273.047 592.526 272.724 592.948 272.333 593.266ZM41.368 608.312V609.288H44.28V610.76H45.592V599.832H44.28V608.312H41.368ZM38.44 601.384C39.8 601.384 40.728 601.992 40.728 602.904C40.728 603.832 39.8 604.44 38.44 604.44C37.08 604.44 36.152 603.832 36.152 602.904C36.152 601.992 37.08 601.384 38.44 601.384ZM38.44 605.416C40.536 605.416 41.976 604.44 41.976 602.904C41.976 601.4 40.536 600.408 38.44 600.408C36.344 600.408 34.904 601.4 34.904 602.904C34.904 604.44 36.344 605.416 38.44 605.416ZM37.928 610.248H39.24V607.416C40.536 607.336 41.864 607.192 43.128 607L43.016 606.056C39.976 606.44 36.424 606.472 33.768 606.472L33.944 607.56C35.128 607.56 36.504 607.544 37.928 607.48V610.248ZM37.128 612.792V609.688H35.816V613.864H45.96V612.792H37.128ZM52.2948 609.896C50.9988 609.896 50.0548 608.968 50.0548 607.688C50.0548 606.392 50.9988 605.464 52.2948 605.464C53.6068 605.464 54.5508 606.392 54.5508 607.688C54.5508 608.968 53.6068 609.896 52.2948 609.896ZM52.2948 604.376C50.2788 604.376 48.8228 605.752 48.8228 607.688C48.8228 609.64 50.2788 610.984 52.2948 610.984C54.3428 610.984 55.7988 609.64 55.7988 607.688C55.7988 605.752 54.3428 604.376 52.2948 604.376ZM52.9348 600.008H51.6228V602.136H48.0068V603.192H56.4708V602.136H52.9348V600.008ZM61.4948 605.736H59.1428V599.848H57.8308V614.184H59.1428V606.84H61.4948V605.736ZM73.8295 604.152H65.3815V600.36H64.0695V605.224H73.8295V604.152ZM65.2855 609.64H63.9735V613.832H73.9095V612.76H65.2855V609.64ZM62.3095 607.144V608.2H75.3175V607.144H62.3095ZM86.533 600.152C83.429 600.152 81.493 601.16 81.493 602.872C81.493 604.568 83.429 605.576 86.533 605.576C89.637 605.576 91.573 604.568 91.573 602.872C91.573 601.16 89.637 600.152 86.533 600.152ZM86.533 601.192C88.805 601.192 90.229 601.816 90.229 602.872C90.229 603.928 88.805 604.552 86.533 604.552C84.261 604.552 82.837 603.928 82.837 602.872C82.837 601.816 84.261 601.192 86.533 601.192ZM81.653 609.272V613.992H91.445V609.272H81.653ZM90.165 610.312V612.936H82.933V610.312H90.165ZM80.053 606.808V607.864H93.029V606.808H80.053ZM99.2197 608.616H102.5V611.336H99.2197V608.616ZM103.796 611.336V608.616H106.036V607.544H97.2037V605.24H105.7V600.888H95.8757V601.96H104.42V604.184H95.9077V608.616H97.9237V611.336H94.2757V612.408H107.316V611.336H103.796ZM118.579 602.344H110.195V605.416H120.131V604.472H111.491V603.24H119.875V600.248H110.163V601.176H118.579V602.344ZM111.411 611.72H119.923V608.664H110.083V609.608H118.627V610.808H110.115V613.992H120.371V613.048H111.411V611.72ZM108.531 606.504V607.496H121.539V606.504H108.531ZM127.538 606.808C129.762 606.424 131.874 605.224 132.754 603.528C133.618 605.224 135.746 606.424 137.97 606.808L138.482 605.768C135.954 605.4 133.474 603.752 133.474 601.864V601.784H137.97V600.728H127.49V601.784H132.018V601.864C132.018 603.752 129.538 605.4 127.042 605.768L127.538 606.808ZM139.234 608.008H126.274V609.08H132.066V614.184H133.378V609.08H139.25L139.234 608.008ZM150.513 604.488H143.441V601.56H150.513V604.488ZM151.809 600.504H142.161V605.544H151.809V600.504ZM143.441 609.768H142.129V613.864H152.049V612.792H143.441V609.768ZM140.465 607.176V608.232H146.433V611.128H147.745V608.232H153.505V607.176H140.465ZM158.943 609.896C157.647 609.896 156.703 608.968 156.703 607.688C156.703 606.392 157.647 605.464 158.943 605.464C160.255 605.464 161.199 606.392 161.199 607.688C161.199 608.968 160.255 609.896 158.943 609.896ZM158.943 604.376C156.927 604.376 155.471 605.752 155.471 607.688C155.471 609.64 156.927 610.984 158.943 610.984C160.991 610.984 162.447 609.64 162.447 607.688C162.447 605.752 160.991 604.376 158.943 604.376ZM159.583 600.008H158.271V602.136H154.655V603.192H163.119V602.136H159.583V600.008ZM168.143 605.736H165.791V599.848H164.479V614.184H165.791V606.84H168.143V605.736ZM174.062 601.08H172.766V603.656C172.766 606.376 171.022 609.128 168.91 610.136L169.71 611.208C171.39 610.344 172.766 608.552 173.422 606.392C174.11 608.44 175.486 610.136 177.118 610.936L177.902 609.88C175.774 608.92 174.062 606.28 174.062 603.656V601.08ZM179.406 599.832V614.216H180.718V599.832H179.406ZM189.133 606.744H185.165V602.136H189.133V606.744ZM193.709 603.432V605.432H190.413V603.432H193.709ZM190.413 606.504H193.709V610.312H195.037V599.848H193.709V602.36H190.413V601.096H183.869V607.784H190.413V606.504ZM187.117 612.792V609.384H185.805V613.864H195.373V612.792H187.117ZM202.972 603.32C202.972 602.232 203.916 601.496 205.292 601.496C206.636 601.496 207.596 602.232 207.596 603.32C207.596 604.424 206.636 605.144 205.292 605.144C203.916 605.144 202.972 604.424 202.972 603.32ZM209.868 607.144C208.62 607.336 207.292 607.432 205.964 607.512V606.104C207.676 605.896 208.828 604.84 208.828 603.32C208.828 601.64 207.372 600.504 205.292 600.504C203.196 600.504 201.756 601.64 201.756 603.32C201.756 604.856 202.908 605.912 204.652 606.12V607.56C203.308 607.608 202.028 607.624 200.924 607.624L201.1 608.696C203.548 608.696 206.956 608.648 209.948 608.104L209.868 607.144ZM204.3 609.896H202.988V613.848H212.572V612.776H204.3V609.896ZM212.06 604.696V599.848H210.748V610.824H212.06V605.784H214.156V604.696H212.06ZM220.107 608.616H223.387V611.336H220.107V608.616ZM224.683 611.336V608.616H226.923V607.544H218.091V605.24H226.587V600.888H216.763V601.96H225.307V604.184H216.795V608.616H218.811V611.336H215.163V612.408H228.203V611.336H224.683ZM231.281 609.789H229.976L229.875 601.625H231.39L231.281 609.789ZM229.82 612.273C229.82 612.039 229.89 611.844 230.031 611.688C230.177 611.526 230.39 611.445 230.672 611.445C230.953 611.445 231.166 611.526 231.312 611.688C231.458 611.844 231.531 612.039 231.531 612.273C231.531 612.508 231.458 612.703 231.312 612.859C231.166 613.01 230.953 613.086 230.672 613.086C230.39 613.086 230.177 613.01 230.031 612.859C229.89 612.703 229.82 612.508 229.82 612.273Z" fill="#555555"/>
<path fill-rule="evenodd" clip-rule="evenodd" d="M71 654C62.7157 654 56 660.716 56 669V695.764C56.0388 695.764 56.0776 695.763 56.1165 695.763C62.0351 695.763 66.833 700.692 66.833 706.771C66.833 712.851 62.0351 717.779 56.1165 717.779C56.0776 717.779 56.0388 717.779 56 717.778V745C56 753.284 62.7157 760 71 760H244.846C253.13 760 259.846 753.284 259.846 745V717.778C259.807 717.779 259.769 717.779 259.73 717.779C253.811 717.779 249.013 712.851 249.013 706.771C249.013 700.692 253.811 695.763 259.73 695.763C259.769 695.763 259.807 695.764 259.846 695.764V669C259.846 660.716 253.13 654 244.846 654H71Z" fill="#E8F4FF"/>
<mask id="mask0_221_4487" style="mask-type:alpha" maskUnits="userSpaceOnUse" x="56" y="654" width="204" height="106">
<path fill-rule="evenodd" clip-rule="evenodd" d="M71 654C62.7157 654 56 660.716 56 669V695.764C56.0388 695.764 56.0776 695.763 56.1165 695.763C62.0351 695.763 66.833 700.692 66.833 706.771C66.833 712.851 62.0351 717.779 56.1165 717.779C56.0776 717.779 56.0388 717.779 56 717.778V745C56 753.284 62.7157 760 71 760H244.846C253.13 760 259.846 753.284 259.846 745V717.778C259.807 717.779 259.769 717.779 259.73 717.779C253.811 717.779 249.013 712.851 249.013 706.771C249.013 700.692 253.811 695.763 259.73 695.763C259.769 695.763 259.807 695.764 259.846 695.764V669C259.846 660.716 253.13 654 244.846 654H71Z" fill="#E8F4FF"/>
</mask>
<g mask="url(#mask0_221_4487)">
<rect x="196.246" y="654.179" width="63.6" height="106" fill="#2394FD"/>
<path d="M215.912 743.239L215.912 739.387L215.12 739.387L215.12 743.239L212.9 743.239L212.9 738.991L212.096 738.991L212.096 744.211L219.296 744.211L219.296 743.359C219.296 741.307 219.224 739.867 218.936 738.187L218.132 738.283C218.42 739.891 218.492 741.283 218.492 743.239L215.912 743.239ZM211.124 737.047L221.876 737.047L221.876 736.063L211.124 736.063L211.124 737.047ZM212.06 730.64L212.06 731.612L213.992 731.612C216.032 731.612 218.096 732.92 218.852 734.504L219.656 733.904C219.008 732.644 217.664 731.612 216.044 731.12C217.58 730.604 218.852 729.572 219.452 728.348L218.66 727.76C217.94 729.356 215.96 730.64 213.992 730.64L212.06 730.64ZM211.124 726.632L221.912 726.632L221.912 725.648L211.124 725.648L211.124 726.632ZM216.536 714.741C216.176 716.625 214.544 718.665 212.708 718.665L211.88 718.665L211.88 719.697L212.708 719.697C214.544 719.697 216.164 721.725 216.536 723.609L217.352 723.165C216.968 721.545 215.816 719.865 214.244 719.181C215.828 718.497 216.98 716.817 217.352 715.185L216.536 714.741ZM219.632 724.017L220.448 724.017L220.448 714.261L219.632 714.261L219.632 724.017ZM211.364 706.329C211.364 708.657 212.12 710.109 213.404 710.109C214.676 710.109 215.432 708.657 215.432 706.329C215.432 704.001 214.676 702.549 213.404 702.549C212.12 702.549 211.364 704.001 211.364 706.329ZM212.144 706.329C212.144 704.625 212.612 703.557 213.404 703.557C214.196 703.557 214.664 704.625 214.664 706.329C214.664 708.033 214.196 709.101 213.404 709.101C212.612 709.101 212.144 708.033 212.144 706.329ZM218.204 709.989L221.744 709.989L221.744 702.645L218.204 702.645L218.204 709.989ZM218.984 703.605L220.952 703.605L220.952 709.029L218.984 709.029L218.984 703.605ZM216.356 711.189L217.148 711.189L217.148 701.457L216.356 701.457L216.356 711.189ZM217.712 697.054L217.712 694.594L219.752 694.594L219.752 697.054L217.712 697.054ZM219.752 693.622L217.712 693.622L217.712 691.942L216.908 691.942L216.908 698.566L215.18 698.566L215.18 692.194L211.916 692.194L211.916 699.562L212.72 699.562L212.72 693.154L214.388 693.154L214.388 699.538L217.712 699.538L217.712 698.026L219.752 698.026L219.752 700.762L220.556 700.762L220.556 690.982L219.752 690.982L219.752 693.622ZM216.92 680.567L216.92 682.199C215.156 681.815 213.908 681.815 212.78 681.815L211.796 681.815L211.796 689.075L212.6 689.075L212.6 682.763L212.78 682.763C213.212 682.763 213.644 682.763 214.112 682.787L214.364 689.387L215.192 689.255L214.88 682.847C215.492 682.895 216.152 682.991 216.92 683.171L216.92 690.299L217.724 690.299L217.724 685.919L221.888 685.919L221.888 684.935L217.724 684.935L217.724 680.567L216.92 680.567ZM218.696 677.64L218.696 678.624L221.648 678.624L221.648 671.22L220.844 671.22L220.844 677.64L218.696 677.64ZM212.408 676.356L212.408 673.68L214.856 673.68L214.856 676.356L212.408 676.356ZM216.956 674.508L215.648 674.508L215.648 671.112L214.856 671.112L214.856 672.696L212.408 672.696L212.408 671.076L211.616 671.076L211.616 678.972L212.408 678.972L212.408 677.34L214.856 677.34L214.856 678.936L215.648 678.936L215.648 675.492L216.956 675.492L216.956 679.884L217.748 679.884L217.748 670.152L216.956 670.152L216.956 674.508ZM227.832 725.288L227.832 726.884L229.44 726.884C231.492 726.884 233.604 727.724 234.48 729.584L235.764 728.636C235.152 727.388 233.988 726.56 232.584 726.08C233.904 725.624 234.972 724.844 235.56 723.692L234.312 722.732C233.436 724.508 231.432 725.288 229.44 725.288L227.832 725.288ZM231.228 719.096L231.228 720.704L226.98 720.704L226.98 722.288L238.032 722.288L238.032 720.704L232.548 720.704L232.548 719.096L231.228 719.096ZM236.844 713.949C236.844 715.425 236.592 716.181 236.028 716.181C235.464 716.181 235.224 715.425 235.224 713.949C235.224 712.473 235.464 711.717 236.028 711.717C236.592 711.717 236.844 712.473 236.844 713.949ZM234.024 713.949C234.024 716.337 234.744 717.777 236.028 717.777C237.312 717.777 238.044 716.337 238.044 713.949C238.044 711.561 237.312 710.109 236.028 710.109C234.744 710.109 234.024 711.561 234.024 713.949ZM231.3 715.089C231.348 714.729 231.372 714.345 231.372 713.925C231.372 713.517 231.348 713.133 231.312 712.785L232.224 712.785L232.224 715.089L231.3 715.089ZM228.348 713.925C228.348 712.413 228.648 711.549 229.272 711.549C229.872 711.549 230.184 712.413 230.184 713.925C230.184 715.425 229.872 716.289 229.272 716.289C228.648 716.289 228.348 715.425 228.348 713.925ZM232.224 711.201L230.904 711.201C230.544 710.385 229.992 709.917 229.272 709.917C227.952 709.917 227.148 711.477 227.148 713.925C227.148 716.361 227.952 717.921 229.272 717.921C229.98 717.921 230.532 717.465 230.892 716.673L232.224 716.673L232.224 718.917L233.472 718.917L233.472 708.933L232.224 708.933L232.224 711.201ZM229.668 704.074C228.996 704.074 228.612 703.558 228.612 702.802C228.612 702.046 228.996 701.506 229.668 701.506C230.34 701.506 230.724 702.046 230.724 702.802C230.724 703.558 230.34 704.074 229.668 704.074ZM232.404 699.49C232.524 700.282 232.584 701.146 232.632 701.998L231.84 701.998C231.576 700.822 230.748 700.042 229.668 700.042C228.348 700.042 227.424 701.194 227.424 702.802C227.424 704.398 228.348 705.55 229.668 705.55C230.76 705.55 231.588 704.758 231.84 703.582L232.692 703.582C232.716 704.494 232.716 705.37 232.716 706.126L233.976 705.934C233.976 704.11 233.94 701.626 233.52 699.394L232.404 699.49ZM234.696 703.102L234.696 704.686L237.84 704.686L237.84 696.958L236.58 696.958L236.58 703.102L234.696 703.102ZM230.448 697.33L226.98 697.33L226.98 698.914L235.416 698.914L235.416 697.33L231.756 697.33L231.756 695.938L230.448 695.938L230.448 697.33ZM233.832 691.559L233.832 689.627L235.524 689.627L235.524 691.559L233.832 691.559ZM235.524 688.067L233.832 688.067L233.832 686.519L232.572 686.519L232.572 692.927L231.36 692.927L231.36 686.771L227.688 686.771L227.688 694.511L228.948 694.511L228.948 688.331L230.124 688.331L230.124 694.499L233.832 694.499L233.832 693.119L235.524 693.119L235.524 695.663L236.82 695.663L236.82 685.643L235.524 685.643L235.524 688.067Z" fill="white"/>
</g>
<path d="M131.936 727.348H122.694V697.926L113.616 700.579V693.579L131.089 687.536H131.936V727.348Z" fill="#2394FD"/>
<path d="M152.64 717.47C149.74 716.61 148.48 714.55 148.44 712.45H152.04V710.33H142.08V712.45H145.74C145.7 714.75 144.38 717.09 141.4 718.09L142.72 720.15C144.88 719.45 146.34 717.99 147.16 716.17C147.96 717.69 149.36 718.91 151.38 719.51L152.64 717.47ZM150.14 725.51C147.78 725.51 146.52 725.01 146.52 723.97C146.52 722.91 147.78 722.41 150.14 722.41C152.48 722.41 153.74 722.91 153.74 723.97C153.74 725.01 152.48 725.51 150.14 725.51ZM150.14 720.37C146.3 720.37 143.9 721.71 143.9 723.97C143.9 726.21 146.3 727.53 150.14 727.53C153.96 727.53 156.36 726.21 156.36 723.97C156.36 721.71 153.96 720.37 150.14 720.37ZM156.16 713.35V709.11H153.52V720.05H156.16V715.51H158.6V713.35H156.16Z" fill="#2394FD"/>
<line x1="73" y1="814" x2="244" y2="814" stroke="#FFFBA0" stroke-width="10"/>
<line x1="84" y1="840" x2="235" y2="840" stroke="#FFFBA0" stroke-width="10"/>
<path d="M71.6377 795.483C68.9697 795.702 66.1918 796.258 63.5305 796.178C62.4113 796.144 60.8832 795.826 59.7747 796.293C59.5282 796.397 60.1635 796.643 60.3902 796.762C61.253 797.214 62.1203 797.656 62.9728 798.128C64.9846 799.244 66.9553 800.443 68.9467 801.598C69.3812 801.85 70.633 802.648 70.2974 802.258C69.5879 801.435 68.7226 800.802 68.04 799.932C66.9107 798.493 66.0241 796.931 65.3104 795.19C64.8768 794.133 64.5173 792.712 63.8188 791.822C63.4681 791.375 63.9416 793.024 64.0368 793.617C64.5115 796.57 63.9333 799.174 63.6942 802.132C63.5854 803.477 63.6992 803.837 64.7695 802.843C66.7943 800.963 68.4336 798.668 70.3209 796.628C71.1292 795.754 71.5133 795.441 72.4712 795.766" stroke="#D66363" stroke-linecap="round"/>
<path d="M82.6429 801.256H79.3789V799.704H77.2669V801.256H73.9709V802.92H82.6429V801.256ZM76.7229 806.264C76.7229 805.512 77.3629 805.096 78.3229 805.096C79.2829 805.096 79.9229 805.512 79.9229 806.264C79.9229 807.048 79.2829 807.464 78.3229 807.464C77.3629 807.464 76.7229 807.048 76.7229 806.264ZM79.3789 808.936C80.9149 808.616 81.9229 807.624 81.9229 806.264C81.9229 804.616 80.4349 803.496 78.3229 803.496C76.2109 803.496 74.7229 804.616 74.7229 806.264C74.7229 807.624 75.7309 808.616 77.2669 808.936V810.184C75.9709 810.216 74.7549 810.216 73.6989 810.216L73.9549 811.928C76.4509 811.928 79.7629 811.928 82.8669 811.32L82.7069 809.8C81.6509 809.96 80.5149 810.04 79.3789 810.104V808.936ZM87.4109 805.64H85.5709V799.64H83.4589V814.376H85.5709V807.384H87.4109V805.64ZM92.7857 806.36H89.9857V802.472H92.7857V806.36ZM97.5057 803.64V805.128H94.8497V803.64H97.5057ZM94.8497 806.808H97.5057V810.376H99.6177V799.64H97.5057V801.96H94.8497V800.824H87.9057V808.024H94.8497V806.808ZM92.0017 812.44V809.368H89.8897V814.12H99.9377V812.44H92.0017ZM113.537 799.624V814.408H115.649V799.624H113.537ZM107.729 800.664C105.505 800.664 103.857 802.68 103.857 805.912C103.857 809.16 105.505 811.192 107.729 811.192C109.953 811.192 111.601 809.16 111.601 805.912C111.601 802.68 109.953 800.664 107.729 800.664ZM107.729 802.568C108.817 802.568 109.569 803.736 109.569 805.912C109.569 808.104 108.817 809.272 107.729 809.272C106.641 809.272 105.889 808.104 105.889 805.912C105.889 803.736 106.641 802.568 107.729 802.568ZM123.504 812.792C121.536 812.792 120.528 812.456 120.528 811.688C120.528 810.92 121.536 810.568 123.504 810.568C125.472 810.568 126.48 810.92 126.48 811.688C126.48 812.456 125.472 812.792 123.504 812.792ZM123.504 808.968C120.32 808.968 118.4 809.944 118.4 811.688C118.4 813.416 120.32 814.392 123.504 814.392C126.688 814.392 128.624 813.416 128.624 811.688C128.624 809.944 126.688 808.968 123.504 808.968ZM124.608 806.568V805.352H128.704V803.672H120.608V801.944H128.624V800.264H118.512V805.352H122.496V806.568H116.896V808.248H130.224V806.568H124.608ZM136.03 800.776H133.918V802.92C133.918 805.784 132.702 808.632 130.126 809.736L131.39 811.48C133.15 810.648 134.35 809.064 135.006 807.096C135.662 808.904 136.798 810.36 138.494 811.128L139.694 809.416C137.198 808.344 136.03 805.656 136.03 802.92V800.776ZM140.414 799.624V814.408H142.526V799.624H140.414ZM147.869 806.936C150.445 806.584 152.253 805.48 153.133 803.976C154.013 805.48 155.821 806.584 158.397 806.936L159.149 805.288C156.157 804.92 154.605 803.48 154.397 802.072H158.573V800.392H147.645V802.072H151.885C151.677 803.48 150.109 804.92 147.101 805.288L147.869 806.936ZM159.789 807.784H146.477V809.464H152.029V814.408H154.141V809.464H159.789V807.784ZM169.452 804.088H163.612V801.912H169.452V804.088ZM171.532 800.264H161.532V805.752H171.532V800.264ZM163.548 809.848H161.436V814.12H171.756V812.44H163.548V809.848ZM159.884 806.92V808.584H165.692V811.096H167.804V808.584H173.228V806.92H159.884ZM185.579 803.24H179.835V802.376H185.579V803.24ZM187.675 799.864H185.579V800.84H179.835V799.864H177.739V804.792H187.675V799.864ZM189.371 807.24V805.576H176.043V807.24H181.627V808.152H177.563V809.704H185.659V810.44H177.579V814.264H188.123V812.696H179.675V811.896H187.739V808.152H183.739V807.24H189.371ZM190.154 801.144V802.856H194.97C194.586 806.12 192.762 808.456 189.338 810.216L190.522 811.832C195.418 809.352 197.098 805.56 197.098 801.144H190.154ZM203.082 805.256H201.018V799.624H198.906V814.344H201.018V807H203.082V805.256ZM207.177 809.64C206.185 809.64 205.449 808.968 205.449 807.848C205.449 806.728 206.185 806.04 207.177 806.04C208.169 806.04 208.889 806.728 208.889 807.832C208.889 808.968 208.169 809.64 207.177 809.64ZM207.177 804.328C205.033 804.328 203.433 805.784 203.433 807.832C203.433 809.912 205.033 811.368 207.177 811.368C209.305 811.368 210.889 809.912 210.889 807.832C210.889 805.784 209.305 804.328 207.177 804.328ZM208.217 799.896H206.105V801.816H202.841V803.496H211.417V801.816H208.217V799.896ZM216.601 805.4H214.489V799.64H212.377V814.376H214.489V807.144H216.601V805.4ZM216.36 810.904V812.632H229.704V810.904H216.36ZM217.768 800.792V808.072H228.248V800.792H217.768ZM226.184 802.456V806.408H219.832V802.456H226.184ZM237.51 811.032V808.84H241.974V807.144H233.43V805.496H241.638V800.584H231.318V802.264H239.558V803.848H231.334V808.84H235.398V811.032H229.798V812.76H243.142V811.032H237.51ZM92.9678 833.57C92.9678 834.633 92.7959 835.557 92.4522 836.344C92.1084 837.125 91.6319 837.753 91.0225 838.227L92.9131 839.711L91.4209 841.031L88.9991 839.086C88.723 839.133 88.4366 839.156 88.1397 839.156C87.197 839.156 86.3558 838.93 85.6162 838.477C84.8767 838.023 84.3037 837.378 83.8975 836.539C83.4912 835.695 83.2855 834.727 83.2803 833.633V833.07C83.2803 831.951 83.4808 830.966 83.8819 830.117C84.2881 829.263 84.8584 828.609 85.5928 828.156C86.3324 827.698 87.1761 827.469 88.1241 827.469C89.072 827.469 89.9131 827.698 90.6475 828.156C91.3871 828.609 91.9574 829.263 92.3584 830.117C92.7647 830.966 92.9678 831.948 92.9678 833.062V833.57ZM90.5928 833.055C90.5928 831.862 90.3793 830.956 89.9522 830.336C89.5251 829.716 88.9157 829.406 88.1241 829.406C87.3376 829.406 86.7308 829.714 86.3037 830.328C85.8767 830.938 85.6605 831.833 85.6553 833.016V833.57C85.6553 834.732 85.8689 835.633 86.2959 836.273C86.723 836.914 87.3376 837.234 88.1397 837.234C88.9261 837.234 89.5303 836.927 89.9522 836.312C90.3741 835.693 90.5876 834.792 90.5928 833.609V833.055ZM97.6175 834.836H95.7503V839H93.4066V827.625H97.6331C98.9769 827.625 100.013 827.924 100.743 828.523C101.472 829.122 101.836 829.969 101.836 831.062C101.836 831.839 101.667 832.487 101.328 833.008C100.995 833.523 100.487 833.935 99.805 834.242L102.266 838.891V839H99.7503L97.6175 834.836ZM95.7503 832.938H97.6409C98.2295 832.938 98.6852 832.789 99.0081 832.492C99.331 832.19 99.4925 831.776 99.4925 831.25C99.4925 830.714 99.3389 830.292 99.0316 829.984C98.7295 829.677 98.2633 829.523 97.6331 829.523H95.7503V832.938ZM114.898 832.568C111.57 832.008 109.746 829.72 109.746 827.56V826.504H107.49V827.56C107.49 829.672 105.65 832.008 102.338 832.568L103.234 834.344C105.794 833.848 107.666 832.408 108.61 830.536C109.554 832.408 111.442 833.832 114.002 834.344L114.898 832.568ZM102.018 836.872V838.584H115.362V836.872H102.018ZM124.752 831.624H126.016V836.712H128.016V825.64H126.016V829.928H124.752V825.912H122.784V836.296H124.752V831.624ZM116.144 826.872V828.552H119.824C119.776 828.952 119.696 829.32 119.584 829.688L115.52 829.88L115.792 831.56L118.848 831.224C118.128 832.232 117.008 833.064 115.36 833.768L116.352 835.256C120.448 833.464 121.92 830.728 121.92 826.872H116.144ZM120.128 838.44V835.432H118.016V840.12H128.416V838.44H120.128ZM144.224 827.176H139.312V825.624H137.2V827.176H132.24V828.824H144.224V827.176ZM141.12 831.944C141.12 832.6 140.176 832.904 138.256 832.904C136.336 832.904 135.408 832.6 135.408 831.944C135.408 831.256 136.336 830.968 138.256 830.968C140.176 830.968 141.12 831.256 141.12 831.944ZM133.216 831.944C133.216 833.56 135.104 834.472 138.256 834.472C141.408 834.472 143.312 833.56 143.312 831.944C143.312 830.312 141.408 829.4 138.256 829.4C135.104 829.4 133.216 830.312 133.216 831.944ZM144.944 835.176H131.6V836.872H137.2V840.392H139.312V836.872H144.944V835.176ZM149.039 831.944C151.807 831.672 153.615 830.616 154.399 829.192C155.167 830.616 156.991 831.672 159.743 831.944L160.495 830.296C157.647 830.04 156.207 828.984 155.903 827.912H159.855V826.248H148.943V827.912H152.895C152.575 828.984 151.135 830.024 148.303 830.296L149.039 831.944ZM149.215 836.936H157.343V840.392H159.455V835.272H149.215V836.936ZM147.727 832.536V834.216H161.071V832.536H147.727ZM166.893 826.776H164.781V828.92C164.781 831.784 163.565 834.632 160.989 835.736L162.253 837.48C164.013 836.648 165.213 835.064 165.869 833.096C166.525 834.904 167.661 836.36 169.357 837.128L170.557 835.416C168.061 834.344 166.893 831.656 166.893 828.92V826.776ZM171.277 825.624V840.408H173.389V825.624H171.277ZM178.733 832.936C181.309 832.584 183.117 831.48 183.997 829.976C184.877 831.48 186.685 832.584 189.261 832.936L190.013 831.288C187.021 830.92 185.469 829.48 185.261 828.072H189.437V826.392H178.509V828.072H182.749C182.541 829.48 180.973 830.92 177.965 831.288L178.733 832.936ZM190.653 833.784H177.341V835.464H182.893V840.408H185.005V835.464H190.653V833.784ZM200.315 830.088H194.475V827.912H200.315V830.088ZM202.395 826.264H192.395V831.752H202.395V826.264ZM194.411 835.848H192.299V840.12H202.619V838.44H194.411V835.848ZM190.747 832.92V834.584H196.555V837.096H198.667V834.584H204.091V832.92H190.747ZM219.178 825.656H217.066V833.192H219.178V825.656ZM210.73 828.168H212.282V831.144C211.77 831.176 211.242 831.192 210.73 831.208V828.168ZM216.026 830.872C215.466 830.936 214.906 830.984 214.314 831.032V828.168H215.466V826.536H207.53V828.168H208.698V831.24L207.162 831.256L207.37 832.92C209.914 832.92 213.226 832.84 216.122 832.36L216.026 830.872ZM211.322 838.632V837.752H219.178V833.784H209.21V835.4H217.082V836.248H209.226V840.264H219.594V838.632H211.322ZM233.193 830.872C229.849 830.408 228.153 828.488 228.153 826.776V826.072H225.897V826.776C225.897 828.504 224.217 830.408 220.857 830.872L221.657 832.568C224.233 832.184 226.089 830.984 227.033 829.4C227.977 830.984 229.817 832.184 232.393 832.568L233.193 830.872ZM233.673 833.656H220.361V835.368H225.913V840.392H228.025V835.368H233.673V833.656Z" fill="#D66363"/>
</svg>
